<?xml version="1.0" encoding="UTF-8" standalone="no"?>
<!DOCTYPE svg PUBLIC "-//W3C//DTD SVG 1.1//EN" "http://www.w3.org/Graphics/SVG/1.1/DTD/svg11.dtd">
<!-- Generated by graphviz version 2.40.1 (20161225.0304)
 -->
<!-- Title: snakemake_dag Pages: 1 -->
<svg width="476pt" height="1196pt" viewBox="0.00 0.00 476.00 1196.00" xmlns="http://www.w3.org/2000/svg" xmlns:xlink="http://www.w3.org/1999/xlink">
<g id="graph0" class="graph" transform="scale(1 1) rotate(0) translate(4 1192)">
<title>snakemake_dag</title>
<polygon fill="#ffffff" stroke="transparent" points="-4,4 -4,-1192 472,-1192 472,4 -4,4"/>
<!-- 0 -->
<g id="node1" class="node">
<title>0</title>
<path fill="none" stroke="#56c1d8" stroke-width="2" d="M309,-36C309,-36 279,-36 279,-36 273,-36 267,-30 267,-24 267,-24 267,-12 267,-12 267,-6 273,0 279,0 279,0 309,0 309,0 315,0 321,-6 321,-12 321,-12 321,-24 321,-24 321,-30 315,-36 309,-36"/>
<text text-anchor="middle" x="294" y="-15" font-family="sans" font-size="10.00" fill="#000000">all</text>
</g>
<!-- 1 -->
<g id="node2" class="node">
<title>1</title>
<path fill="none" stroke="#568ad8" stroke-width="2" d="M238.441,-324C238.441,-324 179.559,-324 179.559,-324 173.559,-324 167.559,-318 167.559,-312 167.559,-312 167.559,-300 167.559,-300 167.559,-294 173.559,-288 179.559,-288 179.559,-288 238.441,-288 238.441,-288 244.441,-288 250.441,-294 250.441,-300 250.441,-300 250.441,-312 250.441,-312 250.441,-318 244.441,-324 238.441,-324"/>
<text text-anchor="middle" x="209" y="-303" font-family="sans" font-size="10.00" fill="#000000"> Compress VCF </text>
</g>
<!-- 66 -->
<g id="node25" class="node">
<title>66</title>
<path fill="none" stroke="#568ad8" stroke-width="2" d="M216.4121,-252C216.4121,-252 167.5879,-252 167.5879,-252 161.5879,-252 155.5879,-246 155.5879,-240 155.5879,-240 155.5879,-228 155.5879,-228 155.5879,-222 161.5879,-216 167.5879,-216 167.5879,-216 216.4121,-216 216.4121,-216 222.4121,-216 228.4121,-222 228.4121,-228 228.4121,-228 228.4121,-240 228.4121,-240 228.4121,-246 222.4121,-252 216.4121,-252"/>
<text text-anchor="middle" x="192" y="-231" font-family="sans" font-size="10.00" fill="#000000"> Index giraffe </text>
</g>
<!-- 1&#45;&gt;66 -->
<g id="edge39" class="edge">
<title>1-&gt;66</title>
<path fill="none" stroke="#c0c0c0" stroke-width="2" d="M204.7102,-287.8314C202.892,-280.131 200.7301,-270.9743 198.7095,-262.4166"/>
<polygon fill="#c0c0c0" stroke="#c0c0c0" stroke-width="2" points="202.0519,-261.3414 196.3476,-252.4133 195.2392,-262.95 202.0519,-261.3414"/>
</g>
<!-- 2 -->
<g id="node3" class="node">
<title>2</title>
<path fill="none" stroke="#c5e544" stroke-width="2" d="M311.6152,-396C311.6152,-396 276.3848,-396 276.3848,-396 270.3848,-396 264.3848,-390 264.3848,-384 264.3848,-384 264.3848,-372 264.3848,-372 264.3848,-366 270.3848,-360 276.3848,-360 276.3848,-360 311.6152,-360 311.6152,-360 317.6152,-360 323.6152,-366 323.6152,-372 323.6152,-372 323.6152,-384 323.6152,-384 323.6152,-390 317.6152,-396 311.6152,-396"/>
<text text-anchor="middle" x="294" y="-375" font-family="sans" font-size="10.00" fill="#000000"> Sort VCF </text>
</g>
<!-- 2&#45;&gt;0 -->
<g id="edge1" class="edge">
<title>2-&gt;0</title>
<path fill="none" stroke="#c0c0c0" stroke-width="2" d="M294,-359.8146C294,-332.4983 294,-279.25 294,-234 294,-234 294,-234 294,-162 294,-121.876 294,-75.4631 294,-46.4177"/>
<polygon fill="#c0c0c0" stroke="#c0c0c0" stroke-width="2" points="297.5001,-46.1853 294,-36.1854 290.5001,-46.1854 297.5001,-46.1853"/>
</g>
<!-- 2&#45;&gt;1 -->
<g id="edge11" class="edge">
<title>2-&gt;1</title>
<path fill="none" stroke="#c0c0c0" stroke-width="2" d="M272.5509,-359.8314C262.1822,-351.0485 249.5771,-340.3712 238.3354,-330.8489"/>
<polygon fill="#c0c0c0" stroke="#c0c0c0" stroke-width="2" points="240.3349,-327.9556 230.4422,-324.1628 235.8105,-333.297 240.3349,-327.9556"/>
</g>
<!-- 63 -->
<g id="node22" class="node">
<title>63</title>
<path fill="none" stroke="#5b3366" stroke-width="2" d="M413.09,-324C413.09,-324 334.91,-324 334.91,-324 328.91,-324 322.91,-318 322.91,-312 322.91,-312 322.91,-300 322.91,-300 322.91,-294 328.91,-288 334.91,-288 334.91,-288 413.09,-288 413.09,-288 419.09,-288 425.09,-294 425.09,-300 425.09,-300 425.09,-312 425.09,-312 425.09,-318 419.09,-324 413.09,-324"/>
<text text-anchor="middle" x="374" y="-303" font-family="sans" font-size="10.00" fill="#000000"> Construct VG graph </text>
</g>
<!-- 2&#45;&gt;63 -->
<g id="edge35" class="edge">
<title>2-&gt;63</title>
<path fill="none" stroke="#c0c0c0" stroke-width="2" d="M314.1874,-359.8314C323.8514,-351.1337 335.5796,-340.5783 346.0816,-331.1265"/>
<polygon fill="#c0c0c0" stroke="#c0c0c0" stroke-width="2" points="348.7275,-333.454 353.8191,-324.1628 344.0447,-328.251 348.7275,-333.454"/>
</g>
<!-- 3 -->
<g id="node4" class="node">
<title>3</title>
<path fill="none" stroke="#c5e544" stroke-width="2" d="M315.866,-468C315.866,-468 272.134,-468 272.134,-468 266.134,-468 260.134,-462 260.134,-456 260.134,-456 260.134,-444 260.134,-444 260.134,-438 266.134,-432 272.134,-432 272.134,-432 315.866,-432 315.866,-432 321.866,-432 327.866,-438 327.866,-444 327.866,-444 327.866,-456 327.866,-456 327.866,-462 321.866,-468 315.866,-468"/>
<text text-anchor="middle" x="294" y="-447" font-family="sans" font-size="10.00" fill="#000000"> Add header </text>
</g>
<!-- 3&#45;&gt;2 -->
<g id="edge12" class="edge">
<title>3-&gt;2</title>
<path fill="none" stroke="#c0c0c0" stroke-width="2" d="M294,-431.8314C294,-424.131 294,-414.9743 294,-406.4166"/>
<polygon fill="#c0c0c0" stroke="#c0c0c0" stroke-width="2" points="297.5001,-406.4132 294,-396.4133 290.5001,-406.4133 297.5001,-406.4132"/>
</g>
<!-- 4 -->
<g id="node5" class="node">
<title>4</title>
<path fill="none" stroke="#c5e544" stroke-width="2" d="M256.3133,-540C256.3133,-540 213.6867,-540 213.6867,-540 207.6867,-540 201.6867,-534 201.6867,-528 201.6867,-528 201.6867,-516 201.6867,-516 201.6867,-510 207.6867,-504 213.6867,-504 213.6867,-504 256.3133,-504 256.3133,-504 262.3133,-504 268.3133,-510 268.3133,-516 268.3133,-516 268.3133,-528 268.3133,-528 268.3133,-534 262.3133,-540 256.3133,-540"/>
<text text-anchor="middle" x="235" y="-519" font-family="sans" font-size="10.00" fill="#000000"> Sort header </text>
</g>
<!-- 4&#45;&gt;3 -->
<g id="edge13" class="edge">
<title>4-&gt;3</title>
<path fill="none" stroke="#c0c0c0" stroke-width="2" d="M249.8882,-503.8314C256.753,-495.454 265.0301,-485.3531 272.5511,-476.1749"/>
<polygon fill="#c0c0c0" stroke="#c0c0c0" stroke-width="2" points="275.2803,-478.3665 278.9114,-468.4133 269.8659,-473.9297 275.2803,-478.3665"/>
</g>
<!-- 5 -->
<g id="node6" class="node">
<title>5</title>
<path fill="none" stroke="#c5e544" stroke-width="2" d="M263.467,-612C263.467,-612 186.533,-612 186.533,-612 180.533,-612 174.533,-606 174.533,-600 174.533,-600 174.533,-588 174.533,-588 174.533,-582 180.533,-576 186.533,-576 186.533,-576 263.467,-576 263.467,-576 269.467,-576 275.467,-582 275.467,-588 275.467,-588 275.467,-600 275.467,-600 275.467,-606 269.467,-612 263.467,-612"/>
<text text-anchor="middle" x="225" y="-591" font-family="sans" font-size="10.00" fill="#000000"> Extract VCF header </text>
</g>
<!-- 5&#45;&gt;4 -->
<g id="edge15" class="edge">
<title>5-&gt;4</title>
<path fill="none" stroke="#c0c0c0" stroke-width="2" d="M227.5234,-575.8314C228.5929,-568.131 229.8647,-558.9743 231.0532,-550.4166"/>
<polygon fill="#c0c0c0" stroke="#c0c0c0" stroke-width="2" points="234.5336,-550.7997 232.4426,-540.4133 227.6001,-549.8367 234.5336,-550.7997"/>
</g>
<!-- 6 -->
<g id="node7" class="node">
<title>6</title>
<path fill="none" stroke="#c5e544" stroke-width="2" d="M260.3691,-684C260.3691,-684 189.6309,-684 189.6309,-684 183.6309,-684 177.6309,-678 177.6309,-672 177.6309,-672 177.6309,-660 177.6309,-660 177.6309,-654 183.6309,-648 189.6309,-648 189.6309,-648 260.3691,-648 260.3691,-648 266.3691,-648 272.3691,-654 272.3691,-660 272.3691,-660 272.3691,-672 272.3691,-672 272.3691,-678 266.3691,-684 260.3691,-684"/>
<text text-anchor="middle" x="225" y="-663" font-family="sans" font-size="10.00" fill="#000000"> Decompress  VCF </text>
</g>
<!-- 6&#45;&gt;5 -->
<g id="edge16" class="edge">
<title>6-&gt;5</title>
<path fill="none" stroke="#c0c0c0" stroke-width="2" d="M225,-647.8314C225,-640.131 225,-630.9743 225,-622.4166"/>
<polygon fill="#c0c0c0" stroke="#c0c0c0" stroke-width="2" points="228.5001,-622.4132 225,-612.4133 221.5001,-622.4133 228.5001,-622.4132"/>
</g>
<!-- 61 -->
<g id="node20" class="node">
<title>61</title>
<path fill="none" stroke="#c5e544" stroke-width="2" d="M380.2403,-612C380.2403,-612 305.7597,-612 305.7597,-612 299.7597,-612 293.7597,-606 293.7597,-600 293.7597,-600 293.7597,-588 293.7597,-588 293.7597,-582 299.7597,-576 305.7597,-576 305.7597,-576 380.2403,-576 380.2403,-576 386.2403,-576 392.2403,-582 392.2403,-588 392.2403,-588 392.2403,-600 392.2403,-600 392.2403,-606 386.2403,-612 380.2403,-612"/>
<text text-anchor="middle" x="343" y="-591" font-family="sans" font-size="10.00" fill="#000000"> Remove vcf header </text>
</g>
<!-- 6&#45;&gt;61 -->
<g id="edge32" class="edge">
<title>6-&gt;61</title>
<path fill="none" stroke="#c0c0c0" stroke-width="2" d="M254.7764,-647.8314C269.8693,-638.6221 288.3757,-627.3301 304.5343,-617.4706"/>
<polygon fill="#c0c0c0" stroke="#c0c0c0" stroke-width="2" points="306.5198,-620.3593 313.2331,-612.1628 302.8737,-614.3838 306.5198,-620.3593"/>
</g>
<!-- 7 -->
<g id="node8" class="node">
<title>7</title>
<path fill="none" stroke="#d85656" stroke-width="2" d="M242.7084,-756C242.7084,-756 171.2916,-756 171.2916,-756 165.2916,-756 159.2916,-750 159.2916,-744 159.2916,-744 159.2916,-732 159.2916,-732 159.2916,-726 165.2916,-720 171.2916,-720 171.2916,-720 242.7084,-720 242.7084,-720 248.7084,-720 254.7084,-726 254.7084,-732 254.7084,-732 254.7084,-744 254.7084,-744 254.7084,-750 248.7084,-756 242.7084,-756"/>
<text text-anchor="middle" x="207" y="-735" font-family="sans" font-size="10.00" fill="#000000"> Merge simulations </text>
</g>
<!-- 7&#45;&gt;6 -->
<g id="edge17" class="edge">
<title>7-&gt;6</title>
<path fill="none" stroke="#c0c0c0" stroke-width="2" d="M211.5422,-719.8314C213.4884,-712.0463 215.8068,-702.7729 217.9663,-694.1347"/>
<polygon fill="#c0c0c0" stroke="#c0c0c0" stroke-width="2" points="221.3668,-694.9636 220.3967,-684.4133 214.5758,-693.2658 221.3668,-694.9636"/>
</g>
<!-- 8 -->
<g id="node9" class="node">
<title>8</title>
<path fill="none" stroke="#d85656" stroke-width="2" d="M165.4422,-900C165.4422,-900 108.5578,-900 108.5578,-900 102.5578,-900 96.5578,-894 96.5578,-888 96.5578,-888 96.5578,-876 96.5578,-876 96.5578,-870 102.5578,-864 108.5578,-864 108.5578,-864 165.4422,-864 165.4422,-864 171.4422,-864 177.4422,-870 177.4422,-876 177.4422,-876 177.4422,-888 177.4422,-888 177.4422,-894 171.4422,-900 165.4422,-900"/>
<text text-anchor="middle" x="137" y="-879" font-family="sans" font-size="10.00" fill="#000000"> Compress VCF</text>
</g>
<!-- 8&#45;&gt;7 -->
<g id="edge18" class="edge">
<title>8-&gt;7</title>
<path fill="none" stroke="#c0c0c0" stroke-width="2" d="M117.8416,-863.7291C100.6542,-845.0452 80.2359,-815.509 95,-792 107.2456,-772.5013 128.7302,-759.8766 149.6291,-751.7827"/>
<polygon fill="#c0c0c0" stroke="#c0c0c0" stroke-width="2" points="150.9185,-755.0387 159.1547,-748.3743 148.5602,-748.4479 150.9185,-755.0387"/>
</g>
<!-- 42 -->
<g id="node15" class="node">
<title>42</title>
<path fill="none" stroke="#d85656" stroke-width="2" d="M157.7156,-828C157.7156,-828 116.2844,-828 116.2844,-828 110.2844,-828 104.2844,-822 104.2844,-816 104.2844,-816 104.2844,-804 104.2844,-804 104.2844,-798 110.2844,-792 116.2844,-792 116.2844,-792 157.7156,-792 157.7156,-792 163.7156,-792 169.7156,-798 169.7156,-804 169.7156,-804 169.7156,-816 169.7156,-816 169.7156,-822 163.7156,-828 157.7156,-828"/>
<text text-anchor="middle" x="137" y="-807" font-family="sans" font-size="10.00" fill="#000000"> Index VCF </text>
</g>
<!-- 8&#45;&gt;42 -->
<g id="edge27" class="edge">
<title>8-&gt;42</title>
<path fill="none" stroke="#c0c0c0" stroke-width="2" d="M137,-863.8314C137,-856.131 137,-846.9743 137,-838.4166"/>
<polygon fill="#c0c0c0" stroke="#c0c0c0" stroke-width="2" points="140.5001,-838.4132 137,-828.4133 133.5001,-838.4133 140.5001,-838.4132"/>
</g>
<!-- 9 -->
<g id="node10" class="node">
<title>9</title>
<path fill="none" stroke="#d85656" stroke-width="2" d="M165.1632,-972C165.1632,-972 108.8368,-972 108.8368,-972 102.8368,-972 96.8368,-966 96.8368,-960 96.8368,-960 96.8368,-948 96.8368,-948 96.8368,-942 102.8368,-936 108.8368,-936 108.8368,-936 165.1632,-936 165.1632,-936 171.1632,-936 177.1632,-942 177.1632,-948 177.1632,-948 177.1632,-960 177.1632,-960 177.1632,-966 171.1632,-972 165.1632,-972"/>
<text text-anchor="middle" x="137" y="-957" font-family="sans" font-size="10.00" fill="#000000">  Run msprime  </text>
<text text-anchor="middle" x="137" y="-945" font-family="sans" font-size="10.00" fill="#000000">chr01</text>
</g>
<!-- 9&#45;&gt;8 -->
<g id="edge24" class="edge">
<title>9-&gt;8</title>
<path fill="none" stroke="#c0c0c0" stroke-width="2" d="M137,-935.8314C137,-928.131 137,-918.9743 137,-910.4166"/>
<polygon fill="#c0c0c0" stroke="#c0c0c0" stroke-width="2" points="140.5001,-910.4132 137,-900.4133 133.5001,-910.4133 140.5001,-910.4132"/>
</g>
<!-- 10 -->
<g id="node11" class="node">
<title>10</title>
<path fill="none" stroke="#d85656" stroke-width="2" d="M263.4422,-900C263.4422,-900 206.5578,-900 206.5578,-900 200.5578,-900 194.5578,-894 194.5578,-888 194.5578,-888 194.5578,-876 194.5578,-876 194.5578,-870 200.5578,-864 206.5578,-864 206.5578,-864 263.4422,-864 263.4422,-864 269.4422,-864 275.4422,-870 275.4422,-876 275.4422,-876 275.4422,-888 275.4422,-888 275.4422,-894 269.4422,-900 263.4422,-900"/>
<text text-anchor="middle" x="235" y="-879" font-family="sans" font-size="10.00" fill="#000000"> Compress VCF</text>
</g>
<!-- 10&#45;&gt;7 -->
<g id="edge19" class="edge">
<title>10-&gt;7</title>
<path fill="none" stroke="#c0c0c0" stroke-width="2" d="M227.8555,-863.7757C224.0733,-853.433 219.6711,-840.1616 217,-828 212.5103,-807.5585 209.9858,-784.0391 208.5968,-766.1708"/>
<polygon fill="#c0c0c0" stroke="#c0c0c0" stroke-width="2" points="212.0824,-765.8409 207.8876,-756.1118 205.0997,-766.3333 212.0824,-765.8409"/>
</g>
<!-- 43 -->
<g id="node16" class="node">
<title>43</title>
<path fill="none" stroke="#d85656" stroke-width="2" d="M279.7156,-828C279.7156,-828 238.2844,-828 238.2844,-828 232.2844,-828 226.2844,-822 226.2844,-816 226.2844,-816 226.2844,-804 226.2844,-804 226.2844,-798 232.2844,-792 238.2844,-792 238.2844,-792 279.7156,-792 279.7156,-792 285.7156,-792 291.7156,-798 291.7156,-804 291.7156,-804 291.7156,-816 291.7156,-816 291.7156,-822 285.7156,-828 279.7156,-828"/>
<text text-anchor="middle" x="259" y="-807" font-family="sans" font-size="10.00" fill="#000000"> Index VCF </text>
</g>
<!-- 10&#45;&gt;43 -->
<g id="edge28" class="edge">
<title>10-&gt;43</title>
<path fill="none" stroke="#c0c0c0" stroke-width="2" d="M241.0562,-863.8314C243.6512,-856.0463 246.7424,-846.7729 249.6218,-838.1347"/>
<polygon fill="#c0c0c0" stroke="#c0c0c0" stroke-width="2" points="253.0203,-839.0069 252.8622,-828.4133 246.3795,-836.7933 253.0203,-839.0069"/>
</g>
<!-- 11 -->
<g id="node12" class="node">
<title>11</title>
<path fill="none" stroke="#d85656" stroke-width="2" d="M263.1632,-972C263.1632,-972 206.8368,-972 206.8368,-972 200.8368,-972 194.8368,-966 194.8368,-960 194.8368,-960 194.8368,-948 194.8368,-948 194.8368,-942 200.8368,-936 206.8368,-936 206.8368,-936 263.1632,-936 263.1632,-936 269.1632,-936 275.1632,-942 275.1632,-948 275.1632,-948 275.1632,-960 275.1632,-960 275.1632,-966 269.1632,-972 263.1632,-972"/>
<text text-anchor="middle" x="235" y="-957" font-family="sans" font-size="10.00" fill="#000000">  Run msprime  </text>
<text text-anchor="middle" x="235" y="-945" font-family="sans" font-size="10.00" fill="#000000">chr02</text>
</g>
<!-- 11&#45;&gt;10 -->
<g id="edge25" class="edge">
<title>11-&gt;10</title>
<path fill="none" stroke="#c0c0c0" stroke-width="2" d="M235,-935.8314C235,-928.131 235,-918.9743 235,-910.4166"/>
<polygon fill="#c0c0c0" stroke="#c0c0c0" stroke-width="2" points="238.5001,-910.4132 235,-900.4133 231.5001,-910.4133 238.5001,-910.4132"/>
</g>
<!-- 12 -->
<g id="node13" class="node">
<title>12</title>
<path fill="none" stroke="#d85656" stroke-width="2" d="M335,-900C335,-900 305,-900 305,-900 299,-900 293,-894 293,-888 293,-888 293,-876 293,-876 293,-870 299,-864 305,-864 305,-864 335,-864 335,-864 341,-864 347,-870 347,-876 347,-876 347,-888 347,-888 347,-894 341,-900 335,-900"/>
<text text-anchor="middle" x="320" y="-879" font-family="sans" font-size="10.00" fill="#000000">...</text>
</g>
<!-- 12&#45;&gt;7 -->
<g id="edge20" class="edge">
<title>12-&gt;7</title>
<path fill="none" stroke="#c0c0c0" stroke-width="2" d="M320.3698,-863.6908C319.868,-844.1606 316.4023,-813.182 301,-792 291.5573,-779.0138 277.9688,-768.6859 264.0464,-760.6868"/>
<polygon fill="#c0c0c0" stroke="#c0c0c0" stroke-width="2" points="265.3544,-757.4161 254.8895,-755.7619 262.0387,-763.5811 265.3544,-757.4161"/>
</g>
<!-- 44 -->
<g id="node17" class="node">
<title>44</title>
<path fill="none" stroke="#d85656" stroke-width="2" d="M390,-828C390,-828 360,-828 360,-828 354,-828 348,-822 348,-816 348,-816 348,-804 348,-804 348,-798 354,-792 360,-792 360,-792 390,-792 390,-792 396,-792 402,-798 402,-804 402,-804 402,-816 402,-816 402,-822 396,-828 390,-828"/>
<text text-anchor="middle" x="375" y="-807" font-family="sans" font-size="10.00" fill="#000000">...</text>
</g>
<!-- 12&#45;&gt;44 -->
<g id="edge29" class="edge">
<title>12-&gt;44</title>
<path fill="none" stroke="#c0c0c0" stroke-width="2" d="M333.8788,-863.8314C340.2136,-855.5386 347.8384,-845.557 354.7926,-836.4533"/>
<polygon fill="#c0c0c0" stroke="#c0c0c0" stroke-width="2" points="357.6452,-838.4847 360.9343,-828.4133 352.0825,-834.2353 357.6452,-838.4847"/>
</g>
<!-- 13 -->
<g id="node14" class="node">
<title>13</title>
<path fill="none" stroke="#d85656" stroke-width="2" d="M335,-972C335,-972 305,-972 305,-972 299,-972 293,-966 293,-960 293,-960 293,-948 293,-948 293,-942 299,-936 305,-936 305,-936 335,-936 335,-936 341,-936 347,-942 347,-948 347,-948 347,-960 347,-960 347,-966 341,-972 335,-972"/>
<text text-anchor="middle" x="320" y="-951" font-family="sans" font-size="10.00" fill="#000000">...</text>
</g>
<!-- 13&#45;&gt;12 -->
<g id="edge26" class="edge">
<title>13-&gt;12</title>
<path fill="none" stroke="#c0c0c0" stroke-width="2" d="M320,-935.8314C320,-928.131 320,-918.9743 320,-910.4166"/>
<polygon fill="#c0c0c0" stroke="#c0c0c0" stroke-width="2" points="323.5001,-910.4132 320,-900.4133 316.5001,-910.4133 323.5001,-910.4132"/>
</g>
<!-- 42&#45;&gt;7 -->
<g id="edge21" class="edge">
<title>42-&gt;7</title>
<path fill="none" stroke="#c0c0c0" stroke-width="2" d="M154.664,-791.8314C162.9732,-783.2848 173.0264,-772.9443 182.0918,-763.6198"/>
<polygon fill="#c0c0c0" stroke="#c0c0c0" stroke-width="2" points="184.6369,-766.023 189.0982,-756.4133 179.6179,-761.1435 184.6369,-766.023"/>
</g>
<!-- 43&#45;&gt;7 -->
<g id="edge22" class="edge">
<title>43-&gt;7</title>
<path fill="none" stroke="#c0c0c0" stroke-width="2" d="M245.8782,-791.8314C239.9501,-783.6232 232.8271,-773.7606 226.3067,-764.7323"/>
<polygon fill="#c0c0c0" stroke="#c0c0c0" stroke-width="2" points="228.9908,-762.4708 220.2985,-756.4133 223.316,-766.5693 228.9908,-762.4708"/>
</g>
<!-- 44&#45;&gt;7 -->
<g id="edge23" class="edge">
<title>44-&gt;7</title>
<path fill="none" stroke="#c0c0c0" stroke-width="2" d="M347.6722,-797.9496C343.1106,-795.9533 338.4244,-793.9118 334,-792 309.4505,-781.3923 282.1647,-769.7688 259.196,-760.032"/>
<polygon fill="#c0c0c0" stroke="#c0c0c0" stroke-width="2" points="260.5397,-756.8002 249.9666,-756.1225 257.8094,-763.2458 260.5397,-756.8002"/>
</g>
<!-- 59 -->
<g id="node18" class="node">
<title>59</title>
<path fill="none" stroke="#56a9d8" stroke-width="2" d="M376.7373,-540C376.7373,-540 309.2627,-540 309.2627,-540 303.2627,-540 297.2627,-534 297.2627,-528 297.2627,-528 297.2627,-516 297.2627,-516 297.2627,-510 303.2627,-504 309.2627,-504 309.2627,-504 376.7373,-504 376.7373,-504 382.7373,-504 388.7373,-510 388.7373,-516 388.7373,-516 388.7373,-528 388.7373,-528 388.7373,-534 382.7373,-540 376.7373,-540"/>
<text text-anchor="middle" x="343" y="-519" font-family="sans" font-size="10.00" fill="#000000"> Generate variants </text>
</g>
<!-- 59&#45;&gt;3 -->
<g id="edge14" class="edge">
<title>59-&gt;3</title>
<path fill="none" stroke="#c0c0c0" stroke-width="2" d="M330.6352,-503.8314C325.0491,-495.6232 318.337,-485.7606 312.1928,-476.7323"/>
<polygon fill="#c0c0c0" stroke="#c0c0c0" stroke-width="2" points="315.051,-474.7112 306.5313,-468.4133 309.264,-478.6496 315.051,-474.7112"/>
</g>
<!-- 60 -->
<g id="node19" class="node">
<title>60</title>
<path fill="none" stroke="#d85656" stroke-width="2" d="M353.3123,-1188C353.3123,-1188 310.6877,-1188 310.6877,-1188 304.6877,-1188 298.6877,-1182 298.6877,-1176 298.6877,-1176 298.6877,-1164 298.6877,-1164 298.6877,-1158 304.6877,-1152 310.6877,-1152 310.6877,-1152 353.3123,-1152 353.3123,-1152 359.3123,-1152 365.3123,-1158 365.3123,-1164 365.3123,-1164 365.3123,-1176 365.3123,-1176 365.3123,-1182 359.3123,-1188 353.3123,-1188"/>
<text text-anchor="middle" x="332" y="-1167" font-family="sans" font-size="10.00" fill="#000000"> Unzip fasta </text>
</g>
<!-- 60&#45;&gt;59 -->
<g id="edge30" class="edge">
<title>60-&gt;59</title>
<path fill="none" stroke="#c0c0c0" stroke-width="2" d="M355.2246,-1151.7681C384.2046,-1126.78 430,-1078.9204 430,-1026 430,-1026 430,-1026 430,-666 430,-623.9747 423.5509,-611.4624 401,-576 394.1941,-565.2975 384.7687,-555.3005 375.4928,-546.8888"/>
<polygon fill="#c0c0c0" stroke="#c0c0c0" stroke-width="2" points="377.6451,-544.1225 367.7971,-540.2151 373.059,-549.4109 377.6451,-544.1225"/>
</g>
<!-- 60&#45;&gt;63 -->
<g id="edge34" class="edge">
<title>60-&gt;63</title>
<path fill="none" stroke="#c0c0c0" stroke-width="2" d="M365.618,-1153.1649C405.8915,-1130.3375 468,-1085.49 468,-1026 468,-1026 468,-1026 468,-450 468,-401.9707 430.8785,-357.4394 403.2912,-330.9769"/>
<polygon fill="#c0c0c0" stroke="#c0c0c0" stroke-width="2" points="405.5058,-328.2567 395.8018,-324.0044 400.736,-333.3801 405.5058,-328.2567"/>
</g>
<!-- 60&#45;&gt;66 -->
<g id="edge38" class="edge">
<title>60-&gt;66</title>
<path fill="none" stroke="#c0c0c0" stroke-width="2" d="M298.6465,-1163.0043C214.4558,-1144.3906 0,-1090.6334 0,-1026 0,-1026 0,-1026 0,-378 0,-305.4792 88.75,-265.0071 145.5709,-246.527"/>
<polygon fill="#c0c0c0" stroke="#c0c0c0" stroke-width="2" points="146.9398,-249.7659 155.4343,-243.4339 144.8452,-243.0866 146.9398,-249.7659"/>
</g>
<!-- 67 -->
<g id="node26" class="node">
<title>67</title>
<path fill="none" stroke="#61d856" stroke-width="2" d="M273.4088,-1116C273.4088,-1116 196.5912,-1116 196.5912,-1116 190.5912,-1116 184.5912,-1110 184.5912,-1104 184.5912,-1104 184.5912,-1092 184.5912,-1092 184.5912,-1086 190.5912,-1080 196.5912,-1080 196.5912,-1080 273.4088,-1080 273.4088,-1080 279.4088,-1080 285.4088,-1086 285.4088,-1092 285.4088,-1092 285.4088,-1104 285.4088,-1104 285.4088,-1110 279.4088,-1116 273.4088,-1116"/>
<text text-anchor="middle" x="235" y="-1095" font-family="sans" font-size="10.00" fill="#000000"> Generate FAI index </text>
</g>
<!-- 60&#45;&gt;67 -->
<g id="edge4" class="edge">
<title>60-&gt;67</title>
<path fill="none" stroke="#c0c0c0" stroke-width="2" d="M307.5228,-1151.8314C295.4605,-1142.8779 280.746,-1131.9558 267.7314,-1122.2955"/>
<polygon fill="#c0c0c0" stroke="#c0c0c0" stroke-width="2" points="269.5852,-1119.3127 259.4694,-1116.1628 265.413,-1124.9335 269.5852,-1119.3127"/>
</g>
<!-- 61&#45;&gt;59 -->
<g id="edge31" class="edge">
<title>61-&gt;59</title>
<path fill="none" stroke="#c0c0c0" stroke-width="2" d="M343,-575.8314C343,-568.131 343,-558.9743 343,-550.4166"/>
<polygon fill="#c0c0c0" stroke="#c0c0c0" stroke-width="2" points="346.5001,-550.4132 343,-540.4133 339.5001,-550.4133 346.5001,-550.4132"/>
</g>
<!-- 62 -->
<g id="node21" class="node">
<title>62</title>
<path fill="none" stroke="#5b3366" stroke-width="2" d="M414.031,-180C414.031,-180 333.969,-180 333.969,-180 327.969,-180 321.969,-174 321.969,-168 321.969,-168 321.969,-156 321.969,-156 321.969,-150 327.969,-144 333.969,-144 333.969,-144 414.031,-144 414.031,-144 420.031,-144 426.031,-150 426.031,-156 426.031,-156 426.031,-168 426.031,-168 426.031,-174 420.031,-180 414.031,-180"/>
<text text-anchor="middle" x="374" y="-159" font-family="sans" font-size="10.00" fill="#000000"> Convert graph to gfa </text>
</g>
<!-- 62&#45;&gt;0 -->
<g id="edge3" class="edge">
<title>62-&gt;0</title>
<path fill="none" stroke="#c0c0c0" stroke-width="2" d="M363.8679,-143.7623C349.9824,-118.7682 324.9402,-73.6924 308.9116,-44.8409"/>
<polygon fill="#c0c0c0" stroke="#c0c0c0" stroke-width="2" points="311.9658,-43.1314 304.0498,-36.0896 305.8467,-46.531 311.9658,-43.1314"/>
</g>
<!-- 63&#45;&gt;62 -->
<g id="edge33" class="edge">
<title>63-&gt;62</title>
<path fill="none" stroke="#c0c0c0" stroke-width="2" d="M374,-287.7623C374,-263.201 374,-219.2474 374,-190.3541"/>
<polygon fill="#c0c0c0" stroke="#c0c0c0" stroke-width="2" points="377.5001,-190.0896 374,-180.0896 370.5001,-190.0897 377.5001,-190.0896"/>
</g>
<!-- 64 -->
<g id="node23" class="node">
<title>64</title>
<path fill="none" stroke="#568ad8" stroke-width="2" d="M254.2452,-108C254.2452,-108 129.7548,-108 129.7548,-108 123.7548,-108 117.7548,-102 117.7548,-96 117.7548,-96 117.7548,-84 117.7548,-84 117.7548,-78 123.7548,-72 129.7548,-72 129.7548,-72 254.2452,-72 254.2452,-72 260.2452,-72 266.2452,-78 266.2452,-84 266.2452,-84 266.2452,-96 266.2452,-96 266.2452,-102 260.2452,-108 254.2452,-108"/>
<text text-anchor="middle" x="192" y="-87" font-family="sans" font-size="10.00" fill="#000000">    Convert graph to fasta paths    </text>
</g>
<!-- 64&#45;&gt;0 -->
<g id="edge2" class="edge">
<title>64-&gt;0</title>
<path fill="none" stroke="#c0c0c0" stroke-width="2" d="M217.7389,-71.8314C230.5437,-62.7927 246.1909,-51.7476 259.9719,-42.0198"/>
<polygon fill="#c0c0c0" stroke="#c0c0c0" stroke-width="2" points="262.118,-44.7891 268.2693,-36.1628 258.0812,-39.0703 262.118,-44.7891"/>
</g>
<!-- 65 -->
<g id="node24" class="node">
<title>65</title>
<path fill="none" stroke="#568ad8" stroke-width="2" d="M227.7025,-180C227.7025,-180 156.2975,-180 156.2975,-180 150.2975,-180 144.2975,-174 144.2975,-168 144.2975,-168 144.2975,-156 144.2975,-156 144.2975,-150 150.2975,-144 156.2975,-144 156.2975,-144 227.7025,-144 227.7025,-144 233.7025,-144 239.7025,-150 239.7025,-156 239.7025,-156 239.7025,-168 239.7025,-168 239.7025,-174 233.7025,-180 227.7025,-180"/>
<text text-anchor="middle" x="192" y="-159" font-family="sans" font-size="10.00" fill="#000000"> Convert gbz to gfa </text>
</g>
<!-- 65&#45;&gt;64 -->
<g id="edge36" class="edge">
<title>65-&gt;64</title>
<path fill="none" stroke="#c0c0c0" stroke-width="2" d="M192,-143.8314C192,-136.131 192,-126.9743 192,-118.4166"/>
<polygon fill="#c0c0c0" stroke="#c0c0c0" stroke-width="2" points="195.5001,-118.4132 192,-108.4133 188.5001,-118.4133 195.5001,-118.4132"/>
</g>
<!-- 66&#45;&gt;65 -->
<g id="edge37" class="edge">
<title>66-&gt;65</title>
<path fill="none" stroke="#c0c0c0" stroke-width="2" d="M192,-215.8314C192,-208.131 192,-198.9743 192,-190.4166"/>
<polygon fill="#c0c0c0" stroke="#c0c0c0" stroke-width="2" points="195.5001,-190.4132 192,-180.4133 188.5001,-190.4133 195.5001,-190.4132"/>
</g>
<!-- 68 -->
<g id="node27" class="node">
<title>68</title>
<path fill="none" stroke="#61d856" stroke-width="2" d="M147.2353,-1044C147.2353,-1044 64.7647,-1044 64.7647,-1044 58.7647,-1044 52.7647,-1038 52.7647,-1032 52.7647,-1032 52.7647,-1020 52.7647,-1020 52.7647,-1014 58.7647,-1008 64.7647,-1008 64.7647,-1008 147.2353,-1008 147.2353,-1008 153.2353,-1008 159.2353,-1014 159.2353,-1020 159.2353,-1020 159.2353,-1032 159.2353,-1032 159.2353,-1038 153.2353,-1044 147.2353,-1044"/>
<text text-anchor="middle" x="106" y="-1023" font-family="sans" font-size="10.00" fill="#000000"> Create chr config file </text>
</g>
<!-- 67&#45;&gt;68 -->
<g id="edge5" class="edge">
<title>67-&gt;68</title>
<path fill="none" stroke="#c0c0c0" stroke-width="2" d="M202.4479,-1079.8314C185.7952,-1070.5368 165.3415,-1059.1208 147.5615,-1049.1971"/>
<polygon fill="#c0c0c0" stroke="#c0c0c0" stroke-width="2" points="148.9795,-1045.9803 138.5417,-1044.1628 145.5679,-1052.0927 148.9795,-1045.9803"/>
</g>
<!-- 69 -->
<g id="node28" class="node">
<title>69</title>
<path fill="none" stroke="#61d856" stroke-width="2" d="M255.1151,-1044C255.1151,-1044 214.8849,-1044 214.8849,-1044 208.8849,-1044 202.8849,-1038 202.8849,-1032 202.8849,-1032 202.8849,-1020 202.8849,-1020 202.8849,-1014 208.8849,-1008 214.8849,-1008 214.8849,-1008 255.1151,-1008 255.1151,-1008 261.1151,-1008 267.1151,-1014 267.1151,-1020 267.1151,-1020 267.1151,-1032 267.1151,-1032 267.1151,-1038 261.1151,-1044 255.1151,-1044"/>
<text text-anchor="middle" x="235" y="-1023" font-family="sans" font-size="10.00" fill="#000000"> Split index </text>
</g>
<!-- 67&#45;&gt;69 -->
<g id="edge6" class="edge">
<title>67-&gt;69</title>
<path fill="none" stroke="#c0c0c0" stroke-width="2" d="M235,-1079.8314C235,-1072.131 235,-1062.9743 235,-1054.4166"/>
<polygon fill="#c0c0c0" stroke="#c0c0c0" stroke-width="2" points="238.5001,-1054.4132 235,-1044.4133 231.5001,-1054.4133 238.5001,-1054.4132"/>
</g>
<!-- 68&#45;&gt;7 -->
<g id="edge10" class="edge">
<title>68-&gt;7</title>
<path fill="none" stroke="#c0c0c0" stroke-width="2" d="M97.4506,-1007.7586C79.1631,-965.7959 41.3948,-860.752 86,-792 100.1955,-770.1199 125.5509,-757.0285 149.3967,-749.2329"/>
<polygon fill="#c0c0c0" stroke="#c0c0c0" stroke-width="2" points="150.5664,-752.536 159.1339,-746.3031 148.5495,-745.8329 150.5664,-752.536"/>
</g>
<!-- 69&#45;&gt;9 -->
<g id="edge7" class="edge">
<title>69-&gt;9</title>
<path fill="none" stroke="#c0c0c0" stroke-width="2" d="M210.2705,-1007.8314C198.0838,-998.8779 183.2177,-987.9558 170.0688,-978.2955"/>
<polygon fill="#c0c0c0" stroke="#c0c0c0" stroke-width="2" points="171.8527,-975.263 161.7216,-972.1628 167.7082,-980.9042 171.8527,-975.263"/>
</g>
<!-- 69&#45;&gt;11 -->
<g id="edge8" class="edge">
<title>69-&gt;11</title>
<path fill="none" stroke="#c0c0c0" stroke-width="2" d="M235,-1007.8314C235,-1000.131 235,-990.9743 235,-982.4166"/>
<polygon fill="#c0c0c0" stroke="#c0c0c0" stroke-width="2" points="238.5001,-982.4132 235,-972.4133 231.5001,-982.4133 238.5001,-982.4132"/>
</g>
<!-- 69&#45;&gt;13 -->
<g id="edge9" class="edge">
<title>69-&gt;13</title>
<path fill="none" stroke="#c0c0c0" stroke-width="2" d="M256.4491,-1007.8314C266.8178,-999.0485 279.4229,-988.3712 290.6646,-978.8489"/>
<polygon fill="#c0c0c0" stroke="#c0c0c0" stroke-width="2" points="293.1895,-981.297 298.5578,-972.1628 288.6651,-975.9556 293.1895,-981.297"/>
</g>
</g>
</svg>