<?xml version="1.0" encoding="UTF-8" standalone="no"?>
<!DOCTYPE svg PUBLIC "-//W3C//DTD SVG 1.1//EN" "http://www.w3.org/Graphics/SVG/1.1/DTD/svg11.dtd">
<!-- Generated by graphviz version 2.40.1 (20161225.0304)
 -->
<!-- Title: snakemake_dag Pages: 1 -->
<svg width="451pt" height="1124pt" viewBox="0.00 0.00 451.28 1124.00" xmlns="http://www.w3.org/2000/svg" xmlns:xlink="http://www.w3.org/1999/xlink">
<g id="graph0" class="graph" transform="scale(1 1) rotate(0) translate(4 1120)">
<title>snakemake_dag</title>
<polygon fill="#ffffff" stroke="transparent" points="-4,4 -4,-1120 447.278,-1120 447.278,4 -4,4"/>
<!-- 0 -->
<g id="node1" class="node">
<title>0</title>
<path fill="none" stroke="#d87d56" stroke-width="2" d="M140.545,-36C140.545,-36 110.545,-36 110.545,-36 104.545,-36 98.545,-30 98.545,-24 98.545,-24 98.545,-12 98.545,-12 98.545,-6 104.545,0 110.545,0 110.545,0 140.545,0 140.545,0 146.545,0 152.545,-6 152.545,-12 152.545,-12 152.545,-24 152.545,-24 152.545,-30 146.545,-36 140.545,-36"/>
<text text-anchor="middle" x="125.545" y="-15" font-family="sans" font-size="10.00" fill="#000000">all</text>
</g>
<!-- 1 -->
<g id="node2" class="node">
<title>1</title>
<path fill="none" stroke="#0f4c32" stroke-width="2" d="M84.037,-108C84.037,-108 27.053,-108 27.053,-108 21.053,-108 15.053,-102 15.053,-96 15.053,-96 15.053,-84 15.053,-84 15.053,-78 21.053,-72 27.053,-72 27.053,-72 84.037,-72 84.037,-72 90.037,-72 96.037,-78 96.037,-84 96.037,-84 96.037,-96 96.037,-96 96.037,-102 90.037,-108 84.037,-108"/>
<text text-anchor="middle" x="55.545" y="-87" font-family="sans" font-size="10.00" fill="#000000">Convert to GFA</text>
</g>
<!-- 1&#45;&gt;0 -->
<g id="edge7" class="edge">
<title>1-&gt;0</title>
<path fill="none" stroke="#c0c0c0" stroke-width="2" d="M73.209,-71.8314C81.5182,-63.2848 91.5714,-52.9443 100.6368,-43.6198"/>
<polygon fill="#c0c0c0" stroke="#c0c0c0" stroke-width="2" points="103.1819,-46.023 107.6432,-36.4133 98.1629,-41.1435 103.1819,-46.023"/>
</g>
<!-- 2 -->
<g id="node3" class="node">
<title>2</title>
<path fill="none" stroke="#0f4c32" stroke-width="2" d="M85.135,-252C85.135,-252 11.955,-252 11.955,-252 5.955,-252 -.045,-246 -.045,-240 -.045,-240 -.045,-228 -.045,-228 -.045,-222 5.955,-216 11.955,-216 11.955,-216 85.135,-216 85.135,-216 91.135,-216 97.135,-222 97.135,-228 97.135,-228 97.135,-240 97.135,-240 97.135,-246 91.135,-252 85.135,-252"/>
<text text-anchor="middle" x="48.545" y="-231" font-family="sans" font-size="10.00" fill="#000000">Construct VG graph</text>
</g>
<!-- 2&#45;&gt;1 -->
<g id="edge9" class="edge">
<title>2-&gt;1</title>
<path fill="none" stroke="#c0c0c0" stroke-width="2" d="M49.4316,-215.7623C50.6255,-191.201 52.7621,-147.2474 54.1667,-118.3541"/>
<polygon fill="#c0c0c0" stroke="#c0c0c0" stroke-width="2" points="57.6759,-118.2478 54.6656,-108.0896 50.6841,-117.9079 57.6759,-118.2478"/>
</g>
<!-- 3 -->
<g id="node4" class="node">
<title>3</title>
<path fill="none" stroke="#d8c356" stroke-width="2" d="M102.9151,-1116C102.9151,-1116 42.1749,-1116 42.1749,-1116 36.1749,-1116 30.1749,-1110 30.1749,-1104 30.1749,-1104 30.1749,-1092 30.1749,-1092 30.1749,-1086 36.1749,-1080 42.1749,-1080 42.1749,-1080 102.9151,-1080 102.9151,-1080 108.9151,-1080 114.9151,-1086 114.9151,-1092 114.9151,-1092 114.9151,-1104 114.9151,-1104 114.9151,-1110 108.9151,-1116 102.9151,-1116"/>
<text text-anchor="middle" x="72.545" y="-1095" font-family="sans" font-size="10.00" fill="#000000">Unzip fasta input</text>
</g>
<!-- 3&#45;&gt;2 -->
<g id="edge15" class="edge">
<title>3-&gt;2</title>
<path fill="none" stroke="#c0c0c0" stroke-width="2" d="M64.4862,-1079.7668C53.3316,-1052.8248 34.545,-1000.5405 34.545,-954 34.545,-954 34.545,-954 34.545,-378 34.545,-337.6868 40.0477,-291.322 44.1534,-262.3387"/>
<polygon fill="#c0c0c0" stroke="#c0c0c0" stroke-width="2" points="47.6623,-262.5313 45.6442,-252.1304 40.7358,-261.5197 47.6623,-262.5313"/>
</g>
<!-- 18 -->
<g id="node19" class="node">
<title>18</title>
<path fill="none" stroke="#d87d56" stroke-width="2" d="M164.0022,-468C164.0022,-468 99.0878,-468 99.0878,-468 93.0878,-468 87.0878,-462 87.0878,-456 87.0878,-456 87.0878,-444 87.0878,-444 87.0878,-438 93.0878,-432 99.0878,-432 99.0878,-432 164.0022,-432 164.0022,-432 170.0022,-432 176.0022,-438 176.0022,-444 176.0022,-444 176.0022,-456 176.0022,-456 176.0022,-462 170.0022,-468 164.0022,-468"/>
<text text-anchor="middle" x="131.545" y="-447" font-family="sans" font-size="10.00" fill="#000000">Generate Variants</text>
</g>
<!-- 3&#45;&gt;18 -->
<g id="edge35" class="edge">
<title>3-&gt;18</title>
<path fill="none" stroke="#c0c0c0" stroke-width="2" d="M72.545,-1079.8146C72.545,-1052.4983 72.545,-999.25 72.545,-954 72.545,-954 72.545,-954 72.545,-594 72.545,-553.1184 74.7705,-541.2817 91.545,-504 95.9252,-494.2648 102.2843,-484.5903 108.6481,-476.1767"/>
<polygon fill="#c0c0c0" stroke="#c0c0c0" stroke-width="2" points="111.4778,-478.2409 114.9403,-468.2278 105.9893,-473.8963 111.4778,-478.2409"/>
</g>
<!-- 22 -->
<g id="node23" class="node">
<title>22</title>
<path fill="none" stroke="#56d8d8" stroke-width="2" d="M287.4539,-1044C287.4539,-1044 215.6361,-1044 215.6361,-1044 209.6361,-1044 203.6361,-1038 203.6361,-1032 203.6361,-1032 203.6361,-1020 203.6361,-1020 203.6361,-1014 209.6361,-1008 215.6361,-1008 215.6361,-1008 287.4539,-1008 287.4539,-1008 293.4539,-1008 299.4539,-1014 299.4539,-1020 299.4539,-1020 299.4539,-1032 299.4539,-1032 299.4539,-1038 293.4539,-1044 287.4539,-1044"/>
<text text-anchor="middle" x="251.545" y="-1023" font-family="sans" font-size="10.00" fill="#000000">Generate FAI index</text>
</g>
<!-- 3&#45;&gt;22 -->
<g id="edge8" class="edge">
<title>3-&gt;22</title>
<path fill="none" stroke="#c0c0c0" stroke-width="2" d="M114.9655,-1080.937C139.5499,-1071.0483 170.7598,-1058.4946 197.1375,-1047.8846"/>
<polygon fill="#c0c0c0" stroke="#c0c0c0" stroke-width="2" points="198.6443,-1051.0511 206.6158,-1044.0721 196.0321,-1044.5567 198.6443,-1051.0511"/>
</g>
<!-- 4 -->
<g id="node5" class="node">
<title>4</title>
<path fill="none" stroke="#d8c356" stroke-width="2" d="M142.545,-324C142.545,-324 112.545,-324 112.545,-324 106.545,-324 100.545,-318 100.545,-312 100.545,-312 100.545,-300 100.545,-300 100.545,-294 106.545,-288 112.545,-288 112.545,-288 142.545,-288 142.545,-288 148.545,-288 154.545,-294 154.545,-300 154.545,-300 154.545,-312 154.545,-312 154.545,-318 148.545,-324 142.545,-324"/>
<text text-anchor="middle" x="127.545" y="-303" font-family="sans" font-size="10.00" fill="#000000">Sort vcf</text>
</g>
<!-- 4&#45;&gt;0 -->
<g id="edge5" class="edge">
<title>4-&gt;0</title>
<path fill="none" stroke="#c0c0c0" stroke-width="2" d="M127.4199,-287.9843C127.0818,-239.2939 126.1478,-104.7961 125.7398,-46.0573"/>
<polygon fill="#c0c0c0" stroke="#c0c0c0" stroke-width="2" points="129.2395,-45.9843 125.6701,-36.0089 122.2397,-46.033 129.2395,-45.9843"/>
</g>
<!-- 4&#45;&gt;2 -->
<g id="edge16" class="edge">
<title>4-&gt;2</title>
<path fill="none" stroke="#c0c0c0" stroke-width="2" d="M107.61,-287.8314C98.0667,-279.1337 86.4851,-268.5783 76.1144,-259.1265"/>
<polygon fill="#c0c0c0" stroke="#c0c0c0" stroke-width="2" points="78.2222,-256.3121 68.4737,-252.1628 73.507,-261.4857 78.2222,-256.3121"/>
</g>
<!-- 26 -->
<g id="node26" class="node">
<title>26</title>
<path fill="none" stroke="#56d8a2" stroke-width="2" d="M251.9517,-252C251.9517,-252 165.1383,-252 165.1383,-252 159.1383,-252 153.1383,-246 153.1383,-240 153.1383,-240 153.1383,-228 153.1383,-228 153.1383,-222 159.1383,-216 165.1383,-216 165.1383,-216 251.9517,-216 251.9517,-216 257.9517,-216 263.9517,-222 263.9517,-228 263.9517,-228 263.9517,-240 263.9517,-240 263.9517,-246 257.9517,-252 251.9517,-252"/>
<text text-anchor="middle" x="208.545" y="-231" font-family="sans" font-size="10.00" fill="#000000">Construce giraffe index</text>
</g>
<!-- 4&#45;&gt;26 -->
<g id="edge1" class="edge">
<title>4-&gt;26</title>
<path fill="none" stroke="#c0c0c0" stroke-width="2" d="M147.9847,-287.8314C157.8655,-279.0485 169.8774,-268.3712 180.59,-258.8489"/>
<polygon fill="#c0c0c0" stroke="#c0c0c0" stroke-width="2" points="182.963,-261.4224 188.1118,-252.1628 178.3124,-256.1906 182.963,-261.4224"/>
</g>
<!-- 5 -->
<g id="node6" class="node">
<title>5</title>
<path fill="none" stroke="#d8c356" stroke-width="2" d="M150.9111,-396C150.9111,-396 112.1789,-396 112.1789,-396 106.1789,-396 100.1789,-390 100.1789,-384 100.1789,-384 100.1789,-372 100.1789,-372 100.1789,-366 106.1789,-360 112.1789,-360 112.1789,-360 150.9111,-360 150.9111,-360 156.9111,-360 162.9111,-366 162.9111,-372 162.9111,-372 162.9111,-384 162.9111,-384 162.9111,-390 156.9111,-396 150.9111,-396"/>
<text text-anchor="middle" x="131.545" y="-375" font-family="sans" font-size="10.00" fill="#000000">Add header</text>
</g>
<!-- 5&#45;&gt;4 -->
<g id="edge17" class="edge">
<title>5-&gt;4</title>
<path fill="none" stroke="#c0c0c0" stroke-width="2" d="M130.5356,-359.8314C130.1078,-352.131 129.5991,-342.9743 129.1237,-334.4166"/>
<polygon fill="#c0c0c0" stroke="#c0c0c0" stroke-width="2" points="132.6174,-334.2037 128.568,-324.4133 125.6281,-334.592 132.6174,-334.2037"/>
</g>
<!-- 6 -->
<g id="node7" class="node">
<title>6</title>
<path fill="none" stroke="#d8c356" stroke-width="2" d="M258.565,-540C258.565,-540 208.525,-540 208.525,-540 202.525,-540 196.525,-534 196.525,-528 196.525,-528 196.525,-516 196.525,-516 196.525,-510 202.525,-504 208.525,-504 208.525,-504 258.565,-504 258.565,-504 264.565,-504 270.565,-510 270.565,-516 270.565,-516 270.565,-528 270.565,-528 270.565,-534 264.565,-540 258.565,-540"/>
<text text-anchor="middle" x="233.545" y="-519" font-family="sans" font-size="10.00" fill="#000000">Extract header</text>
</g>
<!-- 27 -->
<g id="node27" class="node">
<title>27</title>
<path fill="none" stroke="#d8c356" stroke-width="2" d="M250.3583,-468C250.3583,-468 212.7317,-468 212.7317,-468 206.7317,-468 200.7317,-462 200.7317,-456 200.7317,-456 200.7317,-444 200.7317,-444 200.7317,-438 206.7317,-432 212.7317,-432 212.7317,-432 250.3583,-432 250.3583,-432 256.3583,-432 262.3583,-438 262.3583,-444 262.3583,-444 262.3583,-456 262.3583,-456 262.3583,-462 256.3583,-468 250.3583,-468"/>
<text text-anchor="middle" x="231.545" y="-447" font-family="sans" font-size="10.00" fill="#000000">Sort header</text>
</g>
<!-- 6&#45;&gt;27 -->
<g id="edge19" class="edge">
<title>6-&gt;27</title>
<path fill="none" stroke="#c0c0c0" stroke-width="2" d="M233.0403,-503.8314C232.8264,-496.131 232.5721,-486.9743 232.3344,-478.4166"/>
<polygon fill="#c0c0c0" stroke="#c0c0c0" stroke-width="2" points="235.8329,-478.3122 232.0565,-468.4133 228.8356,-478.5066 235.8329,-478.3122"/>
</g>
<!-- 7 -->
<g id="node8" class="node">
<title>7</title>
<path fill="none" stroke="#d8c356" stroke-width="2" d="M249.2508,-612C249.2508,-612 217.8392,-612 217.8392,-612 211.8392,-612 205.8392,-606 205.8392,-600 205.8392,-600 205.8392,-588 205.8392,-588 205.8392,-582 211.8392,-576 217.8392,-576 217.8392,-576 249.2508,-576 249.2508,-576 255.2508,-576 261.2508,-582 261.2508,-588 261.2508,-588 261.2508,-600 261.2508,-600 261.2508,-606 255.2508,-612 249.2508,-612"/>
<text text-anchor="middle" x="233.545" y="-591" font-family="sans" font-size="10.00" fill="#000000">Unzip vcf</text>
</g>
<!-- 7&#45;&gt;6 -->
<g id="edge21" class="edge">
<title>7-&gt;6</title>
<path fill="none" stroke="#c0c0c0" stroke-width="2" d="M233.545,-575.8314C233.545,-568.131 233.545,-558.9743 233.545,-550.4166"/>
<polygon fill="#c0c0c0" stroke="#c0c0c0" stroke-width="2" points="237.0451,-550.4132 233.545,-540.4133 230.0451,-550.4133 237.0451,-550.4132"/>
</g>
<!-- 19 -->
<g id="node20" class="node">
<title>19</title>
<path fill="none" stroke="#d8c356" stroke-width="2" d="M167.0184,-540C167.0184,-540 112.0716,-540 112.0716,-540 106.0716,-540 100.0716,-534 100.0716,-528 100.0716,-528 100.0716,-516 100.0716,-516 100.0716,-510 106.0716,-504 112.0716,-504 112.0716,-504 167.0184,-504 167.0184,-504 173.0184,-504 179.0184,-510 179.0184,-516 179.0184,-516 179.0184,-528 179.0184,-528 179.0184,-534 173.0184,-540 167.0184,-540"/>
<text text-anchor="middle" x="139.545" y="-519" font-family="sans" font-size="10.00" fill="#000000">Remove header</text>
</g>
<!-- 7&#45;&gt;19 -->
<g id="edge37" class="edge">
<title>7-&gt;19</title>
<path fill="none" stroke="#c0c0c0" stroke-width="2" d="M209.8248,-575.8314C198.1356,-566.8779 183.8762,-555.9558 171.2641,-546.2955"/>
<polygon fill="#c0c0c0" stroke="#c0c0c0" stroke-width="2" points="173.3247,-543.4651 163.2576,-540.1628 169.0681,-549.0222 173.3247,-543.4651"/>
</g>
<!-- 8 -->
<g id="node9" class="node">
<title>8</title>
<path fill="none" stroke="#d85656" stroke-width="2" d="M287.7535,-684C287.7535,-684 221.3365,-684 221.3365,-684 215.3365,-684 209.3365,-678 209.3365,-672 209.3365,-672 209.3365,-660 209.3365,-660 209.3365,-654 215.3365,-648 221.3365,-648 221.3365,-648 287.7535,-648 287.7535,-648 293.7535,-648 299.7535,-654 299.7535,-660 299.7535,-660 299.7535,-672 299.7535,-672 299.7535,-678 293.7535,-684 287.7535,-684"/>
<text text-anchor="middle" x="254.545" y="-663" font-family="sans" font-size="10.00" fill="#000000">Merge simulations</text>
</g>
<!-- 8&#45;&gt;7 -->
<g id="edge22" class="edge">
<title>8-&gt;7</title>
<path fill="none" stroke="#c0c0c0" stroke-width="2" d="M249.2458,-647.8314C246.9752,-640.0463 244.2704,-630.7729 241.751,-622.1347"/>
<polygon fill="#c0c0c0" stroke="#c0c0c0" stroke-width="2" points="245.0756,-621.0332 238.9155,-612.4133 238.3556,-622.9933 245.0756,-621.0332"/>
</g>
<!-- 9 -->
<g id="node10" class="node">
<title>9</title>
<path fill="none" stroke="#d85656" stroke-width="2" d="M186.3075,-828C186.3075,-828 138.7825,-828 138.7825,-828 132.7825,-828 126.7825,-822 126.7825,-816 126.7825,-816 126.7825,-804 126.7825,-804 126.7825,-798 132.7825,-792 138.7825,-792 138.7825,-792 186.3075,-792 186.3075,-792 192.3075,-792 198.3075,-798 198.3075,-804 198.3075,-804 198.3075,-816 198.3075,-816 198.3075,-822 192.3075,-828 186.3075,-828"/>
<text text-anchor="middle" x="162.545" y="-807" font-family="sans" font-size="10.00" fill="#000000">Compress vcf</text>
</g>
<!-- 9&#45;&gt;8 -->
<g id="edge23" class="edge">
<title>9-&gt;8</title>
<path fill="none" stroke="#c0c0c0" stroke-width="2" d="M146.7446,-791.9718C132.0975,-772.9568 114.6447,-742.6682 129.545,-720 145.1465,-696.2651 173.6379,-682.9146 199.4832,-675.4291"/>
<polygon fill="#c0c0c0" stroke="#c0c0c0" stroke-width="2" points="200.4621,-678.7905 209.2267,-672.838 198.6631,-672.0257 200.4621,-678.7905"/>
</g>
<!-- 15 -->
<g id="node16" class="node">
<title>15</title>
<path fill="none" stroke="#d85656" stroke-width="2" d="M180.581,-756C180.581,-756 150.509,-756 150.509,-756 144.509,-756 138.509,-750 138.509,-744 138.509,-744 138.509,-732 138.509,-732 138.509,-726 144.509,-720 150.509,-720 150.509,-720 180.581,-720 180.581,-720 186.581,-720 192.581,-726 192.581,-732 192.581,-732 192.581,-744 192.581,-744 192.581,-750 186.581,-756 180.581,-756"/>
<text text-anchor="middle" x="165.545" y="-735" font-family="sans" font-size="10.00" fill="#000000">Index vcf</text>
</g>
<!-- 9&#45;&gt;15 -->
<g id="edge32" class="edge">
<title>9-&gt;15</title>
<path fill="none" stroke="#c0c0c0" stroke-width="2" d="M163.302,-791.8314C163.6229,-784.131 164.0044,-774.9743 164.361,-766.4166"/>
<polygon fill="#c0c0c0" stroke="#c0c0c0" stroke-width="2" points="167.8583,-766.5503 164.7778,-756.4133 160.8644,-766.2589 167.8583,-766.5503"/>
</g>
<!-- 10 -->
<g id="node11" class="node">
<title>10</title>
<path fill="none" stroke="#d85656" stroke-width="2" d="M186.7082,-900C186.7082,-900 140.3818,-900 140.3818,-900 134.3818,-900 128.3818,-894 128.3818,-888 128.3818,-888 128.3818,-876 128.3818,-876 128.3818,-870 134.3818,-864 140.3818,-864 140.3818,-864 186.7082,-864 186.7082,-864 192.7082,-864 198.7082,-870 198.7082,-876 198.7082,-876 198.7082,-888 198.7082,-888 198.7082,-894 192.7082,-900 186.7082,-900"/>
<text text-anchor="middle" x="163.545" y="-885" font-family="sans" font-size="10.00" fill="#000000">Run msprime</text>
<text text-anchor="middle" x="163.545" y="-873" font-family="sans" font-size="10.00" fill="#000000">On chr 1</text>
</g>
<!-- 10&#45;&gt;9 -->
<g id="edge29" class="edge">
<title>10-&gt;9</title>
<path fill="none" stroke="#c0c0c0" stroke-width="2" d="M163.2927,-863.8314C163.1857,-856.131 163.0585,-846.9743 162.9397,-838.4166"/>
<polygon fill="#c0c0c0" stroke="#c0c0c0" stroke-width="2" points="166.4394,-838.3637 162.8007,-828.4133 159.4401,-838.4609 166.4394,-838.3637"/>
</g>
<!-- 11 -->
<g id="node12" class="node">
<title>11</title>
<path fill="none" stroke="#d85656" stroke-width="2" d="M275.3075,-828C275.3075,-828 227.7825,-828 227.7825,-828 221.7825,-828 215.7825,-822 215.7825,-816 215.7825,-816 215.7825,-804 215.7825,-804 215.7825,-798 221.7825,-792 227.7825,-792 227.7825,-792 275.3075,-792 275.3075,-792 281.3075,-792 287.3075,-798 287.3075,-804 287.3075,-804 287.3075,-816 287.3075,-816 287.3075,-822 281.3075,-828 275.3075,-828"/>
<text text-anchor="middle" x="251.545" y="-807" font-family="sans" font-size="10.00" fill="#000000">Compress vcf</text>
</g>
<!-- 11&#45;&gt;8 -->
<g id="edge24" class="edge">
<title>11-&gt;8</title>
<path fill="none" stroke="#c0c0c0" stroke-width="2" d="M246.4259,-791.6727C243.793,-781.2978 240.8654,-768.0284 239.545,-756 237.7991,-740.0955 237.384,-735.8534 239.545,-720 240.7222,-711.3639 242.9121,-702.1599 245.262,-693.8427"/>
<polygon fill="#c0c0c0" stroke="#c0c0c0" stroke-width="2" points="248.623,-694.8195 248.1502,-684.2353 241.9193,-692.8042 248.623,-694.8195"/>
</g>
<!-- 16 -->
<g id="node17" class="node">
<title>16</title>
<path fill="none" stroke="#d85656" stroke-width="2" d="M290.581,-756C290.581,-756 260.509,-756 260.509,-756 254.509,-756 248.509,-750 248.509,-744 248.509,-744 248.509,-732 248.509,-732 248.509,-726 254.509,-720 260.509,-720 260.509,-720 290.581,-720 290.581,-720 296.581,-720 302.581,-726 302.581,-732 302.581,-732 302.581,-744 302.581,-744 302.581,-750 296.581,-756 290.581,-756"/>
<text text-anchor="middle" x="275.545" y="-735" font-family="sans" font-size="10.00" fill="#000000">Index vcf</text>
</g>
<!-- 11&#45;&gt;16 -->
<g id="edge33" class="edge">
<title>11-&gt;16</title>
<path fill="none" stroke="#c0c0c0" stroke-width="2" d="M257.6012,-791.8314C260.1962,-784.0463 263.2874,-774.7729 266.1668,-766.1347"/>
<polygon fill="#c0c0c0" stroke="#c0c0c0" stroke-width="2" points="269.5653,-767.0069 269.4072,-756.4133 262.9245,-764.7933 269.5653,-767.0069"/>
</g>
<!-- 12 -->
<g id="node13" class="node">
<title>12</title>
<path fill="none" stroke="#d85656" stroke-width="2" d="M274.7082,-900C274.7082,-900 228.3818,-900 228.3818,-900 222.3818,-900 216.3818,-894 216.3818,-888 216.3818,-888 216.3818,-876 216.3818,-876 216.3818,-870 222.3818,-864 228.3818,-864 228.3818,-864 274.7082,-864 274.7082,-864 280.7082,-864 286.7082,-870 286.7082,-876 286.7082,-876 286.7082,-888 286.7082,-888 286.7082,-894 280.7082,-900 274.7082,-900"/>
<text text-anchor="middle" x="251.545" y="-885" font-family="sans" font-size="10.00" fill="#000000">Run msprime</text>
<text text-anchor="middle" x="251.545" y="-873" font-family="sans" font-size="10.00" fill="#000000">On chr 2</text>
</g>
<!-- 12&#45;&gt;11 -->
<g id="edge30" class="edge">
<title>12-&gt;11</title>
<path fill="none" stroke="#c0c0c0" stroke-width="2" d="M251.545,-863.8314C251.545,-856.131 251.545,-846.9743 251.545,-838.4166"/>
<polygon fill="#c0c0c0" stroke="#c0c0c0" stroke-width="2" points="255.0451,-838.4132 251.545,-828.4133 248.0451,-838.4133 255.0451,-838.4132"/>
</g>
<!-- 13 -->
<g id="node14" class="node">
<title>13</title>
<path fill="none" stroke="#d85656" stroke-width="2" d="M347.545,-828C347.545,-828 317.545,-828 317.545,-828 311.545,-828 305.545,-822 305.545,-816 305.545,-816 305.545,-804 305.545,-804 305.545,-798 311.545,-792 317.545,-792 317.545,-792 347.545,-792 347.545,-792 353.545,-792 359.545,-798 359.545,-804 359.545,-804 359.545,-816 359.545,-816 359.545,-822 353.545,-828 347.545,-828"/>
<text text-anchor="middle" x="332.545" y="-807" font-family="sans" font-size="10.00" fill="#000000">...</text>
</g>
<!-- 13&#45;&gt;8 -->
<g id="edge25" class="edge">
<title>13-&gt;8</title>
<path fill="none" stroke="#c0c0c0" stroke-width="2" d="M331.3966,-791.9786C329.5138,-772.9692 324.5586,-742.6852 311.545,-720 305.3449,-709.192 296.3055,-699.2178 287.2449,-690.8597"/>
<polygon fill="#c0c0c0" stroke="#c0c0c0" stroke-width="2" points="289.5173,-688.1974 279.6907,-684.2363 284.9024,-693.4607 289.5173,-688.1974"/>
</g>
<!-- 17 -->
<g id="node18" class="node">
<title>17</title>
<path fill="none" stroke="#d85656" stroke-width="2" d="M400.545,-756C400.545,-756 370.545,-756 370.545,-756 364.545,-756 358.545,-750 358.545,-744 358.545,-744 358.545,-732 358.545,-732 358.545,-726 364.545,-720 370.545,-720 370.545,-720 400.545,-720 400.545,-720 406.545,-720 412.545,-726 412.545,-732 412.545,-732 412.545,-744 412.545,-744 412.545,-750 406.545,-756 400.545,-756"/>
<text text-anchor="middle" x="385.545" y="-735" font-family="sans" font-size="10.00" fill="#000000">...</text>
</g>
<!-- 13&#45;&gt;17 -->
<g id="edge34" class="edge">
<title>13-&gt;17</title>
<path fill="none" stroke="#c0c0c0" stroke-width="2" d="M345.9191,-791.8314C351.9612,-783.6232 359.2213,-773.7606 365.8671,-764.7323"/>
<polygon fill="#c0c0c0" stroke="#c0c0c0" stroke-width="2" points="368.8813,-766.5415 371.9908,-756.4133 363.2439,-762.3918 368.8813,-766.5415"/>
</g>
<!-- 14 -->
<g id="node15" class="node">
<title>14</title>
<path fill="none" stroke="#d85656" stroke-width="2" d="M347.545,-900C347.545,-900 317.545,-900 317.545,-900 311.545,-900 305.545,-894 305.545,-888 305.545,-888 305.545,-876 305.545,-876 305.545,-870 311.545,-864 317.545,-864 317.545,-864 347.545,-864 347.545,-864 353.545,-864 359.545,-870 359.545,-876 359.545,-876 359.545,-888 359.545,-888 359.545,-894 353.545,-900 347.545,-900"/>
<text text-anchor="middle" x="332.545" y="-879" font-family="sans" font-size="10.00" fill="#000000">...</text>
</g>
<!-- 14&#45;&gt;13 -->
<g id="edge31" class="edge">
<title>14-&gt;13</title>
<path fill="none" stroke="#c0c0c0" stroke-width="2" d="M332.545,-863.8314C332.545,-856.131 332.545,-846.9743 332.545,-838.4166"/>
<polygon fill="#c0c0c0" stroke="#c0c0c0" stroke-width="2" points="336.0451,-838.4132 332.545,-828.4133 329.0451,-838.4133 336.0451,-838.4132"/>
</g>
<!-- 15&#45;&gt;8 -->
<g id="edge26" class="edge">
<title>15-&gt;8</title>
<path fill="none" stroke="#c0c0c0" stroke-width="2" d="M188.0035,-719.8314C198.9655,-710.9632 212.3149,-700.1637 224.1715,-690.5718"/>
<polygon fill="#c0c0c0" stroke="#c0c0c0" stroke-width="2" points="226.5205,-693.1734 232.0937,-684.1628 222.1179,-687.7313 226.5205,-693.1734"/>
</g>
<!-- 16&#45;&gt;8 -->
<g id="edge27" class="edge">
<title>16-&gt;8</title>
<path fill="none" stroke="#c0c0c0" stroke-width="2" d="M270.2458,-719.8314C267.9752,-712.0463 265.2704,-702.7729 262.751,-694.1347"/>
<polygon fill="#c0c0c0" stroke="#c0c0c0" stroke-width="2" points="266.0756,-693.0332 259.9155,-684.4133 259.3556,-694.9933 266.0756,-693.0332"/>
</g>
<!-- 17&#45;&gt;8 -->
<g id="edge28" class="edge">
<title>17-&gt;8</title>
<path fill="none" stroke="#c0c0c0" stroke-width="2" d="M358.4017,-723.0816C340.5946,-713.2944 316.9476,-700.2976 296.7163,-689.1781"/>
<polygon fill="#c0c0c0" stroke="#c0c0c0" stroke-width="2" points="298.1438,-685.9689 287.6944,-684.2195 294.7722,-692.1034 298.1438,-685.9689"/>
</g>
<!-- 18&#45;&gt;5 -->
<g id="edge20" class="edge">
<title>18-&gt;5</title>
<path fill="none" stroke="#c0c0c0" stroke-width="2" d="M131.545,-431.8314C131.545,-424.131 131.545,-414.9743 131.545,-406.4166"/>
<polygon fill="#c0c0c0" stroke="#c0c0c0" stroke-width="2" points="135.0451,-406.4132 131.545,-396.4133 128.0451,-406.4133 135.0451,-406.4132"/>
</g>
<!-- 19&#45;&gt;18 -->
<g id="edge36" class="edge">
<title>19-&gt;18</title>
<path fill="none" stroke="#c0c0c0" stroke-width="2" d="M137.5263,-503.8314C136.6707,-496.131 135.6533,-486.9743 134.7024,-478.4166"/>
<polygon fill="#c0c0c0" stroke="#c0c0c0" stroke-width="2" points="138.1739,-477.9656 133.5909,-468.4133 131.2167,-478.7386 138.1739,-477.9656"/>
</g>
<!-- 20 -->
<g id="node21" class="node">
<title>20</title>
<path fill="none" stroke="#56d8d8" stroke-width="2" d="M269.1602,-972C269.1602,-972 233.9298,-972 233.9298,-972 227.9298,-972 221.9298,-966 221.9298,-960 221.9298,-960 221.9298,-948 221.9298,-948 221.9298,-942 227.9298,-936 233.9298,-936 233.9298,-936 269.1602,-936 269.1602,-936 275.1602,-936 281.1602,-942 281.1602,-948 281.1602,-948 281.1602,-960 281.1602,-960 281.1602,-966 275.1602,-972 269.1602,-972"/>
<text text-anchor="middle" x="251.545" y="-951" font-family="sans" font-size="10.00" fill="#000000">Split index</text>
</g>
<!-- 20&#45;&gt;10 -->
<g id="edge12" class="edge">
<title>20-&gt;10</title>
<path fill="none" stroke="#c0c0c0" stroke-width="2" d="M229.3389,-935.8314C218.5,-926.9632 205.3006,-916.1637 193.5772,-906.5718"/>
<polygon fill="#c0c0c0" stroke="#c0c0c0" stroke-width="2" points="195.7,-903.7864 185.744,-900.1628 191.2673,-909.2041 195.7,-903.7864"/>
</g>
<!-- 20&#45;&gt;12 -->
<g id="edge13" class="edge">
<title>20-&gt;12</title>
<path fill="none" stroke="#c0c0c0" stroke-width="2" d="M251.545,-935.8314C251.545,-928.131 251.545,-918.9743 251.545,-910.4166"/>
<polygon fill="#c0c0c0" stroke="#c0c0c0" stroke-width="2" points="255.0451,-910.4132 251.545,-900.4133 248.0451,-910.4133 255.0451,-910.4132"/>
</g>
<!-- 20&#45;&gt;14 -->
<g id="edge14" class="edge">
<title>20-&gt;14</title>
<path fill="none" stroke="#c0c0c0" stroke-width="2" d="M271.9847,-935.8314C281.8655,-927.0485 293.8774,-916.3712 304.59,-906.8489"/>
<polygon fill="#c0c0c0" stroke="#c0c0c0" stroke-width="2" points="306.963,-909.4224 312.1118,-900.1628 302.3124,-904.1906 306.963,-909.4224"/>
</g>
<!-- 21 -->
<g id="node22" class="node">
<title>21</title>
<path fill="none" stroke="#56d8d8" stroke-width="2" d="M423.512,-972C423.512,-972 361.578,-972 361.578,-972 355.578,-972 349.578,-966 349.578,-960 349.578,-960 349.578,-948 349.578,-948 349.578,-942 355.578,-936 361.578,-936 361.578,-936 423.512,-936 423.512,-936 429.512,-936 435.512,-942 435.512,-948 435.512,-948 435.512,-960 435.512,-960 435.512,-966 429.512,-972 423.512,-972"/>
<text text-anchor="middle" x="392.545" y="-951" font-family="sans" font-size="10.00" fill="#000000">Create config file</text>
</g>
<!-- 21&#45;&gt;8 -->
<g id="edge2" class="edge">
<title>21-&gt;8</title>
<path fill="none" stroke="#c0c0c0" stroke-width="2" d="M402.5271,-935.768C424.2419,-893.3713 470.0761,-786.6979 421.545,-720 408.1144,-701.5419 353.2005,-686.1925 309.9617,-676.6356"/>
<polygon fill="#c0c0c0" stroke="#c0c0c0" stroke-width="2" points="310.6081,-673.1947 300.0951,-674.5091 309.1332,-680.0375 310.6081,-673.1947"/>
</g>
<!-- 22&#45;&gt;20 -->
<g id="edge11" class="edge">
<title>22-&gt;20</title>
<path fill="none" stroke="#c0c0c0" stroke-width="2" d="M251.545,-1007.8314C251.545,-1000.131 251.545,-990.9743 251.545,-982.4166"/>
<polygon fill="#c0c0c0" stroke="#c0c0c0" stroke-width="2" points="255.0451,-982.4132 251.545,-972.4133 248.0451,-982.4133 255.0451,-982.4132"/>
</g>
<!-- 22&#45;&gt;21 -->
<g id="edge10" class="edge">
<title>22-&gt;21</title>
<path fill="none" stroke="#c0c0c0" stroke-width="2" d="M287.1253,-1007.8314C305.5775,-998.4089 328.2995,-986.8062 347.918,-976.7883"/>
<polygon fill="#c0c0c0" stroke="#c0c0c0" stroke-width="2" points="349.6618,-979.8278 356.9761,-972.1628 346.4783,-973.5935 349.6618,-979.8278"/>
</g>
<!-- 24 -->
<g id="node24" class="node">
<title>24</title>
<path fill="none" stroke="#56d8a2" stroke-width="2" d="M253.3492,-108C253.3492,-108 165.7408,-108 165.7408,-108 159.7408,-108 153.7408,-102 153.7408,-96 153.7408,-96 153.7408,-84 153.7408,-84 153.7408,-78 159.7408,-72 165.7408,-72 165.7408,-72 253.3492,-72 253.3492,-72 259.3492,-72 265.3492,-78 265.3492,-84 265.3492,-84 265.3492,-96 265.3492,-96 265.3492,-102 259.3492,-108 253.3492,-108"/>
<text text-anchor="middle" x="209.545" y="-87" font-family="sans" font-size="10.00" fill="#000000">Giraffe GFA to FASTA</text>
</g>
<!-- 24&#45;&gt;0 -->
<g id="edge6" class="edge">
<title>24-&gt;0</title>
<path fill="none" stroke="#c0c0c0" stroke-width="2" d="M188.3483,-71.8314C178.1016,-63.0485 165.6447,-52.3712 154.5353,-42.8489"/>
<polygon fill="#c0c0c0" stroke="#c0c0c0" stroke-width="2" points="156.6053,-40.0134 146.735,-36.1628 152.0498,-45.3282 156.6053,-40.0134"/>
</g>
<!-- 25 -->
<g id="node25" class="node">
<title>25</title>
<path fill="none" stroke="#56d8a2" stroke-width="2" d="M237.037,-180C237.037,-180 180.053,-180 180.053,-180 174.053,-180 168.053,-174 168.053,-168 168.053,-168 168.053,-156 168.053,-156 168.053,-150 174.053,-144 180.053,-144 180.053,-144 237.037,-144 237.037,-144 243.037,-144 249.037,-150 249.037,-156 249.037,-156 249.037,-168 249.037,-168 249.037,-174 243.037,-180 237.037,-180"/>
<text text-anchor="middle" x="208.545" y="-159" font-family="sans" font-size="10.00" fill="#000000">Convert to GFA</text>
</g>
<!-- 25&#45;&gt;24 -->
<g id="edge4" class="edge">
<title>25-&gt;24</title>
<path fill="none" stroke="#c0c0c0" stroke-width="2" d="M208.7973,-143.8314C208.9043,-136.131 209.0315,-126.9743 209.1503,-118.4166"/>
<polygon fill="#c0c0c0" stroke="#c0c0c0" stroke-width="2" points="212.6499,-118.4609 209.2893,-108.4133 205.6506,-118.3637 212.6499,-118.4609"/>
</g>
<!-- 26&#45;&gt;25 -->
<g id="edge3" class="edge">
<title>26-&gt;25</title>
<path fill="none" stroke="#c0c0c0" stroke-width="2" d="M208.545,-215.8314C208.545,-208.131 208.545,-198.9743 208.545,-190.4166"/>
<polygon fill="#c0c0c0" stroke="#c0c0c0" stroke-width="2" points="212.0451,-190.4132 208.545,-180.4133 205.0451,-190.4133 212.0451,-190.4132"/>
</g>
<!-- 27&#45;&gt;5 -->
<g id="edge18" class="edge">
<title>27-&gt;5</title>
<path fill="none" stroke="#c0c0c0" stroke-width="2" d="M206.3108,-431.8314C193.757,-422.7927 178.4167,-411.7476 164.9059,-402.0198"/>
<polygon fill="#c0c0c0" stroke="#c0c0c0" stroke-width="2" points="166.9316,-399.1655 156.7711,-396.1628 162.8414,-404.8463 166.9316,-399.1655"/>
</g>
</g>
</svg>