<?xml version="1.0" encoding="UTF-8"?>
<svg version="1.1" xmlns="http://www.w3.org/2000/svg" width="560" height="560">
<path d="M0 0 C184.8 0 369.6 0 560 0 C560 184.8 560 369.6 560 560 C375.2 560 190.4 560 0 560 C0 375.2 0 190.4 0 0 Z " fill="#895FCC" transform="translate(0,0)"/>
<path d="M0 0 C121.44 0 242.88 0 368 0 C368 184.8 368 369.6 368 560 C309.92 560 251.84 560 192 560 C192 512.48 192 464.96 192 416 C218.4 416 244.8 416 272 416 C272 405.44 272 394.88 272 384 C277.28 384 282.56 384 288 384 C288 394.56 288 405.12 288 416 C309.12 416 330.24 416 352 416 C352 410.72 352 405.44 352 400 C346.72 400 341.44 400 336 400 C336 394.72 336 389.44 336 384 C330.72 384 325.44 384 320 384 C320 378.72 320 373.44 320 368 C330.56 368 341.12 368 352 368 C352 362.72 352 357.44 352 352 C330.88 352 309.76 352 288 352 C288 299.2 288 246.4 288 192 C277.44 192 266.88 192 256 192 C256 186.72 256 181.44 256 176 C250.72 176 245.44 176 240 176 C240 170.72 240 165.44 240 160 C255.84 160 271.68 160 288 160 C288 154.72 288 149.44 288 144 C282.72 144 277.44 144 272 144 C272 138.72 272 133.44 272 128 C256.16 128 240.32 128 224 128 C224 133.28 224 138.56 224 144 C218.72 144 213.44 144 208 144 C208 149.28 208 154.56 208 160 C202.72 160 197.44 160 192 160 C192 165.28 192 170.56 192 176 C186.72 176 181.44 176 176 176 C176 181.28 176 186.56 176 192 C170.72 192 165.44 192 160 192 C160 186.72 160 181.44 160 176 C154.72 176 149.44 176 144 176 C144 170.72 144 165.44 144 160 C133.44 160 122.88 160 112 160 C112 191.68 112 223.36 112 256 C122.56 256 133.12 256 144 256 C144 240.16 144 224.32 144 208 C149.28 208 154.56 208 160 208 C160 213.28 160 218.56 160 224 C165.28 224 170.56 224 176 224 C176 218.72 176 213.44 176 208 C181.28 208 186.56 208 192 208 C192 229.12 192 250.24 192 272 C155.04 272 118.08 272 80 272 C80 266.72 80 261.44 80 256 C85.28 256 90.56 256 96 256 C96 229.6 96 203.2 96 176 C90.72 176 85.44 176 80 176 C80 186.56 80 197.12 80 208 C74.72 208 69.44 208 64 208 C64 223.84 64 239.68 64 256 C53.44 256 42.88 256 32 256 C32 261.28 32 266.56 32 272 C21.44 272 10.88 272 0 272 C0 287.84 0 303.68 0 320 C-5.28 320 -10.56 320 -16 320 C-16 304.16 -16 288.32 -16 272 C-21.28 272 -26.56 272 -32 272 C-32 266.72 -32 261.44 -32 256 C-42.56 256 -53.12 256 -64 256 C-64 245.44 -64 234.88 -64 224 C-74.56 224 -85.12 224 -96 224 C-96 192.32 -96 160.64 -96 128 C-85.44 128 -74.88 128 -64 128 C-64 112.16 -64 96.32 -64 80 C-58.72 80 -53.44 80 -48 80 C-48 74.72 -48 69.44 -48 64 C-42.72 64 -37.44 64 -32 64 C-32 58.72 -32 53.44 -32 48 C-16.16 48 -0.32 48 16 48 C16 42.72 16 37.44 16 32 C10.72 32 5.44 32 0 32 C0 21.44 0 10.88 0 0 Z " fill="#BCB689" transform="translate(192,0)"/>
<path d="M0 0 C15.84 0 31.68 0 48 0 C48 5.28 48 10.56 48 16 C53.28 16 58.56 16 64 16 C64 21.28 64 26.56 64 32 C48.16 32 32.32 32 16 32 C16 37.28 16 42.56 16 48 C21.28 48 26.56 48 32 48 C32 53.28 32 58.56 32 64 C42.56 64 53.12 64 64 64 C64 116.8 64 169.6 64 224 C85.12 224 106.24 224 128 224 C128 229.28 128 234.56 128 240 C117.44 240 106.88 240 96 240 C96 245.28 96 250.56 96 256 C101.28 256 106.56 256 112 256 C112 261.28 112 266.56 112 272 C117.28 272 122.56 272 128 272 C128 277.28 128 282.56 128 288 C106.88 288 85.76 288 64 288 C64 277.44 64 266.88 64 256 C58.72 256 53.44 256 48 256 C48 266.56 48 277.12 48 288 C21.6 288 -4.8 288 -32 288 C-32 272.16 -32 256.32 -32 240 C-37.28 240 -42.56 240 -48 240 C-48 255.84 -48 271.68 -48 288 C-84.96 288 -121.92 288 -160 288 C-160 293.28 -160 298.56 -160 304 C-149.44 304 -138.88 304 -128 304 C-128 309.28 -128 314.56 -128 320 C-117.44 320 -106.88 320 -96 320 C-96 335.84 -96 351.68 -96 368 C-85.44 368 -74.88 368 -64 368 C-64 378.56 -64 389.12 -64 400 C-69.28 400 -74.56 400 -80 400 C-80 394.72 -80 389.44 -80 384 C-85.28 384 -90.56 384 -96 384 C-96 389.28 -96 394.56 -96 400 C-101.28 400 -106.56 400 -112 400 C-112 378.88 -112 357.76 -112 336 C-127.84 336 -143.68 336 -160 336 C-160 341.28 -160 346.56 -160 352 C-149.44 352 -138.88 352 -128 352 C-128 367.84 -128 383.68 -128 400 C-133.28 400 -138.56 400 -144 400 C-144 394.72 -144 389.44 -144 384 C-149.28 384 -154.56 384 -160 384 C-160 378.72 -160 373.44 -160 368 C-170.56 368 -181.12 368 -192 368 C-192 378.56 -192 389.12 -192 400 C-197.28 400 -202.56 400 -208 400 C-208 384.16 -208 368.32 -208 352 C-197.44 352 -186.88 352 -176 352 C-176 341.44 -176 330.88 -176 320 C-181.28 320 -186.56 320 -192 320 C-192 309.44 -192 298.88 -192 288 C-197.28 288 -202.56 288 -208 288 C-208 293.28 -208 298.56 -208 304 C-213.28 304 -218.56 304 -224 304 C-224 298.72 -224 293.44 -224 288 C-250.4 288 -276.8 288 -304 288 C-304 293.28 -304 298.56 -304 304 C-288.16 304 -272.32 304 -256 304 C-256 314.56 -256 325.12 -256 336 C-245.44 336 -234.88 336 -224 336 C-224 357.12 -224 378.24 -224 400 C-229.28 400 -234.56 400 -240 400 C-240 394.72 -240 389.44 -240 384 C-245.28 384 -250.56 384 -256 384 C-256 378.72 -256 373.44 -256 368 C-250.72 368 -245.44 368 -240 368 C-240 362.72 -240 357.44 -240 352 C-255.84 352 -271.68 352 -288 352 C-288 367.84 -288 383.68 -288 400 C-293.28 400 -298.56 400 -304 400 C-304 378.88 -304 357.76 -304 336 C-293.44 336 -282.88 336 -272 336 C-272 330.72 -272 325.44 -272 320 C-293.12 320 -314.24 320 -336 320 C-336 325.28 -336 330.56 -336 336 C-341.28 336 -346.56 336 -352 336 C-352 341.28 -352 346.56 -352 352 C-341.44 352 -330.88 352 -320 352 C-320 367.84 -320 383.68 -320 400 C-325.28 400 -330.56 400 -336 400 C-336 389.44 -336 378.88 -336 368 C-351.84 368 -367.68 368 -384 368 C-384 378.56 -384 389.12 -384 400 C-389.28 400 -394.56 400 -400 400 C-400 384.16 -400 368.32 -400 352 C-389.44 352 -378.88 352 -368 352 C-368 336.16 -368 320.32 -368 304 C-352.16 304 -336.32 304 -320 304 C-320 293.44 -320 282.88 -320 272 C-309.44 272 -298.88 272 -288 272 C-288 266.72 -288 261.44 -288 256 C-282.72 256 -277.44 256 -272 256 C-272 245.44 -272 234.88 -272 224 C-266.72 224 -261.44 224 -256 224 C-256 202.88 -256 181.76 -256 160 C-271.84 160 -287.68 160 -304 160 C-304 154.72 -304 149.44 -304 144 C-309.28 144 -314.56 144 -320 144 C-320 138.72 -320 133.44 -320 128 C-325.28 128 -330.56 128 -336 128 C-336 101.6 -336 75.2 -336 48 C-330.72 48 -325.44 48 -320 48 C-320 63.84 -320 79.68 -320 96 C-309.44 96 -298.88 96 -288 96 C-288 106.56 -288 117.12 -288 128 C-277.44 128 -266.88 128 -256 128 C-256 133.28 -256 138.56 -256 144 C-250.72 144 -245.44 144 -240 144 C-240 159.84 -240 175.68 -240 192 C-234.72 192 -229.44 192 -224 192 C-224 176.16 -224 160.32 -224 144 C-213.44 144 -202.88 144 -192 144 C-192 138.72 -192 133.44 -192 128 C-181.44 128 -170.88 128 -160 128 C-160 112.16 -160 96.32 -160 80 C-154.72 80 -149.44 80 -144 80 C-144 69.44 -144 58.88 -144 48 C-138.72 48 -133.44 48 -128 48 C-128 74.4 -128 100.8 -128 128 C-133.28 128 -138.56 128 -144 128 C-144 133.28 -144 138.56 -144 144 C-107.04 144 -70.08 144 -32 144 C-32 122.88 -32 101.76 -32 80 C-37.28 80 -42.56 80 -48 80 C-48 85.28 -48 90.56 -48 96 C-53.28 96 -58.56 96 -64 96 C-64 90.72 -64 85.44 -64 80 C-69.28 80 -74.56 80 -80 80 C-80 95.84 -80 111.68 -80 128 C-90.56 128 -101.12 128 -112 128 C-112 96.32 -112 64.64 -112 32 C-101.44 32 -90.88 32 -80 32 C-80 37.28 -80 42.56 -80 48 C-74.72 48 -69.44 48 -64 48 C-64 53.28 -64 58.56 -64 64 C-58.72 64 -53.44 64 -48 64 C-48 58.72 -48 53.44 -48 48 C-42.72 48 -37.44 48 -32 48 C-32 42.72 -32 37.44 -32 32 C-26.72 32 -21.44 32 -16 32 C-16 26.72 -16 21.44 -16 16 C-10.72 16 -5.44 16 0 16 C0 10.72 0 5.44 0 0 Z " fill="#BCB689" transform="translate(416,128)"/>
<path d="M0 0 C26.4 0 52.8 0 80 0 C80 184.8 80 369.6 80 560 C21.92 560 -36.16 560 -96 560 C-96 512.48 -96 464.96 -96 416 C-69.6 416 -43.2 416 -16 416 C-16 405.44 -16 394.88 -16 384 C-10.72 384 -5.44 384 0 384 C0 394.56 0 405.12 0 416 C21.12 416 42.24 416 64 416 C64 410.72 64 405.44 64 400 C58.72 400 53.44 400 48 400 C48 394.72 48 389.44 48 384 C42.72 384 37.44 384 32 384 C32 378.72 32 373.44 32 368 C42.56 368 53.12 368 64 368 C64 362.72 64 357.44 64 352 C42.88 352 21.76 352 0 352 C0 299.2 0 246.4 0 192 C-10.56 192 -21.12 192 -32 192 C-32 186.72 -32 181.44 -32 176 C-37.28 176 -42.56 176 -48 176 C-48 170.72 -48 165.44 -48 160 C-32.16 160 -16.32 160 0 160 C0 149.44 0 138.88 0 128 C10.56 128 21.12 128 32 128 C32 122.72 32 117.44 32 112 C21.44 112 10.88 112 0 112 C0 106.72 0 101.44 0 96 C10.56 96 21.12 96 32 96 C32 90.72 32 85.44 32 80 C21.44 80 10.88 80 0 80 C0 53.6 0 27.2 0 0 Z " fill="#C9CC78" transform="translate(480,0)"/>
<path d="M0 0 C5.28 0 10.56 0 16 0 C16 15.84 16 31.68 16 48 C26.56 48 37.12 48 48 48 C48 58.56 48 69.12 48 80 C58.56 80 69.12 80 80 80 C80 85.28 80 90.56 80 96 C85.28 96 90.56 96 96 96 C96 111.84 96 127.68 96 144 C101.28 144 106.56 144 112 144 C112 128.16 112 112.32 112 96 C122.56 96 133.12 96 144 96 C144 90.72 144 85.44 144 80 C154.56 80 165.12 80 176 80 C176 64.16 176 48.32 176 32 C181.28 32 186.56 32 192 32 C192 21.44 192 10.88 192 0 C197.28 0 202.56 0 208 0 C208 26.4 208 52.8 208 80 C202.72 80 197.44 80 192 80 C192 85.28 192 90.56 192 96 C186.72 96 181.44 96 176 96 C176 101.28 176 106.56 176 112 C160.16 112 144.32 112 128 112 C128 133.12 128 154.24 128 176 C133.28 176 138.56 176 144 176 C144 186.56 144 197.12 144 208 C149.28 208 154.56 208 160 208 C160 218.56 160 229.12 160 240 C165.28 240 170.56 240 176 240 C176 245.28 176 250.56 176 256 C186.56 256 197.12 256 208 256 C208 261.28 208 266.56 208 272 C218.56 272 229.12 272 240 272 C240 287.84 240 303.68 240 320 C250.56 320 261.12 320 272 320 C272 330.56 272 341.12 272 352 C266.72 352 261.44 352 256 352 C256 346.72 256 341.44 256 336 C250.72 336 245.44 336 240 336 C240 341.28 240 346.56 240 352 C234.72 352 229.44 352 224 352 C224 330.88 224 309.76 224 288 C208.16 288 192.32 288 176 288 C176 293.28 176 298.56 176 304 C186.56 304 197.12 304 208 304 C208 319.84 208 335.68 208 352 C202.72 352 197.44 352 192 352 C192 346.72 192 341.44 192 336 C186.72 336 181.44 336 176 336 C176 330.72 176 325.44 176 320 C165.44 320 154.88 320 144 320 C144 330.56 144 341.12 144 352 C138.72 352 133.44 352 128 352 C128 336.16 128 320.32 128 304 C138.56 304 149.12 304 160 304 C160 293.44 160 282.88 160 272 C154.72 272 149.44 272 144 272 C144 261.44 144 250.88 144 240 C138.72 240 133.44 240 128 240 C128 245.28 128 250.56 128 256 C122.72 256 117.44 256 112 256 C112 250.72 112 245.44 112 240 C85.6 240 59.2 240 32 240 C32 245.28 32 250.56 32 256 C47.84 256 63.68 256 80 256 C80 266.56 80 277.12 80 288 C90.56 288 101.12 288 112 288 C112 309.12 112 330.24 112 352 C106.72 352 101.44 352 96 352 C96 346.72 96 341.44 96 336 C90.72 336 85.44 336 80 336 C80 330.72 80 325.44 80 320 C85.28 320 90.56 320 96 320 C96 314.72 96 309.44 96 304 C80.16 304 64.32 304 48 304 C48 319.84 48 335.68 48 352 C42.72 352 37.44 352 32 352 C32 330.88 32 309.76 32 288 C42.56 288 53.12 288 64 288 C64 282.72 64 277.44 64 272 C42.88 272 21.76 272 0 272 C0 277.28 0 282.56 0 288 C-5.28 288 -10.56 288 -16 288 C-16 293.28 -16 298.56 -16 304 C-5.44 304 5.12 304 16 304 C16 319.84 16 335.68 16 352 C10.72 352 5.44 352 0 352 C0 341.44 0 330.88 0 320 C-15.84 320 -31.68 320 -48 320 C-48 330.56 -48 341.12 -48 352 C-53.28 352 -58.56 352 -64 352 C-64 336.16 -64 320.32 -64 304 C-53.44 304 -42.88 304 -32 304 C-32 288.16 -32 272.32 -32 256 C-16.16 256 -0.32 256 16 256 C16 245.44 16 234.88 16 224 C26.56 224 37.12 224 48 224 C48 218.72 48 213.44 48 208 C53.28 208 58.56 208 64 208 C64 197.44 64 186.88 64 176 C69.28 176 74.56 176 80 176 C80 154.88 80 133.76 80 112 C64.16 112 48.32 112 32 112 C32 106.72 32 101.44 32 96 C26.72 96 21.44 96 16 96 C16 90.72 16 85.44 16 80 C10.72 80 5.44 80 0 80 C0 53.6 0 27.2 0 0 Z " fill="#754315" transform="translate(80,176)"/>
<path d="M0 0 C21.12 0 42.24 0 64 0 C64 5.28 64 10.56 64 16 C69.28 16 74.56 16 80 16 C80 21.28 80 26.56 80 32 C85.28 32 90.56 32 96 32 C96 47.84 96 63.68 96 80 C101.28 80 106.56 80 112 80 C112 106.4 112 132.8 112 160 C106.72 160 101.44 160 96 160 C96 175.84 96 191.68 96 208 C85.44 208 74.88 208 64 208 C64 213.28 64 218.56 64 224 C53.44 224 42.88 224 32 224 C32 239.84 32 255.68 32 272 C26.72 272 21.44 272 16 272 C16 256.16 16 240.32 16 224 C10.72 224 5.44 224 0 224 C0 218.72 0 213.44 0 208 C-10.56 208 -21.12 208 -32 208 C-32 197.44 -32 186.88 -32 176 C-42.56 176 -53.12 176 -64 176 C-64 144.32 -64 112.64 -64 80 C-53.44 80 -42.88 80 -32 80 C-32 64.16 -32 48.32 -32 32 C-26.72 32 -21.44 32 -16 32 C-16 26.72 -16 21.44 -16 16 C-10.72 16 -5.44 16 0 16 C0 10.72 0 5.44 0 0 Z " fill="#8FDE5D" transform="translate(160,48)"/>
<path d="M0 0 C5.28 0 10.56 0 16 0 C16 63.36 16 126.72 16 192 C-47.36 192 -110.72 192 -176 192 C-176 160.32 -176 128.64 -176 96 C-186.56 96 -197.12 96 -208 96 C-208 85.44 -208 74.88 -208 64 C-223.84 64 -239.68 64 -256 64 C-256 58.72 -256 53.44 -256 48 C-229.6 48 -203.2 48 -176 48 C-176 53.28 -176 58.56 -176 64 C-170.72 64 -165.44 64 -160 64 C-160 58.72 -160 53.44 -160 48 C-154.72 48 -149.44 48 -144 48 C-144 58.56 -144 69.12 -144 80 C-138.72 80 -133.44 80 -128 80 C-128 90.56 -128 101.12 -128 112 C-138.56 112 -149.12 112 -160 112 C-160 127.84 -160 143.68 -160 160 C-154.72 160 -149.44 160 -144 160 C-144 149.44 -144 138.88 -144 128 C-133.44 128 -122.88 128 -112 128 C-112 133.28 -112 138.56 -112 144 C-106.72 144 -101.44 144 -96 144 C-96 149.28 -96 154.56 -96 160 C-90.72 160 -85.44 160 -80 160 C-80 144.16 -80 128.32 -80 112 C-90.56 112 -101.12 112 -112 112 C-112 106.72 -112 101.44 -112 96 C-96.16 96 -80.32 96 -64 96 C-64 117.12 -64 138.24 -64 160 C-58.72 160 -53.44 160 -48 160 C-48 154.72 -48 149.44 -48 144 C-42.72 144 -37.44 144 -32 144 C-32 149.28 -32 154.56 -32 160 C-26.72 160 -21.44 160 -16 160 C-16 149.44 -16 138.88 -16 128 C-26.56 128 -37.12 128 -48 128 C-48 112.16 -48 96.32 -48 80 C-58.56 80 -69.12 80 -80 80 C-80 74.72 -80 69.44 -80 64 C-90.56 64 -101.12 64 -112 64 C-112 58.72 -112 53.44 -112 48 C-75.04 48 -38.08 48 0 48 C0 32.16 0 16.32 0 0 Z " fill="#AFA09A" transform="translate(368,368)"/>
<path d="M0 0 C47.52 0 95.04 0 144 0 C144 5.28 144 10.56 144 16 C138.72 16 133.44 16 128 16 C128 42.4 128 68.8 128 96 C122.72 96 117.44 96 112 96 C112 111.84 112 127.68 112 144 C69.76 144 27.52 144 -16 144 C-16 133.44 -16 122.88 -16 112 C-21.28 112 -26.56 112 -32 112 C-32 101.44 -32 90.88 -32 80 C-37.28 80 -42.56 80 -48 80 C-48 58.88 -48 37.76 -48 16 C-32.16 16 -16.32 16 0 16 C0 10.72 0 5.44 0 0 Z " fill="#A38BAA" transform="translate(256,272)"/>
<path d="M0 0 C31.68 0 63.36 0 96 0 C96 26.4 96 52.8 96 80 C106.56 80 117.12 80 128 80 C128 85.28 128 90.56 128 96 C112.16 96 96.32 96 80 96 C80 101.28 80 106.56 80 112 C95.84 112 111.68 112 128 112 C128 117.28 128 122.56 128 128 C133.28 128 138.56 128 144 128 C144 122.72 144 117.44 144 112 C159.84 112 175.68 112 192 112 C192 133.12 192 154.24 192 176 C186.72 176 181.44 176 176 176 C176 181.28 176 186.56 176 192 C170.72 192 165.44 192 160 192 C160 186.72 160 181.44 160 176 C154.72 176 149.44 176 144 176 C144 170.72 144 165.44 144 160 C133.44 160 122.88 160 112 160 C112 191.68 112 223.36 112 256 C122.56 256 133.12 256 144 256 C144 240.16 144 224.32 144 208 C149.28 208 154.56 208 160 208 C160 213.28 160 218.56 160 224 C165.28 224 170.56 224 176 224 C176 218.72 176 213.44 176 208 C181.28 208 186.56 208 192 208 C192 229.12 192 250.24 192 272 C155.04 272 118.08 272 80 272 C80 266.72 80 261.44 80 256 C85.28 256 90.56 256 96 256 C96 229.6 96 203.2 96 176 C90.72 176 85.44 176 80 176 C80 160.16 80 144.32 80 128 C74.72 128 69.44 128 64 128 C64 112.16 64 96.32 64 80 C58.72 80 53.44 80 48 80 C48 74.72 48 69.44 48 64 C42.72 64 37.44 64 32 64 C32 58.72 32 53.44 32 48 C26.72 48 21.44 48 16 48 C16 42.72 16 37.44 16 32 C10.72 32 5.44 32 0 32 C0 21.44 0 10.88 0 0 Z " fill="#AFA09A" transform="translate(192,0)"/>
<path d="M0 0 C63.36 0 126.72 0 192 0 C192 10.56 192 21.12 192 32 C197.28 32 202.56 32 208 32 C208 37.28 208 42.56 208 48 C192.16 48 176.32 48 160 48 C160 53.28 160 58.56 160 64 C154.72 64 149.44 64 144 64 C144 69.28 144 74.56 144 80 C138.72 80 133.44 80 128 80 C128 95.84 128 111.68 128 128 C117.44 128 106.88 128 96 128 C96 122.72 96 117.44 96 112 C74.88 112 53.76 112 32 112 C32 117.28 32 122.56 32 128 C21.44 128 10.88 128 0 128 C0 85.76 0 43.52 0 0 Z " fill="#895FCC" transform="translate(0,0)"/>
<path d="M0 0 C5.28 0 10.56 0 16 0 C16 58.08 16 116.16 16 176 C-15.68 176 -47.36 176 -80 176 C-80 128.48 -80 80.96 -80 32 C-53.6 32 -27.2 32 0 32 C0 21.44 0 10.88 0 0 Z " fill="#BCB689" transform="translate(464,384)"/>
<path d="M0 0 C15.84 0 31.68 0 48 0 C48 5.28 48 10.56 48 16 C53.28 16 58.56 16 64 16 C64 21.28 64 26.56 64 32 C48.16 32 32.32 32 16 32 C16 37.28 16 42.56 16 48 C21.28 48 26.56 48 32 48 C32 53.28 32 58.56 32 64 C42.56 64 53.12 64 64 64 C64 79.84 64 95.68 64 112 C58.72 112 53.44 112 48 112 C48 117.28 48 122.56 48 128 C21.6 128 -4.8 128 -32 128 C-32 112.16 -32 96.32 -32 80 C-37.28 80 -42.56 80 -48 80 C-48 85.28 -48 90.56 -48 96 C-53.28 96 -58.56 96 -64 96 C-64 90.72 -64 85.44 -64 80 C-69.28 80 -74.56 80 -80 80 C-80 95.84 -80 111.68 -80 128 C-90.56 128 -101.12 128 -112 128 C-112 96.32 -112 64.64 -112 32 C-101.44 32 -90.88 32 -80 32 C-80 37.28 -80 42.56 -80 48 C-74.72 48 -69.44 48 -64 48 C-64 53.28 -64 58.56 -64 64 C-58.72 64 -53.44 64 -48 64 C-48 58.72 -48 53.44 -48 48 C-42.72 48 -37.44 48 -32 48 C-32 42.72 -32 37.44 -32 32 C-26.72 32 -21.44 32 -16 32 C-16 26.72 -16 21.44 -16 16 C-10.72 16 -5.44 16 0 16 C0 10.72 0 5.44 0 0 Z " fill="#381F09" transform="translate(416,128)"/>
<path d="M0 0 C26.4 0 52.8 0 80 0 C80 5.28 80 10.56 80 16 C85.28 16 90.56 16 96 16 C96 10.72 96 5.44 96 0 C101.28 0 106.56 0 112 0 C112 10.56 112 21.12 112 32 C117.28 32 122.56 32 128 32 C128 42.56 128 53.12 128 64 C117.44 64 106.88 64 96 64 C96 79.84 96 95.68 96 112 C101.28 112 106.56 112 112 112 C112 101.44 112 90.88 112 80 C122.56 80 133.12 80 144 80 C144 85.28 144 90.56 144 96 C149.28 96 154.56 96 160 96 C160 101.28 160 106.56 160 112 C165.28 112 170.56 112 176 112 C176 122.56 176 133.12 176 144 C144.32 144 112.64 144 80 144 C80 112.32 80 80.64 80 48 C69.44 48 58.88 48 48 48 C48 37.44 48 26.88 48 16 C32.16 16 16.32 16 0 16 C0 10.72 0 5.44 0 0 Z " fill="#A38BAA" transform="translate(112,416)"/>
<path d="M0 0 C31.68 0 63.36 0 96 0 C96 26.4 96 52.8 96 80 C106.56 80 117.12 80 128 80 C128 85.28 128 90.56 128 96 C112.16 96 96.32 96 80 96 C80 101.28 80 106.56 80 112 C95.84 112 111.68 112 128 112 C128 117.28 128 122.56 128 128 C117.44 128 106.88 128 96 128 C96 143.84 96 159.68 96 176 C90.72 176 85.44 176 80 176 C80 160.16 80 144.32 80 128 C74.72 128 69.44 128 64 128 C64 112.16 64 96.32 64 80 C58.72 80 53.44 80 48 80 C48 74.72 48 69.44 48 64 C42.72 64 37.44 64 32 64 C32 58.72 32 53.44 32 48 C26.72 48 21.44 48 16 48 C16 42.72 16 37.44 16 32 C10.72 32 5.44 32 0 32 C0 21.44 0 10.88 0 0 Z " fill="#A38BAA" transform="translate(192,0)"/>
<path d="M0 0 C47.52 0 95.04 0 144 0 C144 5.28 144 10.56 144 16 C133.44 16 122.88 16 112 16 C112 21.28 112 26.56 112 32 C117.28 32 122.56 32 128 32 C128 37.28 128 42.56 128 48 C133.28 48 138.56 48 144 48 C144 53.28 144 58.56 144 64 C122.88 64 101.76 64 80 64 C80 53.44 80 42.88 80 32 C74.72 32 69.44 32 64 32 C64 42.56 64 53.12 64 64 C37.6 64 11.2 64 -16 64 C-16 48.16 -16 32.32 -16 16 C-10.72 16 -5.44 16 0 16 C0 10.72 0 5.44 0 0 Z " fill="#381F09" transform="translate(400,352)"/>
<path d="M0 0 C31.68 0 63.36 0 96 0 C96 31.68 96 63.36 96 96 C74.88 96 53.76 96 32 96 C32 90.72 32 85.44 32 80 C21.44 80 10.88 80 0 80 C0 53.6 0 27.2 0 0 Z " fill="#AFA09A" transform="translate(288,0)"/>
<path d="M0 0 C5.28 0 10.56 0 16 0 C16 5.28 16 10.56 16 16 C31.84 16 47.68 16 64 16 C64 26.56 64 37.12 64 48 C74.56 48 85.12 48 96 48 C96 69.12 96 90.24 96 112 C90.72 112 85.44 112 80 112 C80 106.72 80 101.44 80 96 C74.72 96 69.44 96 64 96 C64 90.72 64 85.44 64 80 C69.28 80 74.56 80 80 80 C80 74.72 80 69.44 80 64 C64.16 64 48.32 64 32 64 C32 79.84 32 95.68 32 112 C26.72 112 21.44 112 16 112 C16 90.88 16 69.76 16 48 C26.56 48 37.12 48 48 48 C48 42.72 48 37.44 48 32 C26.88 32 5.76 32 -16 32 C-16 37.28 -16 42.56 -16 48 C-21.28 48 -26.56 48 -32 48 C-32 53.28 -32 58.56 -32 64 C-21.44 64 -10.88 64 0 64 C0 79.84 0 95.68 0 112 C-5.28 112 -10.56 112 -16 112 C-16 101.44 -16 90.88 -16 80 C-31.84 80 -47.68 80 -64 80 C-64 90.56 -64 101.12 -64 112 C-69.28 112 -74.56 112 -80 112 C-80 96.16 -80 80.32 -80 64 C-69.44 64 -58.88 64 -48 64 C-48 48.16 -48 32.32 -48 16 C-32.16 16 -16.32 16 0 16 C0 10.72 0 5.44 0 0 Z " fill="#754315" transform="translate(96,416)"/>
<path d="M0 0 C21.12 0 42.24 0 64 0 C64 5.28 64 10.56 64 16 C53.44 16 42.88 16 32 16 C32 37.12 32 58.24 32 80 C37.28 80 42.56 80 48 80 C48 64.16 48 48.32 48 32 C63.84 32 79.68 32 96 32 C96 37.28 96 42.56 96 48 C90.72 48 85.44 48 80 48 C80 53.28 80 58.56 80 64 C85.28 64 90.56 64 96 64 C96 69.28 96 74.56 96 80 C101.28 80 106.56 80 112 80 C112 90.56 112 101.12 112 112 C80.32 112 48.64 112 16 112 C16 85.6 16 59.2 16 32 C5.44 32 -5.12 32 -16 32 C-16 26.72 -16 21.44 -16 16 C-10.72 16 -5.44 16 0 16 C0 10.72 0 5.44 0 0 Z " fill="#9675BB" transform="translate(80,448)"/>
<path d="M0 0 C10.56 0 21.12 0 32 0 C32 5.28 32 10.56 32 16 C42.56 16 53.12 16 64 16 C64 21.28 64 26.56 64 32 C74.56 32 85.12 32 96 32 C96 47.84 96 63.68 96 80 C106.56 80 117.12 80 128 80 C128 90.56 128 101.12 128 112 C122.72 112 117.44 112 112 112 C112 106.72 112 101.44 112 96 C106.72 96 101.44 96 96 96 C96 101.28 96 106.56 96 112 C90.72 112 85.44 112 80 112 C80 90.88 80 69.76 80 48 C64.16 48 48.32 48 32 48 C32 53.28 32 58.56 32 64 C42.56 64 53.12 64 64 64 C64 79.84 64 95.68 64 112 C58.72 112 53.44 112 48 112 C48 106.72 48 101.44 48 96 C42.72 96 37.44 96 32 96 C32 90.72 32 85.44 32 80 C21.44 80 10.88 80 0 80 C0 90.56 0 101.12 0 112 C-5.28 112 -10.56 112 -16 112 C-16 96.16 -16 80.32 -16 64 C-5.44 64 5.12 64 16 64 C16 53.44 16 42.88 16 32 C10.72 32 5.44 32 0 32 C0 21.44 0 10.88 0 0 Z " fill="#56300D" transform="translate(224,416)"/>
<path d="M0 0 C42.24 0 84.48 0 128 0 C128 5.28 128 10.56 128 16 C122.72 16 117.44 16 112 16 C112 31.84 112 47.68 112 64 C75.04 64 38.08 64 0 64 C0 42.88 0 21.76 0 0 Z " fill="#9E4D02" transform="translate(256,352)"/>
<path d="M0 0 C31.68 0 63.36 0 96 0 C96 10.56 96 21.12 96 32 C101.28 32 106.56 32 112 32 C112 37.28 112 42.56 112 48 C96.16 48 80.32 48 64 48 C64 53.28 64 58.56 64 64 C58.72 64 53.44 64 48 64 C48 69.28 48 74.56 48 80 C42.72 80 37.44 80 32 80 C32 95.84 32 111.68 32 128 C26.72 128 21.44 128 16 128 C16 112.16 16 96.32 16 80 C10.72 80 5.44 80 0 80 C0 53.6 0 27.2 0 0 Z " fill="#9675BB" transform="translate(96,0)"/>
<path d="M0 0 C5.28 0 10.56 0 16 0 C16 5.28 16 10.56 16 16 C21.28 16 26.56 16 32 16 C32 21.28 32 26.56 32 32 C26.72 32 21.44 32 16 32 C16 58.4 16 84.8 16 112 C21.28 112 26.56 112 32 112 C32 106.72 32 101.44 32 96 C42.56 96 53.12 96 64 96 C64 90.72 64 85.44 64 80 C58.72 80 53.44 80 48 80 C48 74.72 48 69.44 48 64 C53.28 64 58.56 64 64 64 C64 58.72 64 53.44 64 48 C69.28 48 74.56 48 80 48 C80 69.12 80 90.24 80 112 C69.44 112 58.88 112 48 112 C48 117.28 48 122.56 48 128 C37.44 128 26.88 128 16 128 C16 143.84 16 159.68 16 176 C10.72 176 5.44 176 0 176 C0 144.32 0 112.64 0 80 C-5.28 80 -10.56 80 -16 80 C-16 74.72 -16 69.44 -16 64 C-26.56 64 -37.12 64 -48 64 C-48 48.16 -48 32.32 -48 16 C-42.72 16 -37.44 16 -32 16 C-32 26.56 -32 37.12 -32 48 C-21.44 48 -10.88 48 0 48 C0 32.16 0 16.32 0 0 Z " fill="#DA873A" transform="translate(176,144)"/>
<path d="M0 0 C42.24 0 84.48 0 128 0 C128 5.28 128 10.56 128 16 C122.72 16 117.44 16 112 16 C112 31.84 112 47.68 112 64 C101.44 64 90.88 64 80 64 C80 58.72 80 53.44 80 48 C74.72 48 69.44 48 64 48 C64 53.28 64 58.56 64 64 C58.72 64 53.44 64 48 64 C48 58.72 48 53.44 48 48 C37.44 48 26.88 48 16 48 C16 53.28 16 58.56 16 64 C10.72 64 5.44 64 0 64 C0 42.88 0 21.76 0 0 Z " fill="#381F09" transform="translate(272,272)"/>
<path d="M0 0 C15.84 0 31.68 0 48 0 C48 5.28 48 10.56 48 16 C53.28 16 58.56 16 64 16 C64 21.28 64 26.56 64 32 C48.16 32 32.32 32 16 32 C16 37.28 16 42.56 16 48 C21.28 48 26.56 48 32 48 C32 53.28 32 58.56 32 64 C42.56 64 53.12 64 64 64 C64 79.84 64 95.68 64 112 C58.72 112 53.44 112 48 112 C48 117.28 48 122.56 48 128 C32.16 128 16.32 128 0 128 C0 96.32 0 64.64 0 32 C-5.28 32 -10.56 32 -16 32 C-16 26.72 -16 21.44 -16 16 C-10.72 16 -5.44 16 0 16 C0 10.72 0 5.44 0 0 Z " fill="#9E4D02" transform="translate(416,128)"/>
<path d="M0 0 C5.28 0 10.56 0 16 0 C16 5.28 16 10.56 16 16 C31.84 16 47.68 16 64 16 C64 37.12 64 58.24 64 80 C58.72 80 53.44 80 48 80 C48 90.56 48 101.12 48 112 C42.72 112 37.44 112 32 112 C32 117.28 32 122.56 32 128 C21.44 128 10.88 128 0 128 C0 85.76 0 43.52 0 0 Z " fill="#9675BB" transform="translate(96,272)"/>
<path d="M0 0 C5.28 0 10.56 0 16 0 C16 15.84 16 31.68 16 48 C26.56 48 37.12 48 48 48 C48 58.56 48 69.12 48 80 C58.56 80 69.12 80 80 80 C80 85.28 80 90.56 80 96 C85.28 96 90.56 96 96 96 C96 122.4 96 148.8 96 176 C90.72 176 85.44 176 80 176 C80 154.88 80 133.76 80 112 C64.16 112 48.32 112 32 112 C32 106.72 32 101.44 32 96 C26.72 96 21.44 96 16 96 C16 90.72 16 85.44 16 80 C10.72 80 5.44 80 0 80 C0 53.6 0 27.2 0 0 Z " fill="#1E7734" transform="translate(80,176)"/>
<path d="M0 0 C5.28 0 10.56 0 16 0 C16 26.4 16 52.8 16 80 C10.72 80 5.44 80 0 80 C0 85.28 0 90.56 0 96 C-5.28 96 -10.56 96 -16 96 C-16 101.28 -16 106.56 -16 112 C-31.84 112 -47.68 112 -64 112 C-64 133.12 -64 154.24 -64 176 C-69.28 176 -74.56 176 -80 176 C-80 149.6 -80 123.2 -80 96 C-69.44 96 -58.88 96 -48 96 C-48 90.72 -48 85.44 -48 80 C-37.44 80 -26.88 80 -16 80 C-16 64.16 -16 48.32 -16 32 C-10.72 32 -5.44 32 0 32 C0 21.44 0 10.88 0 0 Z " fill="#3CA370" transform="translate(272,176)"/>
<path d="M0 0 C5.28 0 10.56 0 16 0 C16 21.12 16 42.24 16 64 C21.28 64 26.56 64 32 64 C32 69.28 32 74.56 32 80 C42.56 80 53.12 80 64 80 C64 85.28 64 90.56 64 96 C69.28 96 74.56 96 80 96 C80 111.84 80 127.68 80 144 C74.72 144 69.44 144 64 144 C64 138.72 64 133.44 64 128 C53.44 128 42.88 128 32 128 C32 117.44 32 106.88 32 96 C21.44 96 10.88 96 0 96 C0 64.32 0 32.64 0 0 Z " fill="#3CA370" transform="translate(96,128)"/>
<path d="M0 0 C15.84 0 31.68 0 48 0 C48 21.12 48 42.24 48 64 C26.88 64 5.76 64 -16 64 C-16 48.16 -16 32.32 -16 16 C-10.72 16 -5.44 16 0 16 C0 10.72 0 5.44 0 0 Z " fill="#9E4D02" transform="translate(400,352)"/>
<path d="M0 0 C5.28 0 10.56 0 16 0 C16 5.28 16 10.56 16 16 C26.56 16 37.12 16 48 16 C48 31.84 48 47.68 48 64 C42.72 64 37.44 64 32 64 C32 58.72 32 53.44 32 48 C26.72 48 21.44 48 16 48 C16 42.72 16 37.44 16 32 C5.44 32 -5.12 32 -16 32 C-16 42.56 -16 53.12 -16 64 C-21.28 64 -26.56 64 -32 64 C-32 48.16 -32 32.32 -32 16 C-21.44 16 -10.88 16 0 16 C0 10.72 0 5.44 0 0 Z " fill="#56300D" transform="translate(240,464)"/>
<path d="M0 0 C5.28 0 10.56 0 16 0 C16 10.56 16 21.12 16 32 C21.28 32 26.56 32 32 32 C32 42.56 32 53.12 32 64 C21.44 64 10.88 64 0 64 C0 69.28 0 74.56 0 80 C-5.28 80 -10.56 80 -16 80 C-16 74.72 -16 69.44 -16 64 C-21.28 64 -26.56 64 -32 64 C-32 53.44 -32 42.88 -32 32 C-21.44 32 -10.88 32 0 32 C0 21.44 0 10.88 0 0 Z " fill="#754315" transform="translate(208,352)"/>
<path d="M0 0 C5.28 0 10.56 0 16 0 C16 5.28 16 10.56 16 16 C26.56 16 37.12 16 48 16 C48 31.84 48 47.68 48 64 C42.72 64 37.44 64 32 64 C32 53.44 32 42.88 32 32 C16.16 32 0.32 32 -16 32 C-16 42.56 -16 53.12 -16 64 C-21.28 64 -26.56 64 -32 64 C-32 48.16 -32 32.32 -32 16 C-21.44 16 -10.88 16 0 16 C0 10.72 0 5.44 0 0 Z " fill="#56300D" transform="translate(48,464)"/>
<path d="M0 0 C15.84 0 31.68 0 48 0 C48 15.84 48 31.68 48 48 C37.44 48 26.88 48 16 48 C16 53.28 16 58.56 16 64 C10.72 64 5.44 64 0 64 C0 42.88 0 21.76 0 0 Z " fill="#9E4D02" transform="translate(272,272)"/>
<path d="M0 0 C26.4 0 52.8 0 80 0 C80 15.84 80 31.68 80 48 C69.44 48 58.88 48 48 48 C48 37.44 48 26.88 48 16 C32.16 16 16.32 16 0 16 C0 10.72 0 5.44 0 0 Z " fill="#9675BB" transform="translate(112,416)"/>
<path d="M0 0 C15.84 0 31.68 0 48 0 C48 5.28 48 10.56 48 16 C37.44 16 26.88 16 16 16 C16 21.28 16 26.56 16 32 C21.28 32 26.56 32 32 32 C32 37.28 32 42.56 32 48 C37.28 48 42.56 48 48 48 C48 53.28 48 58.56 48 64 C32.16 64 16.32 64 0 64 C0 42.88 0 21.76 0 0 Z " fill="#9E4D02" transform="translate(496,352)"/>
<path d="M0 0 C15.84 0 31.68 0 48 0 C48 5.28 48 10.56 48 16 C37.44 16 26.88 16 16 16 C16 26.56 16 37.12 16 48 C21.28 48 26.56 48 32 48 C32 42.72 32 37.44 32 32 C37.28 32 42.56 32 48 32 C48 42.56 48 53.12 48 64 C32.16 64 16.32 64 0 64 C0 42.88 0 21.76 0 0 Z " fill="#381F09" transform="translate(256,352)"/>
<path d="M0 0 C10.56 0 21.12 0 32 0 C32 5.28 32 10.56 32 16 C37.28 16 42.56 16 48 16 C48 10.72 48 5.44 48 0 C53.28 0 58.56 0 64 0 C64 5.28 64 10.56 64 16 C74.56 16 85.12 16 96 16 C96 21.28 96 26.56 96 32 C64.32 32 32.64 32 0 32 C0 21.44 0 10.88 0 0 Z " fill="#AFA09A" transform="translate(288,320)"/>
<path d="M0 0 C21.12 0 42.24 0 64 0 C64 5.28 64 10.56 64 16 C48.16 16 32.32 16 16 16 C16 37.12 16 58.24 16 80 C10.72 80 5.44 80 0 80 C0 53.6 0 27.2 0 0 Z " fill="#000000" transform="translate(192,272)"/>
<path d="M0 0 C21.12 0 42.24 0 64 0 C64 26.4 64 52.8 64 80 C58.72 80 53.44 80 48 80 C48 58.88 48 37.76 48 16 C32.16 16 16.32 16 0 16 C0 10.72 0 5.44 0 0 Z " fill="#000000" transform="translate(112,272)"/>
<path d="M0 0 C36.96 0 73.92 0 112 0 C112 5.28 112 10.56 112 16 C96.16 16 80.32 16 64 16 C64 21.28 64 26.56 64 32 C58.72 32 53.44 32 48 32 C48 26.72 48 21.44 48 16 C32.16 16 16.32 16 0 16 C0 10.72 0 5.44 0 0 Z " fill="#AFA09A" transform="translate(272,96)"/>
<path d="M0 0 C10.56 0 21.12 0 32 0 C32 5.28 32 10.56 32 16 C42.56 16 53.12 16 64 16 C64 21.28 64 26.56 64 32 C53.44 32 42.88 32 32 32 C32 37.28 32 42.56 32 48 C26.72 48 21.44 48 16 48 C16 42.72 16 37.44 16 32 C10.72 32 5.44 32 0 32 C0 21.44 0 10.88 0 0 Z " fill="#9E4D02" transform="translate(224,416)"/>
<path d="M0 0 C5.28 0 10.56 0 16 0 C16 10.56 16 21.12 16 32 C21.28 32 26.56 32 32 32 C32 42.56 32 53.12 32 64 C21.44 64 10.88 64 0 64 C0 58.72 0 53.44 0 48 C-5.28 48 -10.56 48 -16 48 C-16 42.72 -16 37.44 -16 32 C-10.72 32 -5.44 32 0 32 C0 21.44 0 10.88 0 0 Z " fill="#9E4D02" transform="translate(176,320)"/>
<path d="M0 0 C15.84 0 31.68 0 48 0 C48 5.28 48 10.56 48 16 C42.72 16 37.44 16 32 16 C32 21.28 32 26.56 32 32 C26.72 32 21.44 32 16 32 C16 37.28 16 42.56 16 48 C10.72 48 5.44 48 0 48 C0 32.16 0 16.32 0 0 Z " fill="#BCB689" transform="translate(384,112)"/>
<path d="M0 0 C15.84 0 31.68 0 48 0 C48 10.56 48 21.12 48 32 C42.72 32 37.44 32 32 32 C32 26.72 32 21.44 32 16 C26.72 16 21.44 16 16 16 C16 21.28 16 26.56 16 32 C10.72 32 5.44 32 0 32 C0 21.44 0 10.88 0 0 Z " fill="#56300D" transform="translate(304,496)"/>
<path d="M0 0 C10.56 0 21.12 0 32 0 C32 5.28 32 10.56 32 16 C26.72 16 21.44 16 16 16 C16 31.84 16 47.68 16 64 C10.72 64 5.44 64 0 64 C0 42.88 0 21.76 0 0 Z " fill="#381F09" transform="translate(352,352)"/>
<path d="M0 0 C5.28 0 10.56 0 16 0 C16 5.28 16 10.56 16 16 C21.28 16 26.56 16 32 16 C32 21.28 32 26.56 32 32 C26.72 32 21.44 32 16 32 C16 37.28 16 42.56 16 48 C5.44 48 -5.12 48 -16 48 C-16 42.72 -16 37.44 -16 32 C-10.72 32 -5.44 32 0 32 C0 21.44 0 10.88 0 0 Z " fill="#000000" transform="translate(144,352)"/>
<path d="M0 0 C10.56 0 21.12 0 32 0 C32 5.28 32 10.56 32 16 C26.72 16 21.44 16 16 16 C16 31.84 16 47.68 16 64 C10.72 64 5.44 64 0 64 C0 42.88 0 21.76 0 0 Z " fill="#9E4D02" transform="translate(368,272)"/>
<path d="M0 0 C5.28 0 10.56 0 16 0 C16 5.28 16 10.56 16 16 C26.56 16 37.12 16 48 16 C48 21.28 48 26.56 48 32 C37.44 32 26.88 32 16 32 C16 37.28 16 42.56 16 48 C10.72 48 5.44 48 0 48 C0 32.16 0 16.32 0 0 Z " fill="#3CA370" transform="translate(192,208)"/>
<path d="M0 0 C5.28 0 10.56 0 16 0 C16 26.4 16 52.8 16 80 C10.72 80 5.44 80 0 80 C0 53.6 0 27.2 0 0 Z " fill="#000000" transform="translate(272,176)"/>
<path d="M0 0 C5.28 0 10.56 0 16 0 C16 26.4 16 52.8 16 80 C10.72 80 5.44 80 0 80 C0 53.6 0 27.2 0 0 Z " fill="#000000" transform="translate(80,176)"/>
<path d="M0 0 C15.84 0 31.68 0 48 0 C48 10.56 48 21.12 48 32 C37.44 32 26.88 32 16 32 C16 26.72 16 21.44 16 16 C10.72 16 5.44 16 0 16 C0 10.72 0 5.44 0 0 Z " fill="#BCB689" transform="translate(432,160)"/>
<path d="M0 0 C21.12 0 42.24 0 64 0 C64 5.28 64 10.56 64 16 C42.88 16 21.76 16 0 16 C0 10.72 0 5.44 0 0 Z " fill="#BCB689" transform="translate(32,96)"/>
<path d="M0 0 C10.56 0 21.12 0 32 0 C32 10.56 32 21.12 32 32 C26.72 32 21.44 32 16 32 C16 26.72 16 21.44 16 16 C10.72 16 5.44 16 0 16 C0 10.72 0 5.44 0 0 Z " fill="#381F09" transform="translate(160,496)"/>
<path d="M0 0 C10.56 0 21.12 0 32 0 C32 10.56 32 21.12 32 32 C26.72 32 21.44 32 16 32 C16 26.72 16 21.44 16 16 C10.72 16 5.44 16 0 16 C0 10.72 0 5.44 0 0 Z " fill="#9E4D02" transform="translate(160,464)"/>
<path d="M0 0 C5.28 0 10.56 0 16 0 C16 10.56 16 21.12 16 32 C5.44 32 -5.12 32 -16 32 C-16 26.72 -16 21.44 -16 16 C-10.72 16 -5.44 16 0 16 C0 10.72 0 5.44 0 0 Z " fill="#895FCC" transform="translate(80,448)"/>
<path d="M0 0 C15.84 0 31.68 0 48 0 C48 5.28 48 10.56 48 16 C32.16 16 16.32 16 0 16 C0 10.72 0 5.44 0 0 Z " fill="#754315" transform="translate(112,432)"/>
<path d="M0 0 C10.56 0 21.12 0 32 0 C32 5.28 32 10.56 32 16 C26.72 16 21.44 16 16 16 C16 21.28 16 26.56 16 32 C10.72 32 5.44 32 0 32 C0 21.44 0 10.88 0 0 Z " fill="#754315" transform="translate(224,416)"/>
<path d="M0 0 C15.84 0 31.68 0 48 0 C48 5.28 48 10.56 48 16 C32.16 16 16.32 16 0 16 C0 10.72 0 5.44 0 0 Z " fill="#754315" transform="translate(96,400)"/>
<path d="M0 0 C10.56 0 21.12 0 32 0 C32 5.28 32 10.56 32 16 C26.72 16 21.44 16 16 16 C16 21.28 16 26.56 16 32 C10.72 32 5.44 32 0 32 C0 21.44 0 10.88 0 0 Z " fill="#000000" transform="translate(176,384)"/>
<path d="M0 0 C5.28 0 10.56 0 16 0 C16 15.84 16 31.68 16 48 C10.72 48 5.44 48 0 48 C0 32.16 0 16.32 0 0 Z " fill="#381F09" transform="translate(384,368)"/>
<path d="M0 0 C10.56 0 21.12 0 32 0 C32 10.56 32 21.12 32 32 C26.72 32 21.44 32 16 32 C16 26.72 16 21.44 16 16 C10.72 16 5.44 16 0 16 C0 10.72 0 5.44 0 0 Z " fill="#AFA09A" transform="translate(320,368)"/>
<path d="M0 0 C10.56 0 21.12 0 32 0 C32 5.28 32 10.56 32 16 C26.72 16 21.44 16 16 16 C16 21.28 16 26.56 16 32 C10.72 32 5.44 32 0 32 C0 21.44 0 10.88 0 0 Z " fill="#A38BAA" transform="translate(272,368)"/>
<path d="M0 0 C5.28 0 10.56 0 16 0 C16 15.84 16 31.68 16 48 C10.72 48 5.44 48 0 48 C0 32.16 0 16.32 0 0 Z " fill="#9E4D02" transform="translate(400,288)"/>
<path d="M0 0 C5.28 0 10.56 0 16 0 C16 15.84 16 31.68 16 48 C10.72 48 5.44 48 0 48 C0 32.16 0 16.32 0 0 Z " fill="#000000" transform="translate(256,128)"/>
<path d="M0 0 C5.28 0 10.56 0 16 0 C16 15.84 16 31.68 16 48 C10.72 48 5.44 48 0 48 C0 32.16 0 16.32 0 0 Z " fill="#000000" transform="translate(96,128)"/>
<path d="M0 0 C5.28 0 10.56 0 16 0 C16 15.84 16 31.68 16 48 C10.72 48 5.44 48 0 48 C0 32.16 0 16.32 0 0 Z " fill="#9675BB" transform="translate(96,80)"/>
<path d="M0 0 C5.28 0 10.56 0 16 0 C16 15.84 16 31.68 16 48 C10.72 48 5.44 48 0 48 C0 32.16 0 16.32 0 0 Z " fill="#000000" transform="translate(240,80)"/>
<path d="M0 0 C5.28 0 10.56 0 16 0 C16 15.84 16 31.68 16 48 C10.72 48 5.44 48 0 48 C0 32.16 0 16.32 0 0 Z " fill="#000000" transform="translate(112,80)"/>
<path d="M0 0 C15.84 0 31.68 0 48 0 C48 5.28 48 10.56 48 16 C32.16 16 16.32 16 0 16 C0 10.72 0 5.44 0 0 Z " fill="#000000" transform="translate(160,32)"/>
<path d="M0 0 C5.28 0 10.56 0 16 0 C16 10.56 16 21.12 16 32 C10.72 32 5.44 32 0 32 C0 21.44 0 10.88 0 0 Z " fill="#56300D" transform="translate(336,496)"/>
<path d="M0 0 C5.28 0 10.56 0 16 0 C16 10.56 16 21.12 16 32 C10.72 32 5.44 32 0 32 C0 21.44 0 10.88 0 0 Z " fill="#56300D" transform="translate(208,496)"/>
<path d="M0 0 C5.28 0 10.56 0 16 0 C16 10.56 16 21.12 16 32 C10.72 32 5.44 32 0 32 C0 21.44 0 10.88 0 0 Z " fill="#56300D" transform="translate(80,496)"/>
<path d="M0 0 C5.28 0 10.56 0 16 0 C16 10.56 16 21.12 16 32 C10.72 32 5.44 32 0 32 C0 21.44 0 10.88 0 0 Z " fill="#56300D" transform="translate(16,496)"/>
<path d="M0 0 C10.56 0 21.12 0 32 0 C32 5.28 32 10.56 32 16 C21.44 16 10.88 16 0 16 C0 10.72 0 5.44 0 0 Z " fill="#9E4D02" transform="translate(64,480)"/>
<path d="M0 0 C10.56 0 21.12 0 32 0 C32 5.28 32 10.56 32 16 C21.44 16 10.88 16 0 16 C0 10.72 0 5.44 0 0 Z " fill="#754315" transform="translate(16,480)"/>
<path d="M0 0 C10.56 0 21.12 0 32 0 C32 5.28 32 10.56 32 16 C21.44 16 10.88 16 0 16 C0 10.72 0 5.44 0 0 Z " fill="#A38BAA" transform="translate(256,464)"/>
<path d="M0 0 C5.28 0 10.56 0 16 0 C16 10.56 16 21.12 16 32 C10.72 32 5.44 32 0 32 C0 21.44 0 10.88 0 0 Z " fill="#56300D" transform="translate(144,448)"/>
<path d="M0 0 C5.28 0 10.56 0 16 0 C16 10.56 16 21.12 16 32 C10.72 32 5.44 32 0 32 C0 21.44 0 10.88 0 0 Z " fill="#56300D" transform="translate(96,416)"/>
<path d="M0 0 C10.56 0 21.12 0 32 0 C32 5.28 32 10.56 32 16 C21.44 16 10.88 16 0 16 C0 10.72 0 5.44 0 0 Z " fill="#A38BAA" transform="translate(256,416)"/>
<path d="M0 0 C5.28 0 10.56 0 16 0 C16 10.56 16 21.12 16 32 C10.72 32 5.44 32 0 32 C0 21.44 0 10.88 0 0 Z " fill="#BCB689" transform="translate(416,368)"/>
<path d="M0 0 C5.28 0 10.56 0 16 0 C16 10.56 16 21.12 16 32 C10.72 32 5.44 32 0 32 C0 21.44 0 10.88 0 0 Z " fill="#000000" transform="translate(208,352)"/>
<path d="M0 0 C10.56 0 21.12 0 32 0 C32 5.28 32 10.56 32 16 C21.44 16 10.88 16 0 16 C0 10.72 0 5.44 0 0 Z " fill="#3CA370" transform="translate(224,256)"/>
<path d="M0 0 C10.56 0 21.12 0 32 0 C32 5.28 32 10.56 32 16 C21.44 16 10.88 16 0 16 C0 10.72 0 5.44 0 0 Z " fill="#BCB689" transform="translate(416,208)"/>
<path d="M0 0 C10.56 0 21.12 0 32 0 C32 5.28 32 10.56 32 16 C21.44 16 10.88 16 0 16 C0 10.72 0 5.44 0 0 Z " fill="#8C6BCC" transform="translate(480,112)"/>
<path d="M0 0 C5.28 0 10.56 0 16 0 C16 10.56 16 21.12 16 32 C10.72 32 5.44 32 0 32 C0 21.44 0 10.88 0 0 Z " fill="#BCB689" transform="translate(464,112)"/>
<path d="M0 0 C10.56 0 21.12 0 32 0 C32 5.28 32 10.56 32 16 C21.44 16 10.88 16 0 16 C0 10.72 0 5.44 0 0 Z " fill="#8C6BCC" transform="translate(432,112)"/>
<path d="M0 0 C10.56 0 21.12 0 32 0 C32 5.28 32 10.56 32 16 C21.44 16 10.88 16 0 16 C0 10.72 0 5.44 0 0 Z " fill="#8C6BCC" transform="translate(336,112)"/>
<path d="M0 0 C10.56 0 21.12 0 32 0 C32 5.28 32 10.56 32 16 C21.44 16 10.88 16 0 16 C0 10.72 0 5.44 0 0 Z " fill="#8C6BCC" transform="translate(288,112)"/>
<path d="M0 0 C10.56 0 21.12 0 32 0 C32 5.28 32 10.56 32 16 C21.44 16 10.88 16 0 16 C0 10.72 0 5.44 0 0 Z " fill="#BCB689" transform="translate(0,112)"/>
<path d="M0 0 C10.56 0 21.12 0 32 0 C32 5.28 32 10.56 32 16 C21.44 16 10.88 16 0 16 C0 10.72 0 5.44 0 0 Z " fill="#8C6BCC" transform="translate(528,96)"/>
<path d="M0 0 C10.56 0 21.12 0 32 0 C32 5.28 32 10.56 32 16 C21.44 16 10.88 16 0 16 C0 10.72 0 5.44 0 0 Z " fill="#BCB689" transform="translate(432,96)"/>
<path d="M0 0 C10.56 0 21.12 0 32 0 C32 5.28 32 10.56 32 16 C21.44 16 10.88 16 0 16 C0 10.72 0 5.44 0 0 Z " fill="#8C6BCC" transform="translate(384,96)"/>
<path d="M0 0 C10.56 0 21.12 0 32 0 C32 5.28 32 10.56 32 16 C21.44 16 10.88 16 0 16 C0 10.72 0 5.44 0 0 Z " fill="#8C6BCC" transform="translate(480,80)"/>
<path d="M0 0 C10.56 0 21.12 0 32 0 C32 5.28 32 10.56 32 16 C21.44 16 10.88 16 0 16 C0 10.72 0 5.44 0 0 Z " fill="#8C6BCC" transform="translate(432,80)"/>
<path d="M0 0 C10.56 0 21.12 0 32 0 C32 5.28 32 10.56 32 16 C21.44 16 10.88 16 0 16 C0 10.72 0 5.44 0 0 Z " fill="#8C6BCC" transform="translate(336,80)"/>
<path d="M0 0 C10.56 0 21.12 0 32 0 C32 5.28 32 10.56 32 16 C21.44 16 10.88 16 0 16 C0 10.72 0 5.44 0 0 Z " fill="#8C6BCC" transform="translate(288,80)"/>
<path d="M0 0 C5.28 0 10.56 0 16 0 C16 10.56 16 21.12 16 32 C10.72 32 5.44 32 0 32 C0 21.44 0 10.88 0 0 Z " fill="#CFFF70" transform="translate(224,80)"/>
<path d="M0 0 C10.56 0 21.12 0 32 0 C32 5.28 32 10.56 32 16 C21.44 16 10.88 16 0 16 C0 10.72 0 5.44 0 0 Z " fill="#BCB689" transform="translate(0,80)"/>
<path d="M0 0 C5.28 0 10.56 0 16 0 C16 5.28 16 10.56 16 16 C10.72 16 5.44 16 0 16 C0 10.72 0 5.44 0 0 Z " fill="#56300D" transform="translate(304,512)"/>
<path d="M0 0 C5.28 0 10.56 0 16 0 C16 5.28 16 10.56 16 16 C10.72 16 5.44 16 0 16 C0 10.72 0 5.44 0 0 Z " fill="#56300D" transform="translate(272,512)"/>
<path d="M0 0 C5.28 0 10.56 0 16 0 C16 5.28 16 10.56 16 16 C10.72 16 5.44 16 0 16 C0 10.72 0 5.44 0 0 Z " fill="#56300D" transform="translate(176,512)"/>
<path d="M0 0 C5.28 0 10.56 0 16 0 C16 5.28 16 10.56 16 16 C10.72 16 5.44 16 0 16 C0 10.72 0 5.44 0 0 Z " fill="#56300D" transform="translate(112,512)"/>
<path d="M0 0 C5.28 0 10.56 0 16 0 C16 5.28 16 10.56 16 16 C10.72 16 5.44 16 0 16 C0 10.72 0 5.44 0 0 Z " fill="#9E4D02" transform="translate(336,496)"/>
<path d="M0 0 C5.28 0 10.56 0 16 0 C16 5.28 16 10.56 16 16 C10.72 16 5.44 16 0 16 C0 10.72 0 5.44 0 0 Z " fill="#381F09" transform="translate(304,496)"/>
<path d="M0 0 C5.28 0 10.56 0 16 0 C16 5.28 16 10.56 16 16 C10.72 16 5.44 16 0 16 C0 10.72 0 5.44 0 0 Z " fill="#FF0000" transform="translate(272,496)"/>
<path d="M0 0 C5.28 0 10.56 0 16 0 C16 5.28 16 10.56 16 16 C10.72 16 5.44 16 0 16 C0 10.72 0 5.44 0 0 Z " fill="#381F09" transform="translate(256,496)"/>
<path d="M0 0 C5.28 0 10.56 0 16 0 C16 5.28 16 10.56 16 16 C10.72 16 5.44 16 0 16 C0 10.72 0 5.44 0 0 Z " fill="#381F09" transform="translate(208,496)"/>
<path d="M0 0 C5.28 0 10.56 0 16 0 C16 5.28 16 10.56 16 16 C10.72 16 5.44 16 0 16 C0 10.72 0 5.44 0 0 Z " fill="#FF0000" transform="translate(112,496)"/>
<path d="M0 0 C5.28 0 10.56 0 16 0 C16 5.28 16 10.56 16 16 C10.72 16 5.44 16 0 16 C0 10.72 0 5.44 0 0 Z " fill="#381F09" transform="translate(80,496)"/>
<path d="M0 0 C5.28 0 10.56 0 16 0 C16 5.28 16 10.56 16 16 C10.72 16 5.44 16 0 16 C0 10.72 0 5.44 0 0 Z " fill="#381F09" transform="translate(16,496)"/>
<path d="M0 0 C5.28 0 10.56 0 16 0 C16 5.28 16 10.56 16 16 C10.72 16 5.44 16 0 16 C0 10.72 0 5.44 0 0 Z " fill="#FF0000" transform="translate(304,480)"/>
<path d="M0 0 C5.28 0 10.56 0 16 0 C16 5.28 16 10.56 16 16 C10.72 16 5.44 16 0 16 C0 10.72 0 5.44 0 0 Z " fill="#9E4D02" transform="translate(272,480)"/>
<path d="M0 0 C5.28 0 10.56 0 16 0 C16 5.28 16 10.56 16 16 C10.72 16 5.44 16 0 16 C0 10.72 0 5.44 0 0 Z " fill="#9E4D02" transform="translate(208,480)"/>
<path d="M0 0 C5.28 0 10.56 0 16 0 C16 5.28 16 10.56 16 16 C10.72 16 5.44 16 0 16 C0 10.72 0 5.44 0 0 Z " fill="#FF0000" transform="translate(176,480)"/>
<path d="M0 0 C5.28 0 10.56 0 16 0 C16 5.28 16 10.56 16 16 C10.72 16 5.44 16 0 16 C0 10.72 0 5.44 0 0 Z " fill="#754315" transform="translate(112,480)"/>
<path d="M0 0 C5.28 0 10.56 0 16 0 C16 5.28 16 10.56 16 16 C10.72 16 5.44 16 0 16 C0 10.72 0 5.44 0 0 Z " fill="#754315" transform="translate(64,480)"/>
<path d="M0 0 C5.28 0 10.56 0 16 0 C16 5.28 16 10.56 16 16 C10.72 16 5.44 16 0 16 C0 10.72 0 5.44 0 0 Z " fill="#9E4D02" transform="translate(16,480)"/>
<path d="M0 0 C5.28 0 10.56 0 16 0 C16 5.28 16 10.56 16 16 C10.72 16 5.44 16 0 16 C0 10.72 0 5.44 0 0 Z " fill="#56300D" transform="translate(304,464)"/>
<path d="M0 0 C5.28 0 10.56 0 16 0 C16 5.28 16 10.56 16 16 C10.72 16 5.44 16 0 16 C0 10.72 0 5.44 0 0 Z " fill="#381F09" transform="translate(240,464)"/>
<path d="M0 0 C5.28 0 10.56 0 16 0 C16 5.28 16 10.56 16 16 C10.72 16 5.44 16 0 16 C0 10.72 0 5.44 0 0 Z " fill="#754315" transform="translate(160,464)"/>
<path d="M0 0 C5.28 0 10.56 0 16 0 C16 5.28 16 10.56 16 16 C10.72 16 5.44 16 0 16 C0 10.72 0 5.44 0 0 Z " fill="#9E4D02" transform="translate(112,464)"/>
<path d="M0 0 C5.28 0 10.56 0 16 0 C16 5.28 16 10.56 16 16 C10.72 16 5.44 16 0 16 C0 10.72 0 5.44 0 0 Z " fill="#381F09" transform="translate(48,464)"/>
<path d="M0 0 C5.28 0 10.56 0 16 0 C16 5.28 16 10.56 16 16 C10.72 16 5.44 16 0 16 C0 10.72 0 5.44 0 0 Z " fill="#9E4D02" transform="translate(304,448)"/>
<path d="M0 0 C5.28 0 10.56 0 16 0 C16 5.28 16 10.56 16 16 C10.72 16 5.44 16 0 16 C0 10.72 0 5.44 0 0 Z " fill="#381F09" transform="translate(144,448)"/>
<path d="M0 0 C5.28 0 10.56 0 16 0 C16 5.28 16 10.56 16 16 C10.72 16 5.44 16 0 16 C0 10.72 0 5.44 0 0 Z " fill="#381F09" transform="translate(64,448)"/>
<path d="M0 0 C5.28 0 10.56 0 16 0 C16 5.28 16 10.56 16 16 C10.72 16 5.44 16 0 16 C0 10.72 0 5.44 0 0 Z " fill="#FF0000" transform="translate(48,448)"/>
<path d="M0 0 C5.28 0 10.56 0 16 0 C16 5.28 16 10.56 16 16 C10.72 16 5.44 16 0 16 C0 10.72 0 5.44 0 0 Z " fill="#FF0000" transform="translate(272,432)"/>
<path d="M0 0 C5.28 0 10.56 0 16 0 C16 5.28 16 10.56 16 16 C10.72 16 5.44 16 0 16 C0 10.72 0 5.44 0 0 Z " fill="#754315" transform="translate(224,432)"/>
<path d="M0 0 C5.28 0 10.56 0 16 0 C16 5.28 16 10.56 16 16 C10.72 16 5.44 16 0 16 C0 10.72 0 5.44 0 0 Z " fill="#381F09" transform="translate(176,432)"/>
<path d="M0 0 C5.28 0 10.56 0 16 0 C16 5.28 16 10.56 16 16 C10.72 16 5.44 16 0 16 C0 10.72 0 5.44 0 0 Z " fill="#9E4D02" transform="translate(144,432)"/>
<path d="M0 0 C5.28 0 10.56 0 16 0 C16 5.28 16 10.56 16 16 C10.72 16 5.44 16 0 16 C0 10.72 0 5.44 0 0 Z " fill="#9E4D02" transform="translate(48,432)"/>
<path d="M0 0 C5.28 0 10.56 0 16 0 C16 5.28 16 10.56 16 16 C10.72 16 5.44 16 0 16 C0 10.72 0 5.44 0 0 Z " fill="#9E4D02" transform="translate(224,416)"/>
<path d="M0 0 C5.28 0 10.56 0 16 0 C16 5.28 16 10.56 16 16 C10.72 16 5.44 16 0 16 C0 10.72 0 5.44 0 0 Z " fill="#381F09" transform="translate(192,416)"/>
<path d="M0 0 C5.28 0 10.56 0 16 0 C16 5.28 16 10.56 16 16 C10.72 16 5.44 16 0 16 C0 10.72 0 5.44 0 0 Z " fill="#381F09" transform="translate(96,416)"/>
<path d="M0 0 C5.28 0 10.56 0 16 0 C16 5.28 16 10.56 16 16 C10.72 16 5.44 16 0 16 C0 10.72 0 5.44 0 0 Z " fill="#9E4D02" transform="translate(192,400)"/>
<path d="M0 0 C5.28 0 10.56 0 16 0 C16 5.28 16 10.56 16 16 C10.72 16 5.44 16 0 16 C0 10.72 0 5.44 0 0 Z " fill="#381F09" transform="translate(176,400)"/>
<path d="M0 0 C5.28 0 10.56 0 16 0 C16 5.28 16 10.56 16 16 C10.72 16 5.44 16 0 16 C0 10.72 0 5.44 0 0 Z " fill="#9E4D02" transform="translate(144,400)"/>
<path d="M0 0 C5.28 0 10.56 0 16 0 C16 5.28 16 10.56 16 16 C10.72 16 5.44 16 0 16 C0 10.72 0 5.44 0 0 Z " fill="#9E4D02" transform="translate(96,400)"/>
<path d="M0 0 C5.28 0 10.56 0 16 0 C16 5.28 16 10.56 16 16 C10.72 16 5.44 16 0 16 C0 10.72 0 5.44 0 0 Z " fill="#000000" transform="translate(224,384)"/>
<path d="M0 0 C5.28 0 10.56 0 16 0 C16 5.28 16 10.56 16 16 C10.72 16 5.44 16 0 16 C0 10.72 0 5.44 0 0 Z " fill="#9E4D02" transform="translate(208,384)"/>
<path d="M0 0 C5.28 0 10.56 0 16 0 C16 5.28 16 10.56 16 16 C10.72 16 5.44 16 0 16 C0 10.72 0 5.44 0 0 Z " fill="#9E4D02" transform="translate(160,384)"/>
<path d="M0 0 C5.28 0 10.56 0 16 0 C16 5.28 16 10.56 16 16 C10.72 16 5.44 16 0 16 C0 10.72 0 5.44 0 0 Z " fill="#AFA09A" transform="translate(288,368)"/>
<path d="M0 0 C5.28 0 10.56 0 16 0 C16 5.28 16 10.56 16 16 C10.72 16 5.44 16 0 16 C0 10.72 0 5.44 0 0 Z " fill="#AFA09A" transform="translate(336,288)"/>
<path d="M0 0 C5.28 0 10.56 0 16 0 C16 5.28 16 10.56 16 16 C10.72 16 5.44 16 0 16 C0 10.72 0 5.44 0 0 Z " fill="#AFA09A" transform="translate(288,288)"/>
<path d="M0 0 C5.28 0 10.56 0 16 0 C16 5.28 16 10.56 16 16 C10.72 16 5.44 16 0 16 C0 10.72 0 5.44 0 0 Z " fill="#A38BAA" transform="translate(272,256)"/>
<path d="M0 0 C5.28 0 10.56 0 16 0 C16 5.28 16 10.56 16 16 C10.72 16 5.44 16 0 16 C0 10.72 0 5.44 0 0 Z " fill="#000000" transform="translate(256,256)"/>
<path d="M0 0 C5.28 0 10.56 0 16 0 C16 5.28 16 10.56 16 16 C10.72 16 5.44 16 0 16 C0 10.72 0 5.44 0 0 Z " fill="#000000" transform="translate(96,256)"/>
<path d="M0 0 C5.28 0 10.56 0 16 0 C16 5.28 16 10.56 16 16 C10.72 16 5.44 16 0 16 C0 10.72 0 5.44 0 0 Z " fill="#FF0000" transform="translate(320,112)"/>
<path d="M0 0 C5.28 0 10.56 0 16 0 C16 5.28 16 10.56 16 16 C10.72 16 5.44 16 0 16 C0 10.72 0 5.44 0 0 Z " fill="#BCB689" transform="translate(96,112)"/>
<path d="M0 0 C5.28 0 10.56 0 16 0 C16 5.28 16 10.56 16 16 C10.72 16 5.44 16 0 16 C0 10.72 0 5.44 0 0 Z " fill="#FF0000" transform="translate(512,96)"/>
<path d="M0 0 C5.28 0 10.56 0 16 0 C16 5.28 16 10.56 16 16 C10.72 16 5.44 16 0 16 C0 10.72 0 5.44 0 0 Z " fill="#FF0000" transform="translate(464,96)"/>
<path d="M0 0 C5.28 0 10.56 0 16 0 C16 5.28 16 10.56 16 16 C10.72 16 5.44 16 0 16 C0 10.72 0 5.44 0 0 Z " fill="#FF0000" transform="translate(416,96)"/>
<path d="M0 0 C5.28 0 10.56 0 16 0 C16 5.28 16 10.56 16 16 C10.72 16 5.44 16 0 16 C0 10.72 0 5.44 0 0 Z " fill="#FF0000" transform="translate(368,96)"/>
<path d="M0 0 C5.28 0 10.56 0 16 0 C16 5.28 16 10.56 16 16 C10.72 16 5.44 16 0 16 C0 10.72 0 5.44 0 0 Z " fill="#FF0000" transform="translate(272,96)"/>
<path d="M0 0 C5.28 0 10.56 0 16 0 C16 5.28 16 10.56 16 16 C10.72 16 5.44 16 0 16 C0 10.72 0 5.44 0 0 Z " fill="#8C6BCC" transform="translate(256,96)"/>
<path d="M0 0 C5.28 0 10.56 0 16 0 C16 5.28 16 10.56 16 16 C10.72 16 5.44 16 0 16 C0 10.72 0 5.44 0 0 Z " fill="#FF0000" transform="translate(80,96)"/>
<path d="M0 0 C5.28 0 10.56 0 16 0 C16 5.28 16 10.56 16 16 C10.72 16 5.44 16 0 16 C0 10.72 0 5.44 0 0 Z " fill="#FF0000" transform="translate(32,96)"/>
<path d="M0 0 C5.28 0 10.56 0 16 0 C16 5.28 16 10.56 16 16 C10.72 16 5.44 16 0 16 C0 10.72 0 5.44 0 0 Z " fill="#FF0000" transform="translate(320,80)"/>
<path d="M0 0 C5.28 0 10.56 0 16 0 C16 5.28 16 10.56 16 16 C10.72 16 5.44 16 0 16 C0 10.72 0 5.44 0 0 Z " fill="#CFFF70" transform="translate(192,80)"/>
<path d="M0 0 C5.28 0 10.56 0 16 0 C16 5.28 16 10.56 16 16 C10.72 16 5.44 16 0 16 C0 10.72 0 5.44 0 0 Z " fill="#BCB689" transform="translate(96,80)"/>
<path d="M0 0 C5.28 0 10.56 0 16 0 C16 5.28 16 10.56 16 16 C10.72 16 5.44 16 0 16 C0 10.72 0 5.44 0 0 Z " fill="#000000" transform="translate(224,64)"/>
<path d="M0 0 C5.28 0 10.56 0 16 0 C16 5.28 16 10.56 16 16 C10.72 16 5.44 16 0 16 C0 10.72 0 5.44 0 0 Z " fill="#000000" transform="translate(128,64)"/>
<path d="M0 0 C5.28 0 10.56 0 16 0 C16 5.28 16 10.56 16 16 C10.72 16 5.44 16 0 16 C0 10.72 0 5.44 0 0 Z " fill="#000000" transform="translate(208,48)"/>
<path d="M0 0 C5.28 0 10.56 0 16 0 C16 5.28 16 10.56 16 16 C10.72 16 5.44 16 0 16 C0 10.72 0 5.44 0 0 Z " fill="#CFFF70" transform="translate(192,48)"/>
<path d="M0 0 C5.28 0 10.56 0 16 0 C16 5.28 16 10.56 16 16 C10.72 16 5.44 16 0 16 C0 10.72 0 5.44 0 0 Z " fill="#000000" transform="translate(144,48)"/>
</svg>
