<?xml version="1.0" encoding="UTF-8" standalone="no"?>
<!-- Created with Inkscape (http://www.inkscape.org/) -->

<svg
   width="44.074383mm"
   height="9.8724174mm"
   viewBox="0 0 44.074383 9.8724174"
   version="1.1"
   id="svg5"
   xml:space="preserve"
   sodipodi:docname="pipe.svg"
   inkscape:version="1.4.2 (f4327f4, 2025-05-13)"
   inkscape:export-filename="pipe.png"
   inkscape:export-xdpi="96"
   inkscape:export-ydpi="96"
   xmlns:inkscape="http://www.inkscape.org/namespaces/inkscape"
   xmlns:sodipodi="http://sodipodi.sourceforge.net/DTD/sodipodi-0.dtd"
   xmlns:xlink="http://www.w3.org/1999/xlink"
   xmlns="http://www.w3.org/2000/svg"
   xmlns:svg="http://www.w3.org/2000/svg"><sodipodi:namedview
     id="namedview1"
     pagecolor="#ffffff"
     bordercolor="#000000"
     borderopacity="0.25"
     inkscape:showpageshadow="2"
     inkscape:pageopacity="0.0"
     inkscape:pagecheckerboard="0"
     inkscape:deskcolor="#d1d1d1"
     inkscape:document-units="mm"
     inkscape:zoom="7.6322203"
     inkscape:cx="65.118666"
     inkscape:cy="22.994619"
     inkscape:window-width="1920"
     inkscape:window-height="1017"
     inkscape:window-x="1912"
     inkscape:window-y="-8"
     inkscape:window-maximized="1"
     inkscape:current-layer="layer1"><inkscape:page
       x="0"
       y="0"
       width="44.074387"
       height="9.8724174"
       id="page2"
       margin="0"
       bleed="0" /></sodipodi:namedview><defs
     id="defs2"><linearGradient
       id="linearGradient10682"><stop
         style="stop-color:#895fcc;stop-opacity:1;"
         offset="0.21947132"
         id="stop10678" /><stop
         style="stop-color:#c9cc78;stop-opacity:1;"
         offset="0.63312155"
         id="stop10680" /></linearGradient><linearGradient
       id="linearGradient10513"><stop
         style="stop-color:#895fcc;stop-opacity:1;"
         offset="0"
         id="stop10509" /><stop
         style="stop-color:#000000;stop-opacity:1;"
         offset="1"
         id="stop10511" /></linearGradient><linearGradient
       xlink:href="#linearGradient10513"
       id="linearGradient10515"
       x1="125.71152"
       y1="11.634583"
       x2="137.96283"
       y2="11.634583"
       gradientUnits="userSpaceOnUse" /><linearGradient
       xlink:href="#linearGradient10682"
       id="linearGradient10684"
       x1="125.71152"
       y1="11.634583"
       x2="137.96283"
       y2="11.634583"
       gradientUnits="userSpaceOnUse" /><clipPath
       clipPathUnits="userSpaceOnUse"
       id="clipPath497"><circle
         style="opacity:0.428325;fill:#5d9f55;fill-opacity:0.284926;stroke:#000000;stroke-width:0;stroke-miterlimit:3;stroke-dasharray:none;stroke-opacity:0"
         id="circle497"
         cy="279.29688"
         cx="279.98865"
         r="280.00003" /></clipPath></defs><g
     id="layer1"
     transform="translate(-111.30297,-6.548158)"><rect
       style="fill:#ffffff;fill-rule:evenodd;stroke:#c9cc78;stroke-width:0.499999;stroke-linecap:round;stroke-miterlimit:3.8;stroke-dasharray:none;stroke-opacity:1;paint-order:markers fill stroke"
       id="rect11704"
       width="53.28796"
       height="13.195013"
       x="106.2366"
       y="4.5379634" /><rect
       style="fill:url(#linearGradient10684);fill-opacity:1;fill-rule:evenodd;stroke:url(#linearGradient10515);stroke-width:0;stroke-linecap:round;stroke-miterlimit:3.8;stroke-dasharray:none;stroke-opacity:0.527237;paint-order:markers fill stroke"
       id="rect9745"
       width="12.25131"
       height="1.4999993"
       x="125.71152"
       y="10.884583" /><path
       style="fill:none;stroke:#c9cc78;stroke-width:0.5;stroke-linecap:butt;stroke-linejoin:miter;stroke-dasharray:none;stroke-opacity:1"
       d="m 137.73679,11.143766 c 3.21695,-0.04241 1.63037,-1.786904 4.73611,-1.8647216"
       id="path9851" /><path
       style="fill:none;stroke:#c9cc78;stroke-width:0.5;stroke-linecap:butt;stroke-linejoin:miter;stroke-dasharray:none;stroke-opacity:1"
       d="m 142.47587,14.00035 c -3.21695,-0.04241 -1.63037,-1.786904 -4.73611,-1.864722"
       id="path9851-0" /><path
       style="fill:none;stroke:#c9cc78;stroke-width:0.5;stroke-linecap:butt;stroke-linejoin:miter;stroke-dasharray:none;stroke-opacity:1"
       d="m 137.58378,11.639075 5.0451,0.0013"
       id="path9853" /><path
       style="fill:none;stroke:#895fcc;stroke-width:0.5;stroke-linecap:butt;stroke-linejoin:miter;stroke-dasharray:none;stroke-opacity:1"
       d="m 125.95101,11.136601 c -3.21695,-0.04241 -1.63037,-1.7869038 -4.73611,-1.8647214"
       id="path9851-6" /><path
       style="fill:none;stroke:#895fcc;stroke-width:0.5;stroke-linecap:butt;stroke-linejoin:miter;stroke-dasharray:none;stroke-opacity:1"
       d="m 121.21193,13.993185 c 3.21695,-0.04241 1.63037,-1.786904 4.73611,-1.864722"
       id="path9851-0-2" /><path
       style="fill:none;stroke:#895fcc;stroke-width:0.5;stroke-linecap:butt;stroke-linejoin:miter;stroke-dasharray:none;stroke-opacity:1"
       d="m 126.10402,11.63191 -5.0451,0.0013"
       id="path9853-6" /><text
       xml:space="preserve"
       style="font-size:0.705556px;line-height:1.25;font-family:sans-serif;-inkscape-font-specification:sans-serif;stroke-width:0.264583"
       x="111.23371"
       y="9.4851942"
       id="text10076"><tspan
         id="tspan10074"
         style="font-size:0.705556px;stroke-width:0.264583"
         x="111.23371"
         y="9.4851942">Reference genome (FASTA)</tspan></text><text
       xml:space="preserve"
       style="font-size:0.705556px;line-height:1.25;font-family:sans-serif;-inkscape-font-specification:sans-serif;stroke-width:0.264583"
       x="142.82962"
       y="14.294128"
       id="text10076-7"><tspan
         id="tspan10074-9"
         style="font-size:0.705556px;stroke-width:0.264583"
         x="142.82962"
         y="14.294128">Raw FASTA sequences</tspan></text><text
       xml:space="preserve"
       style="font-size:0.705556px;line-height:1.25;font-family:sans-serif;-inkscape-font-specification:sans-serif;stroke-width:0.264583"
       x="113.40562"
       y="11.867596"
       id="text10080"><tspan
         id="tspan10078"
         style="font-size:0.705556px;stroke-width:0.264583"
         x="113.40562"
         y="11.867596">Demo-genetic model</tspan></text><text
       xml:space="preserve"
       style="font-size:0.705556px;line-height:1.25;font-family:sans-serif;-inkscape-font-specification:sans-serif;text-align:end;text-anchor:end;stroke-width:0.264583"
       x="120.82427"
       y="13.762506"
       id="text10084"><tspan
         style="font-size:0.705556px;text-align:end;text-anchor:end;stroke-width:0.264583"
         x="120.82427"
         y="13.762506"
         id="tspan10088">Structural variants : </tspan><tspan
         style="font-size:0.705556px;text-align:end;text-anchor:end;stroke-width:0.264583"
         x="120.82427"
         y="14.64445"
         id="tspan10183">types, size distribution</tspan></text><text
       xml:space="preserve"
       style="font-size:0.705556px;line-height:1.25;font-family:sans-serif;-inkscape-font-specification:sans-serif;stroke-width:0.264583"
       x="142.83823"
       y="11.392715"
       id="text10194"><tspan
         id="tspan10192"
         style="font-size:0.705556px;stroke-width:0.264583"
         x="142.83823"
         y="11.392715">Counts for each variant type</tspan><tspan
         style="font-size:0.705556px;stroke-width:0.264583"
         x="142.83823"
         y="12.27466"
         id="tspan10196">(IN/DEL, INV, TDUP + SNP)</tspan></text><text
       xml:space="preserve"
       style="font-size:0.705556px;line-height:1.25;font-family:sans-serif;-inkscape-font-specification:sans-serif;stroke-width:0.264583"
       x="142.85236"
       y="8.8760481"
       id="text10202"><tspan
         style="font-size:0.705556px;stroke-width:0.264583"
         x="142.85236"
         y="8.8760481"
         id="tspan10204">Simulated Pangenome (GFA) </tspan><tspan
         style="font-size:0.705556px;stroke-width:0.264583"
         x="142.85236"
         y="9.7579927"
         id="tspan10208">+ realistic population + nested SVs </tspan></text><g
       id="g1"
       transform="matrix(0.01762857,0,0,0.01762857,126.7245,6.548158)"
       style="opacity:1"
       clip-path="url(#clipPath497)"><path
         d="m 0,0 c 184.8,0 369.6,0 560,0 0,184.8 0,369.6 0,560 -184.8,0 -369.6,0 -560,0 C 0,375.2 0,190.4 0,0 Z"
         fill="#895fcc"
         id="path1" /><path
         d="m 0,0 c 121.44,0 242.88,0 368,0 0,184.8 0,369.6 0,560 -58.08,0 -116.16,0 -176,0 0,-47.52 0,-95.04 0,-144 26.4,0 52.8,0 80,0 0,-10.56 0,-21.12 0,-32 5.28,0 10.56,0 16,0 0,10.56 0,21.12 0,32 21.12,0 42.24,0 64,0 0,-5.28 0,-10.56 0,-16 -5.28,0 -10.56,0 -16,0 0,-5.28 0,-10.56 0,-16 -5.28,0 -10.56,0 -16,0 0,-5.28 0,-10.56 0,-16 10.56,0 21.12,0 32,0 0,-5.28 0,-10.56 0,-16 -21.12,0 -42.24,0 -64,0 0,-52.8 0,-105.6 0,-160 -10.56,0 -21.12,0 -32,0 0,-5.28 0,-10.56 0,-16 -5.28,0 -10.56,0 -16,0 0,-5.28 0,-10.56 0,-16 15.84,0 31.68,0 48,0 0,-5.28 0,-10.56 0,-16 -5.28,0 -10.56,0 -16,0 0,-5.28 0,-10.56 0,-16 -15.84,0 -31.68,0 -48,0 0,5.28 0,10.56 0,16 -5.28,0 -10.56,0 -16,0 0,5.28 0,10.56 0,16 -5.28,0 -10.56,0 -16,0 0,5.28 0,10.56 0,16 -5.28,0 -10.56,0 -16,0 0,5.28 0,10.56 0,16 -5.28,0 -10.56,0 -16,0 0,-5.28 0,-10.56 0,-16 -5.28,0 -10.56,0 -16,0 0,-5.28 0,-10.56 0,-16 -10.56,0 -21.12,0 -32,0 0,31.68 0,63.36 0,96 10.56,0 21.12,0 32,0 0,-15.84 0,-31.68 0,-48 5.28,0 10.56,0 16,0 0,5.28 0,10.56 0,16 5.28,0 10.56,0 16,0 0,-5.28 0,-10.56 0,-16 5.28,0 10.56,0 16,0 0,21.12 0,42.24 0,64 -36.96,0 -73.92,0 -112,0 0,-5.28 0,-10.56 0,-16 5.28,0 10.56,0 16,0 0,-26.4 0,-52.8 0,-80 -5.28,0 -10.56,0 -16,0 0,10.56 0,21.12 0,32 -5.28,0 -10.56,0 -16,0 0,15.84 0,31.68 0,48 -10.56,0 -21.12,0 -32,0 0,5.28 0,10.56 0,16 -10.56,0 -21.12,0 -32,0 0,15.84 0,31.68 0,48 -5.28,0 -10.56,0 -16,0 0,-15.84 0,-31.68 0,-48 -5.28,0 -10.56,0 -16,0 0,-5.28 0,-10.56 0,-16 -10.56,0 -21.12,0 -32,0 0,-10.56 0,-21.12 0,-32 -10.56,0 -21.12,0 -32,0 0,-31.68 0,-63.36 0,-96 10.56,0 21.12,0 32,0 0,-15.84 0,-31.68 0,-48 5.28,0 10.56,0 16,0 0,-5.28 0,-10.56 0,-16 5.28,0 10.56,0 16,0 0,-5.28 0,-10.56 0,-16 15.84,0 31.68,0 48,0 0,-5.28 0,-10.56 0,-16 C 10.72,32 5.44,32 0,32 0,21.44 0,10.88 0,0 Z"
         fill="#bcb689"
         transform="translate(192)"
         id="path2" /><path
         d="m 0,0 c 15.84,0 31.68,0 48,0 0,5.28 0,10.56 0,16 5.28,0 10.56,0 16,0 0,5.28 0,10.56 0,16 -15.84,0 -31.68,0 -48,0 0,5.28 0,10.56 0,16 5.28,0 10.56,0 16,0 0,5.28 0,10.56 0,16 10.56,0 21.12,0 32,0 0,52.8 0,105.6 0,160 21.12,0 42.24,0 64,0 0,5.28 0,10.56 0,16 -10.56,0 -21.12,0 -32,0 0,5.28 0,10.56 0,16 5.28,0 10.56,0 16,0 0,5.28 0,10.56 0,16 5.28,0 10.56,0 16,0 0,5.28 0,10.56 0,16 -21.12,0 -42.24,0 -64,0 0,-10.56 0,-21.12 0,-32 -5.28,0 -10.56,0 -16,0 0,10.56 0,21.12 0,32 -26.4,0 -52.8,0 -80,0 0,-15.84 0,-31.68 0,-48 -5.28,0 -10.56,0 -16,0 0,15.84 0,31.68 0,48 -36.96,0 -73.92,0 -112,0 0,5.28 0,10.56 0,16 10.56,0 21.12,0 32,0 0,5.28 0,10.56 0,16 10.56,0 21.12,0 32,0 0,15.84 0,31.68 0,48 10.56,0 21.12,0 32,0 0,10.56 0,21.12 0,32 -5.28,0 -10.56,0 -16,0 0,-5.28 0,-10.56 0,-16 -5.28,0 -10.56,0 -16,0 0,5.28 0,10.56 0,16 -5.28,0 -10.56,0 -16,0 0,-21.12 0,-42.24 0,-64 -15.84,0 -31.68,0 -48,0 0,5.28 0,10.56 0,16 10.56,0 21.12,0 32,0 0,15.84 0,31.68 0,48 -5.28,0 -10.56,0 -16,0 0,-5.28 0,-10.56 0,-16 -5.28,0 -10.56,0 -16,0 0,-5.28 0,-10.56 0,-16 -10.56,0 -21.12,0 -32,0 0,10.56 0,21.12 0,32 -5.28,0 -10.56,0 -16,0 0,-15.84 0,-31.68 0,-48 10.56,0 21.12,0 32,0 0,-10.56 0,-21.12 0,-32 -5.28,0 -10.56,0 -16,0 0,-10.56 0,-21.12 0,-32 -5.28,0 -10.56,0 -16,0 0,5.28 0,10.56 0,16 -5.28,0 -10.56,0 -16,0 0,-5.28 0,-10.56 0,-16 -26.4,0 -52.8,0 -80,0 0,5.28 0,10.56 0,16 15.84,0 31.68,0 48,0 0,10.56 0,21.12 0,32 10.56,0 21.12,0 32,0 0,21.12 0,42.24 0,64 -5.28,0 -10.56,0 -16,0 0,-5.28 0,-10.56 0,-16 -5.28,0 -10.56,0 -16,0 0,-5.28 0,-10.56 0,-16 5.28,0 10.56,0 16,0 0,-5.28 0,-10.56 0,-16 -15.84,0 -31.68,0 -48,0 0,15.84 0,31.68 0,48 -5.28,0 -10.56,0 -16,0 0,-21.12 0,-42.24 0,-64 10.56,0 21.12,0 32,0 0,-5.28 0,-10.56 0,-16 -21.12,0 -42.24,0 -64,0 0,5.28 0,10.56 0,16 -5.28,0 -10.56,0 -16,0 0,5.28 0,10.56 0,16 10.56,0 21.12,0 32,0 0,15.84 0,31.68 0,48 -5.28,0 -10.56,0 -16,0 0,-10.56 0,-21.12 0,-32 -15.84,0 -31.68,0 -48,0 0,10.56 0,21.12 0,32 -5.28,0 -10.56,0 -16,0 0,-15.84 0,-31.68 0,-48 10.56,0 21.12,0 32,0 0,-15.84 0,-31.68 0,-48 15.84,0 31.68,0 48,0 0,-10.56 0,-21.12 0,-32 10.56,0 21.12,0 32,0 0,-5.28 0,-10.56 0,-16 5.28,0 10.56,0 16,0 0,-10.56 0,-21.12 0,-32 5.28,0 10.56,0 16,0 0,-21.12 0,-42.24 0,-64 -15.84,0 -31.68,0 -48,0 0,-5.28 0,-10.56 0,-16 -5.28,0 -10.56,0 -16,0 0,-5.28 0,-10.56 0,-16 -5.28,0 -10.56,0 -16,0 0,-26.4 0,-52.8 0,-80 5.28,0 10.56,0 16,0 0,15.84 0,31.68 0,48 10.56,0 21.12,0 32,0 0,10.56 0,21.12 0,32 10.56,0 21.12,0 32,0 0,5.28 0,10.56 0,16 5.28,0 10.56,0 16,0 0,15.84 0,31.68 0,48 5.28,0 10.56,0 16,0 0,-15.84 0,-31.68 0,-48 10.56,0 21.12,0 32,0 0,-5.28 0,-10.56 0,-16 10.56,0 21.12,0 32,0 0,-15.84 0,-31.68 0,-48 5.28,0 10.56,0 16,0 0,-10.56 0,-21.12 0,-32 5.28,0 10.56,0 16,0 0,26.4 0,52.8 0,80 -5.28,0 -10.56,0 -16,0 0,5.28 0,10.56 0,16 36.96,0 73.92,0 112,0 0,-21.12 0,-42.24 0,-64 -5.28,0 -10.56,0 -16,0 0,5.28 0,10.56 0,16 -5.28,0 -10.56,0 -16,0 0,-5.28 0,-10.56 0,-16 -5.28,0 -10.56,0 -16,0 0,15.84 0,31.68 0,48 -10.56,0 -21.12,0 -32,0 0,-31.68 0,-63.36 0,-96 10.56,0 21.12,0 32,0 0,5.28 0,10.56 0,16 5.28,0 10.56,0 16,0 0,5.28 0,10.56 0,16 5.28,0 10.56,0 16,0 0,-5.28 0,-10.56 0,-16 5.28,0 10.56,0 16,0 0,-5.28 0,-10.56 0,-16 5.28,0 10.56,0 16,0 0,-5.28 0,-10.56 0,-16 5.28,0 10.56,0 16,0 C 0,10.72 0,5.44 0,0 Z"
         fill="#bcb689"
         transform="translate(416,128)"
         id="path3" /><path
         d="m 0,0 c 26.4,0 52.8,0 80,0 0,184.8 0,369.6 0,560 -58.08,0 -116.16,0 -176,0 0,-47.52 0,-95.04 0,-144 26.4,0 52.8,0 80,0 0,-10.56 0,-21.12 0,-32 5.28,0 10.56,0 16,0 0,10.56 0,21.12 0,32 21.12,0 42.24,0 64,0 0,-5.28 0,-10.56 0,-16 -5.28,0 -10.56,0 -16,0 0,-5.28 0,-10.56 0,-16 -5.28,0 -10.56,0 -16,0 0,-5.28 0,-10.56 0,-16 10.56,0 21.12,0 32,0 0,-5.28 0,-10.56 0,-16 -21.12,0 -42.24,0 -64,0 0,-52.8 0,-105.6 0,-160 -10.56,0 -21.12,0 -32,0 0,-5.28 0,-10.56 0,-16 -5.28,0 -10.56,0 -16,0 0,-5.28 0,-10.56 0,-16 15.84,0 31.68,0 48,0 0,-10.56 0,-21.12 0,-32 10.56,0 21.12,0 32,0 0,-5.28 0,-10.56 0,-16 -10.56,0 -21.12,0 -32,0 0,-5.28 0,-10.56 0,-16 10.56,0 21.12,0 32,0 0,-5.28 0,-10.56 0,-16 C 21.44,80 10.88,80 0,80 0,53.6 0,27.2 0,0 Z"
         fill="#c9cc78"
         id="path4"
         transform="translate(480)" /><path
         d="m 0,0 c 5.28,0 10.56,0 16,0 0,15.84 0,31.68 0,48 10.56,0 21.12,0 32,0 0,10.56 0,21.12 0,32 10.56,0 21.12,0 32,0 0,5.28 0,10.56 0,16 5.28,0 10.56,0 16,0 0,15.84 0,31.68 0,48 5.28,0 10.56,0 16,0 0,-15.84 0,-31.68 0,-48 10.56,0 21.12,0 32,0 0,-5.28 0,-10.56 0,-16 10.56,0 21.12,0 32,0 0,-15.84 0,-31.68 0,-48 5.28,0 10.56,0 16,0 0,-10.56 0,-21.12 0,-32 5.28,0 10.56,0 16,0 0,26.4 0,52.8 0,80 -5.28,0 -10.56,0 -16,0 0,5.28 0,10.56 0,16 -5.28,0 -10.56,0 -16,0 0,5.28 0,10.56 0,16 -15.84,0 -31.68,0 -48,0 0,21.12 0,42.24 0,64 5.28,0 10.56,0 16,0 0,10.56 0,21.12 0,32 5.28,0 10.56,0 16,0 0,10.56 0,21.12 0,32 5.28,0 10.56,0 16,0 0,5.28 0,10.56 0,16 10.56,0 21.12,0 32,0 0,5.28 0,10.56 0,16 10.56,0 21.12,0 32,0 0,15.84 0,31.68 0,48 10.56,0 21.12,0 32,0 0,10.56 0,21.12 0,32 -5.28,0 -10.56,0 -16,0 0,-5.28 0,-10.56 0,-16 -5.28,0 -10.56,0 -16,0 0,5.28 0,10.56 0,16 -5.28,0 -10.56,0 -16,0 0,-21.12 0,-42.24 0,-64 -15.84,0 -31.68,0 -48,0 0,5.28 0,10.56 0,16 10.56,0 21.12,0 32,0 0,15.84 0,31.68 0,48 -5.28,0 -10.56,0 -16,0 0,-5.28 0,-10.56 0,-16 -5.28,0 -10.56,0 -16,0 0,-5.28 0,-10.56 0,-16 -10.56,0 -21.12,0 -32,0 0,10.56 0,21.12 0,32 -5.28,0 -10.56,0 -16,0 0,-15.84 0,-31.68 0,-48 10.56,0 21.12,0 32,0 0,-10.56 0,-21.12 0,-32 -5.28,0 -10.56,0 -16,0 0,-10.56 0,-21.12 0,-32 -5.28,0 -10.56,0 -16,0 0,5.28 0,10.56 0,16 -5.28,0 -10.56,0 -16,0 0,-5.28 0,-10.56 0,-16 -26.4,0 -52.8,0 -80,0 0,5.28 0,10.56 0,16 15.84,0 31.68,0 48,0 0,10.56 0,21.12 0,32 10.56,0 21.12,0 32,0 0,21.12 0,42.24 0,64 -5.28,0 -10.56,0 -16,0 0,-5.28 0,-10.56 0,-16 -5.28,0 -10.56,0 -16,0 0,-5.28 0,-10.56 0,-16 5.28,0 10.56,0 16,0 0,-5.28 0,-10.56 0,-16 -15.84,0 -31.68,0 -48,0 0,15.84 0,31.68 0,48 -5.28,0 -10.56,0 -16,0 0,-21.12 0,-42.24 0,-64 10.56,0 21.12,0 32,0 0,-5.28 0,-10.56 0,-16 -21.12,0 -42.24,0 -64,0 0,5.28 0,10.56 0,16 -5.28,0 -10.56,0 -16,0 0,5.28 0,10.56 0,16 10.56,0 21.12,0 32,0 0,15.84 0,31.68 0,48 -5.28,0 -10.56,0 -16,0 0,-10.56 0,-21.12 0,-32 -15.84,0 -31.68,0 -48,0 0,10.56 0,21.12 0,32 -5.28,0 -10.56,0 -16,0 0,-15.84 0,-31.68 0,-48 10.56,0 21.12,0 32,0 0,-15.84 0,-31.68 0,-48 15.84,0 31.68,0 48,0 0,-10.56 0,-21.12 0,-32 10.56,0 21.12,0 32,0 0,-5.28 0,-10.56 0,-16 5.28,0 10.56,0 16,0 0,-10.56 0,-21.12 0,-32 5.28,0 10.56,0 16,0 0,-21.12 0,-42.24 0,-64 -15.84,0 -31.68,0 -48,0 0,-5.28 0,-10.56 0,-16 -5.28,0 -10.56,0 -16,0 0,-5.28 0,-10.56 0,-16 C 10.72,80 5.44,80 0,80 0,53.6 0,27.2 0,0 Z"
         fill="#754315"
         transform="translate(80,176)"
         id="path5" /><path
         d="m 0,0 c 21.12,0 42.24,0 64,0 0,5.28 0,10.56 0,16 5.28,0 10.56,0 16,0 0,5.28 0,10.56 0,16 5.28,0 10.56,0 16,0 0,15.84 0,31.68 0,48 5.28,0 10.56,0 16,0 0,26.4 0,52.8 0,80 -5.28,0 -10.56,0 -16,0 0,15.84 0,31.68 0,48 -10.56,0 -21.12,0 -32,0 0,5.28 0,10.56 0,16 -10.56,0 -21.12,0 -32,0 0,15.84 0,31.68 0,48 -5.28,0 -10.56,0 -16,0 0,-15.84 0,-31.68 0,-48 -5.28,0 -10.56,0 -16,0 0,-5.28 0,-10.56 0,-16 -10.56,0 -21.12,0 -32,0 0,-10.56 0,-21.12 0,-32 -10.56,0 -21.12,0 -32,0 0,-31.68 0,-63.36 0,-96 10.56,0 21.12,0 32,0 0,-15.84 0,-31.68 0,-48 5.28,0 10.56,0 16,0 0,-5.28 0,-10.56 0,-16 5.28,0 10.56,0 16,0 C 0,10.72 0,5.44 0,0 Z"
         fill="#8fde5d"
         transform="translate(160,48)"
         id="path6" /><path
         d="m 0,0 c 5.28,0 10.56,0 16,0 0,63.36 0,126.72 0,192 -63.36,0 -126.72,0 -192,0 0,-31.68 0,-63.36 0,-96 -10.56,0 -21.12,0 -32,0 0,-10.56 0,-21.12 0,-32 -15.84,0 -31.68,0 -48,0 0,-5.28 0,-10.56 0,-16 26.4,0 52.8,0 80,0 0,5.28 0,10.56 0,16 5.28,0 10.56,0 16,0 0,-5.28 0,-10.56 0,-16 5.28,0 10.56,0 16,0 0,10.56 0,21.12 0,32 5.28,0 10.56,0 16,0 0,10.56 0,21.12 0,32 -10.56,0 -21.12,0 -32,0 0,15.84 0,31.68 0,48 5.28,0 10.56,0 16,0 0,-10.56 0,-21.12 0,-32 10.56,0 21.12,0 32,0 0,5.28 0,10.56 0,16 5.28,0 10.56,0 16,0 0,5.28 0,10.56 0,16 5.28,0 10.56,0 16,0 0,-15.84 0,-31.68 0,-48 -10.56,0 -21.12,0 -32,0 0,-5.28 0,-10.56 0,-16 15.84,0 31.68,0 48,0 0,21.12 0,42.24 0,64 5.28,0 10.56,0 16,0 0,-5.28 0,-10.56 0,-16 5.28,0 10.56,0 16,0 0,5.28 0,10.56 0,16 5.28,0 10.56,0 16,0 0,-10.56 0,-21.12 0,-32 -10.56,0 -21.12,0 -32,0 0,-15.84 0,-31.68 0,-48 -10.56,0 -21.12,0 -32,0 0,-5.28 0,-10.56 0,-16 -10.56,0 -21.12,0 -32,0 0,-5.28 0,-10.56 0,-16 36.96,0 73.92,0 112,0 C 0,32.16 0,16.32 0,0 Z"
         fill="#afa09a"
         transform="translate(368,368)"
         id="path7" /><path
         d="m 0,0 c 47.52,0 95.04,0 144,0 0,5.28 0,10.56 0,16 -5.28,0 -10.56,0 -16,0 0,26.4 0,52.8 0,80 -5.28,0 -10.56,0 -16,0 0,15.84 0,31.68 0,48 -42.24,0 -84.48,0 -128,0 0,-10.56 0,-21.12 0,-32 -5.28,0 -10.56,0 -16,0 0,-10.56 0,-21.12 0,-32 -5.28,0 -10.56,0 -16,0 0,-21.12 0,-42.24 0,-64 15.84,0 31.68,0 48,0 C 0,10.72 0,5.44 0,0 Z"
         fill="#a38baa"
         transform="translate(256,272)"
         id="path8" /><path
         d="m 0,0 c 31.68,0 63.36,0 96,0 0,26.4 0,52.8 0,80 10.56,0 21.12,0 32,0 0,5.28 0,10.56 0,16 -15.84,0 -31.68,0 -48,0 0,5.28 0,10.56 0,16 15.84,0 31.68,0 48,0 0,5.28 0,10.56 0,16 5.28,0 10.56,0 16,0 0,-5.28 0,-10.56 0,-16 15.84,0 31.68,0 48,0 0,21.12 0,42.24 0,64 -5.28,0 -10.56,0 -16,0 0,5.28 0,10.56 0,16 -5.28,0 -10.56,0 -16,0 0,-5.28 0,-10.56 0,-16 -5.28,0 -10.56,0 -16,0 0,-5.28 0,-10.56 0,-16 -10.56,0 -21.12,0 -32,0 0,31.68 0,63.36 0,96 10.56,0 21.12,0 32,0 0,-15.84 0,-31.68 0,-48 5.28,0 10.56,0 16,0 0,5.28 0,10.56 0,16 5.28,0 10.56,0 16,0 0,-5.28 0,-10.56 0,-16 5.28,0 10.56,0 16,0 0,21.12 0,42.24 0,64 -36.96,0 -73.92,0 -112,0 0,-5.28 0,-10.56 0,-16 5.28,0 10.56,0 16,0 0,-26.4 0,-52.8 0,-80 -5.28,0 -10.56,0 -16,0 0,-15.84 0,-31.68 0,-48 -5.28,0 -10.56,0 -16,0 0,-15.84 0,-31.68 0,-48 -5.28,0 -10.56,0 -16,0 0,-5.28 0,-10.56 0,-16 -5.28,0 -10.56,0 -16,0 0,-5.28 0,-10.56 0,-16 -5.28,0 -10.56,0 -16,0 0,-5.28 0,-10.56 0,-16 C 10.72,32 5.44,32 0,32 0,21.44 0,10.88 0,0 Z"
         fill="#afa09a"
         transform="translate(192)"
         id="path9" /><path
         d="m 0,0 c 63.36,0 126.72,0 192,0 0,10.56 0,21.12 0,32 5.28,0 10.56,0 16,0 0,5.28 0,10.56 0,16 -15.84,0 -31.68,0 -48,0 0,5.28 0,10.56 0,16 -5.28,0 -10.56,0 -16,0 0,5.28 0,10.56 0,16 -5.28,0 -10.56,0 -16,0 0,15.84 0,31.68 0,48 -10.56,0 -21.12,0 -32,0 0,-5.28 0,-10.56 0,-16 -21.12,0 -42.24,0 -64,0 0,5.28 0,10.56 0,16 -10.56,0 -21.12,0 -32,0 C 0,85.76 0,43.52 0,0 Z"
         fill="#895fcc"
         id="path10" /><path
         d="m 0,0 c 5.28,0 10.56,0 16,0 0,58.08 0,116.16 0,176 -31.68,0 -63.36,0 -96,0 0,-47.52 0,-95.04 0,-144 26.4,0 52.8,0 80,0 C 0,21.44 0,10.88 0,0 Z"
         fill="#bcb689"
         transform="translate(464,384)"
         id="path11" /><path
         d="m 0,0 c 15.84,0 31.68,0 48,0 0,5.28 0,10.56 0,16 5.28,0 10.56,0 16,0 0,5.28 0,10.56 0,16 -15.84,0 -31.68,0 -48,0 0,5.28 0,10.56 0,16 5.28,0 10.56,0 16,0 0,5.28 0,10.56 0,16 10.56,0 21.12,0 32,0 0,15.84 0,31.68 0,48 -5.28,0 -10.56,0 -16,0 0,5.28 0,10.56 0,16 -26.4,0 -52.8,0 -80,0 0,-15.84 0,-31.68 0,-48 -5.28,0 -10.56,0 -16,0 0,5.28 0,10.56 0,16 -5.28,0 -10.56,0 -16,0 0,-5.28 0,-10.56 0,-16 -5.28,0 -10.56,0 -16,0 0,15.84 0,31.68 0,48 -10.56,0 -21.12,0 -32,0 0,-31.68 0,-63.36 0,-96 10.56,0 21.12,0 32,0 0,5.28 0,10.56 0,16 5.28,0 10.56,0 16,0 0,5.28 0,10.56 0,16 5.28,0 10.56,0 16,0 0,-5.28 0,-10.56 0,-16 5.28,0 10.56,0 16,0 0,-5.28 0,-10.56 0,-16 5.28,0 10.56,0 16,0 0,-5.28 0,-10.56 0,-16 5.28,0 10.56,0 16,0 C 0,10.72 0,5.44 0,0 Z"
         fill="#381f09"
         transform="translate(416,128)"
         id="path12" /><path
         d="m 0,0 c 26.4,0 52.8,0 80,0 0,5.28 0,10.56 0,16 5.28,0 10.56,0 16,0 0,-5.28 0,-10.56 0,-16 5.28,0 10.56,0 16,0 0,10.56 0,21.12 0,32 5.28,0 10.56,0 16,0 0,10.56 0,21.12 0,32 -10.56,0 -21.12,0 -32,0 0,15.84 0,31.68 0,48 5.28,0 10.56,0 16,0 0,-10.56 0,-21.12 0,-32 10.56,0 21.12,0 32,0 0,5.28 0,10.56 0,16 5.28,0 10.56,0 16,0 0,5.28 0,10.56 0,16 5.28,0 10.56,0 16,0 0,10.56 0,21.12 0,32 -31.68,0 -63.36,0 -96,0 0,-31.68 0,-63.36 0,-96 C 69.44,48 58.88,48 48,48 48,37.44 48,26.88 48,16 32.16,16 16.32,16 0,16 0,10.72 0,5.44 0,0 Z"
         fill="#a38baa"
         transform="translate(112,416)"
         id="path13" /><path
         d="m 0,0 c 31.68,0 63.36,0 96,0 0,26.4 0,52.8 0,80 10.56,0 21.12,0 32,0 0,5.28 0,10.56 0,16 -15.84,0 -31.68,0 -48,0 0,5.28 0,10.56 0,16 15.84,0 31.68,0 48,0 0,5.28 0,10.56 0,16 -10.56,0 -21.12,0 -32,0 0,15.84 0,31.68 0,48 -5.28,0 -10.56,0 -16,0 0,-15.84 0,-31.68 0,-48 -5.28,0 -10.56,0 -16,0 0,-15.84 0,-31.68 0,-48 -5.28,0 -10.56,0 -16,0 0,-5.28 0,-10.56 0,-16 -5.28,0 -10.56,0 -16,0 0,-5.28 0,-10.56 0,-16 -5.28,0 -10.56,0 -16,0 0,-5.28 0,-10.56 0,-16 C 10.72,32 5.44,32 0,32 0,21.44 0,10.88 0,0 Z"
         fill="#a38baa"
         transform="translate(192)"
         id="path14" /><path
         d="m 0,0 c 47.52,0 95.04,0 144,0 0,5.28 0,10.56 0,16 -10.56,0 -21.12,0 -32,0 0,5.28 0,10.56 0,16 5.28,0 10.56,0 16,0 0,5.28 0,10.56 0,16 5.28,0 10.56,0 16,0 0,5.28 0,10.56 0,16 -21.12,0 -42.24,0 -64,0 0,-10.56 0,-21.12 0,-32 -5.28,0 -10.56,0 -16,0 0,10.56 0,21.12 0,32 -26.4,0 -52.8,0 -80,0 0,-15.84 0,-31.68 0,-48 5.28,0 10.56,0 16,0 C 0,10.72 0,5.44 0,0 Z"
         fill="#381f09"
         transform="translate(400,352)"
         id="path15" /><path
         d="m 0,0 c 31.68,0 63.36,0 96,0 0,31.68 0,63.36 0,96 -21.12,0 -42.24,0 -64,0 0,-5.28 0,-10.56 0,-16 C 21.44,80 10.88,80 0,80 0,53.6 0,27.2 0,0 Z"
         fill="#afa09a"
         transform="translate(288)"
         id="path16" /><path
         d="m 0,0 c 5.28,0 10.56,0 16,0 0,5.28 0,10.56 0,16 15.84,0 31.68,0 48,0 0,10.56 0,21.12 0,32 10.56,0 21.12,0 32,0 0,21.12 0,42.24 0,64 -5.28,0 -10.56,0 -16,0 0,-5.28 0,-10.56 0,-16 -5.28,0 -10.56,0 -16,0 0,-5.28 0,-10.56 0,-16 5.28,0 10.56,0 16,0 0,-5.28 0,-10.56 0,-16 -15.84,0 -31.68,0 -48,0 0,15.84 0,31.68 0,48 -5.28,0 -10.56,0 -16,0 0,-21.12 0,-42.24 0,-64 10.56,0 21.12,0 32,0 0,-5.28 0,-10.56 0,-16 -21.12,0 -42.24,0 -64,0 0,5.28 0,10.56 0,16 -5.28,0 -10.56,0 -16,0 0,5.28 0,10.56 0,16 10.56,0 21.12,0 32,0 0,15.84 0,31.68 0,48 -5.28,0 -10.56,0 -16,0 0,-10.56 0,-21.12 0,-32 -15.84,0 -31.68,0 -48,0 0,10.56 0,21.12 0,32 -5.28,0 -10.56,0 -16,0 0,-15.84 0,-31.68 0,-48 10.56,0 21.12,0 32,0 0,-15.84 0,-31.68 0,-48 15.84,0 31.68,0 48,0 C 0,10.72 0,5.44 0,0 Z"
         fill="#754315"
         transform="translate(96,416)"
         id="path17" /><path
         d="m 0,0 c 21.12,0 42.24,0 64,0 0,5.28 0,10.56 0,16 -10.56,0 -21.12,0 -32,0 0,21.12 0,42.24 0,64 5.28,0 10.56,0 16,0 0,-15.84 0,-31.68 0,-48 15.84,0 31.68,0 48,0 0,5.28 0,10.56 0,16 -5.28,0 -10.56,0 -16,0 0,5.28 0,10.56 0,16 5.28,0 10.56,0 16,0 0,5.28 0,10.56 0,16 5.28,0 10.56,0 16,0 0,10.56 0,21.12 0,32 -31.68,0 -63.36,0 -96,0 0,-26.4 0,-52.8 0,-80 -10.56,0 -21.12,0 -32,0 0,-5.28 0,-10.56 0,-16 5.28,0 10.56,0 16,0 C 0,10.72 0,5.44 0,0 Z"
         fill="#9675bb"
         transform="translate(80,448)"
         id="path18" /><path
         d="m 0,0 c 10.56,0 21.12,0 32,0 0,5.28 0,10.56 0,16 10.56,0 21.12,0 32,0 0,5.28 0,10.56 0,16 10.56,0 21.12,0 32,0 0,15.84 0,31.68 0,48 10.56,0 21.12,0 32,0 0,10.56 0,21.12 0,32 -5.28,0 -10.56,0 -16,0 0,-5.28 0,-10.56 0,-16 -5.28,0 -10.56,0 -16,0 0,5.28 0,10.56 0,16 -5.28,0 -10.56,0 -16,0 0,-21.12 0,-42.24 0,-64 -15.84,0 -31.68,0 -48,0 0,5.28 0,10.56 0,16 10.56,0 21.12,0 32,0 0,15.84 0,31.68 0,48 -5.28,0 -10.56,0 -16,0 0,-5.28 0,-10.56 0,-16 -5.28,0 -10.56,0 -16,0 0,-5.28 0,-10.56 0,-16 -10.56,0 -21.12,0 -32,0 0,10.56 0,21.12 0,32 -5.28,0 -10.56,0 -16,0 0,-15.84 0,-31.68 0,-48 10.56,0 21.12,0 32,0 C 16,53.44 16,42.88 16,32 10.72,32 5.44,32 0,32 0,21.44 0,10.88 0,0 Z"
         fill="#56300d"
         transform="translate(224,416)"
         id="path19" /><path
         d="m 0,0 c 42.24,0 84.48,0 128,0 0,5.28 0,10.56 0,16 -5.28,0 -10.56,0 -16,0 0,15.84 0,31.68 0,48 C 75.04,64 38.08,64 0,64 0,42.88 0,21.76 0,0 Z"
         fill="#9e4d02"
         transform="translate(256,352)"
         id="path20" /><path
         d="m 0,0 c 31.68,0 63.36,0 96,0 0,10.56 0,21.12 0,32 5.28,0 10.56,0 16,0 0,5.28 0,10.56 0,16 -15.84,0 -31.68,0 -48,0 0,5.28 0,10.56 0,16 -5.28,0 -10.56,0 -16,0 0,5.28 0,10.56 0,16 -5.28,0 -10.56,0 -16,0 0,15.84 0,31.68 0,48 -5.28,0 -10.56,0 -16,0 0,-15.84 0,-31.68 0,-48 C 10.72,80 5.44,80 0,80 0,53.6 0,27.2 0,0 Z"
         fill="#9675bb"
         transform="translate(96)"
         id="path21" /><path
         d="m 0,0 c 5.28,0 10.56,0 16,0 0,5.28 0,10.56 0,16 5.28,0 10.56,0 16,0 0,5.28 0,10.56 0,16 -5.28,0 -10.56,0 -16,0 0,26.4 0,52.8 0,80 5.28,0 10.56,0 16,0 0,-5.28 0,-10.56 0,-16 10.56,0 21.12,0 32,0 0,-5.28 0,-10.56 0,-16 -5.28,0 -10.56,0 -16,0 0,-5.28 0,-10.56 0,-16 5.28,0 10.56,0 16,0 0,-5.28 0,-10.56 0,-16 5.28,0 10.56,0 16,0 0,21.12 0,42.24 0,64 -10.56,0 -21.12,0 -32,0 0,5.28 0,10.56 0,16 -10.56,0 -21.12,0 -32,0 0,15.84 0,31.68 0,48 -5.28,0 -10.56,0 -16,0 0,-31.68 0,-63.36 0,-96 -5.28,0 -10.56,0 -16,0 0,-5.28 0,-10.56 0,-16 -10.56,0 -21.12,0 -32,0 0,-15.84 0,-31.68 0,-48 5.28,0 10.56,0 16,0 0,10.56 0,21.12 0,32 10.56,0 21.12,0 32,0 C 0,32.16 0,16.32 0,0 Z"
         fill="#da873a"
         transform="translate(176,144)"
         id="path22" /><path
         d="m 0,0 c 42.24,0 84.48,0 128,0 0,5.28 0,10.56 0,16 -5.28,0 -10.56,0 -16,0 0,15.84 0,31.68 0,48 -10.56,0 -21.12,0 -32,0 0,-5.28 0,-10.56 0,-16 -5.28,0 -10.56,0 -16,0 0,5.28 0,10.56 0,16 -5.28,0 -10.56,0 -16,0 0,-5.28 0,-10.56 0,-16 -10.56,0 -21.12,0 -32,0 0,5.28 0,10.56 0,16 C 10.72,64 5.44,64 0,64 0,42.88 0,21.76 0,0 Z"
         fill="#381f09"
         transform="translate(272,272)"
         id="path23" /><path
         d="m 0,0 c 15.84,0 31.68,0 48,0 0,5.28 0,10.56 0,16 5.28,0 10.56,0 16,0 0,5.28 0,10.56 0,16 -15.84,0 -31.68,0 -48,0 0,5.28 0,10.56 0,16 5.28,0 10.56,0 16,0 0,5.28 0,10.56 0,16 10.56,0 21.12,0 32,0 0,15.84 0,31.68 0,48 -5.28,0 -10.56,0 -16,0 0,5.28 0,10.56 0,16 -15.84,0 -31.68,0 -48,0 0,-31.68 0,-63.36 0,-96 -5.28,0 -10.56,0 -16,0 0,-5.28 0,-10.56 0,-16 5.28,0 10.56,0 16,0 C 0,10.72 0,5.44 0,0 Z"
         fill="#9e4d02"
         transform="translate(416,128)"
         id="path24" /><path
         d="m 0,0 c 5.28,0 10.56,0 16,0 0,5.28 0,10.56 0,16 15.84,0 31.68,0 48,0 0,21.12 0,42.24 0,64 -5.28,0 -10.56,0 -16,0 0,10.56 0,21.12 0,32 -5.28,0 -10.56,0 -16,0 0,5.28 0,10.56 0,16 -10.56,0 -21.12,0 -32,0 C 0,85.76 0,43.52 0,0 Z"
         fill="#9675bb"
         transform="translate(96,272)"
         id="path25" /><path
         d="m 0,0 c 5.28,0 10.56,0 16,0 0,15.84 0,31.68 0,48 10.56,0 21.12,0 32,0 0,10.56 0,21.12 0,32 10.56,0 21.12,0 32,0 0,5.28 0,10.56 0,16 5.28,0 10.56,0 16,0 0,26.4 0,52.8 0,80 -5.28,0 -10.56,0 -16,0 0,-21.12 0,-42.24 0,-64 -15.84,0 -31.68,0 -48,0 0,-5.28 0,-10.56 0,-16 -5.28,0 -10.56,0 -16,0 0,-5.28 0,-10.56 0,-16 C 10.72,80 5.44,80 0,80 0,53.6 0,27.2 0,0 Z"
         fill="#1e7734"
         transform="translate(80,176)"
         id="path26" /><path
         d="m 0,0 c 5.28,0 10.56,0 16,0 0,26.4 0,52.8 0,80 -5.28,0 -10.56,0 -16,0 0,5.28 0,10.56 0,16 -5.28,0 -10.56,0 -16,0 0,5.28 0,10.56 0,16 -15.84,0 -31.68,0 -48,0 0,21.12 0,42.24 0,64 -5.28,0 -10.56,0 -16,0 0,-26.4 0,-52.8 0,-80 10.56,0 21.12,0 32,0 0,-5.28 0,-10.56 0,-16 10.56,0 21.12,0 32,0 0,-15.84 0,-31.68 0,-48 5.28,0 10.56,0 16,0 C 0,21.44 0,10.88 0,0 Z"
         fill="#3ca370"
         transform="translate(272,176)"
         id="path27" /><path
         d="m 0,0 c 5.28,0 10.56,0 16,0 0,21.12 0,42.24 0,64 5.28,0 10.56,0 16,0 0,5.28 0,10.56 0,16 10.56,0 21.12,0 32,0 0,5.28 0,10.56 0,16 5.28,0 10.56,0 16,0 0,15.84 0,31.68 0,48 -5.28,0 -10.56,0 -16,0 0,-5.28 0,-10.56 0,-16 -10.56,0 -21.12,0 -32,0 0,-10.56 0,-21.12 0,-32 C 21.44,96 10.88,96 0,96 0,64.32 0,32.64 0,0 Z"
         fill="#3ca370"
         transform="translate(96,128)"
         id="path28" /><path
         d="m 0,0 c 15.84,0 31.68,0 48,0 0,21.12 0,42.24 0,64 -21.12,0 -42.24,0 -64,0 0,-15.84 0,-31.68 0,-48 5.28,0 10.56,0 16,0 C 0,10.72 0,5.44 0,0 Z"
         fill="#9e4d02"
         transform="translate(400,352)"
         id="path29" /><path
         d="m 0,0 c 5.28,0 10.56,0 16,0 0,5.28 0,10.56 0,16 10.56,0 21.12,0 32,0 0,15.84 0,31.68 0,48 -5.28,0 -10.56,0 -16,0 0,-5.28 0,-10.56 0,-16 -5.28,0 -10.56,0 -16,0 0,-5.28 0,-10.56 0,-16 -10.56,0 -21.12,0 -32,0 0,10.56 0,21.12 0,32 -5.28,0 -10.56,0 -16,0 0,-15.84 0,-31.68 0,-48 10.56,0 21.12,0 32,0 C 0,10.72 0,5.44 0,0 Z"
         fill="#56300d"
         transform="translate(240,464)"
         id="path30" /><path
         d="m 0,0 c 5.28,0 10.56,0 16,0 0,10.56 0,21.12 0,32 5.28,0 10.56,0 16,0 0,10.56 0,21.12 0,32 -10.56,0 -21.12,0 -32,0 0,5.28 0,10.56 0,16 -5.28,0 -10.56,0 -16,0 0,-5.28 0,-10.56 0,-16 -5.28,0 -10.56,0 -16,0 0,-10.56 0,-21.12 0,-32 10.56,0 21.12,0 32,0 C 0,21.44 0,10.88 0,0 Z"
         fill="#754315"
         transform="translate(208,352)"
         id="path31" /><path
         d="m 0,0 c 5.28,0 10.56,0 16,0 0,5.28 0,10.56 0,16 10.56,0 21.12,0 32,0 0,15.84 0,31.68 0,48 -5.28,0 -10.56,0 -16,0 0,-10.56 0,-21.12 0,-32 -15.84,0 -31.68,0 -48,0 0,10.56 0,21.12 0,32 -5.28,0 -10.56,0 -16,0 0,-15.84 0,-31.68 0,-48 10.56,0 21.12,0 32,0 C 0,10.72 0,5.44 0,0 Z"
         fill="#56300d"
         transform="translate(48,464)"
         id="path32" /><path
         d="m 0,0 c 15.84,0 31.68,0 48,0 0,15.84 0,31.68 0,48 -10.56,0 -21.12,0 -32,0 0,5.28 0,10.56 0,16 C 10.72,64 5.44,64 0,64 0,42.88 0,21.76 0,0 Z"
         fill="#9e4d02"
         transform="translate(272,272)"
         id="path33" /><path
         d="m 0,0 c 26.4,0 52.8,0 80,0 0,15.84 0,31.68 0,48 C 69.44,48 58.88,48 48,48 48,37.44 48,26.88 48,16 32.16,16 16.32,16 0,16 0,10.72 0,5.44 0,0 Z"
         fill="#9675bb"
         transform="translate(112,416)"
         id="path34" /><path
         d="m 0,0 c 15.84,0 31.68,0 48,0 0,5.28 0,10.56 0,16 -10.56,0 -21.12,0 -32,0 0,5.28 0,10.56 0,16 5.28,0 10.56,0 16,0 0,5.28 0,10.56 0,16 5.28,0 10.56,0 16,0 0,5.28 0,10.56 0,16 C 32.16,64 16.32,64 0,64 0,42.88 0,21.76 0,0 Z"
         fill="#9e4d02"
         transform="translate(496,352)"
         id="path35" /><path
         d="m 0,0 c 15.84,0 31.68,0 48,0 0,5.28 0,10.56 0,16 -10.56,0 -21.12,0 -32,0 0,10.56 0,21.12 0,32 5.28,0 10.56,0 16,0 0,-5.28 0,-10.56 0,-16 5.28,0 10.56,0 16,0 0,10.56 0,21.12 0,32 C 32.16,64 16.32,64 0,64 0,42.88 0,21.76 0,0 Z"
         fill="#381f09"
         transform="translate(256,352)"
         id="path36" /><path
         d="m 0,0 c 10.56,0 21.12,0 32,0 0,5.28 0,10.56 0,16 5.28,0 10.56,0 16,0 0,-5.28 0,-10.56 0,-16 5.28,0 10.56,0 16,0 0,5.28 0,10.56 0,16 10.56,0 21.12,0 32,0 0,5.28 0,10.56 0,16 C 64.32,32 32.64,32 0,32 0,21.44 0,10.88 0,0 Z"
         fill="#afa09a"
         transform="translate(288,320)"
         id="path37" /><path
         d="m 0,0 c 21.12,0 42.24,0 64,0 0,5.28 0,10.56 0,16 -15.84,0 -31.68,0 -48,0 0,21.12 0,42.24 0,64 C 10.72,80 5.44,80 0,80 0,53.6 0,27.2 0,0 Z"
         fill="#000000"
         transform="translate(192,272)"
         id="path38" /><path
         d="m 0,0 c 21.12,0 42.24,0 64,0 0,26.4 0,52.8 0,80 -5.28,0 -10.56,0 -16,0 C 48,58.88 48,37.76 48,16 32.16,16 16.32,16 0,16 0,10.72 0,5.44 0,0 Z"
         fill="#000000"
         transform="translate(112,272)"
         id="path39" /><path
         d="m 0,0 c 36.96,0 73.92,0 112,0 0,5.28 0,10.56 0,16 -15.84,0 -31.68,0 -48,0 0,5.28 0,10.56 0,16 -5.28,0 -10.56,0 -16,0 0,-5.28 0,-10.56 0,-16 C 32.16,16 16.32,16 0,16 0,10.72 0,5.44 0,0 Z"
         fill="#afa09a"
         transform="translate(272,96)"
         id="path40" /><path
         d="m 0,0 c 10.56,0 21.12,0 32,0 0,5.28 0,10.56 0,16 10.56,0 21.12,0 32,0 0,5.28 0,10.56 0,16 -10.56,0 -21.12,0 -32,0 0,5.28 0,10.56 0,16 -5.28,0 -10.56,0 -16,0 0,-5.28 0,-10.56 0,-16 C 10.72,32 5.44,32 0,32 0,21.44 0,10.88 0,0 Z"
         fill="#9e4d02"
         transform="translate(224,416)"
         id="path41" /><path
         d="m 0,0 c 5.28,0 10.56,0 16,0 0,10.56 0,21.12 0,32 5.28,0 10.56,0 16,0 0,10.56 0,21.12 0,32 -10.56,0 -21.12,0 -32,0 0,-5.28 0,-10.56 0,-16 -5.28,0 -10.56,0 -16,0 0,-5.28 0,-10.56 0,-16 5.28,0 10.56,0 16,0 C 0,21.44 0,10.88 0,0 Z"
         fill="#9e4d02"
         transform="translate(176,320)"
         id="path42" /><path
         d="m 0,0 c 15.84,0 31.68,0 48,0 0,5.28 0,10.56 0,16 -5.28,0 -10.56,0 -16,0 0,5.28 0,10.56 0,16 -5.28,0 -10.56,0 -16,0 0,5.28 0,10.56 0,16 C 10.72,48 5.44,48 0,48 0,32.16 0,16.32 0,0 Z"
         fill="#bcb689"
         transform="translate(384,112)"
         id="path43" /><path
         d="m 0,0 c 15.84,0 31.68,0 48,0 0,10.56 0,21.12 0,32 -5.28,0 -10.56,0 -16,0 0,-5.28 0,-10.56 0,-16 -5.28,0 -10.56,0 -16,0 0,5.28 0,10.56 0,16 C 10.72,32 5.44,32 0,32 0,21.44 0,10.88 0,0 Z"
         fill="#56300d"
         transform="translate(304,496)"
         id="path44" /><path
         d="m 0,0 c 10.56,0 21.12,0 32,0 0,5.28 0,10.56 0,16 -5.28,0 -10.56,0 -16,0 0,15.84 0,31.68 0,48 C 10.72,64 5.44,64 0,64 0,42.88 0,21.76 0,0 Z"
         fill="#381f09"
         transform="translate(352,352)"
         id="path45" /><path
         d="m 0,0 c 5.28,0 10.56,0 16,0 0,5.28 0,10.56 0,16 5.28,0 10.56,0 16,0 0,5.28 0,10.56 0,16 -5.28,0 -10.56,0 -16,0 0,5.28 0,10.56 0,16 -10.56,0 -21.12,0 -32,0 0,-5.28 0,-10.56 0,-16 5.28,0 10.56,0 16,0 C 0,21.44 0,10.88 0,0 Z"
         fill="#000000"
         transform="translate(144,352)"
         id="path46" /><path
         d="m 0,0 c 10.56,0 21.12,0 32,0 0,5.28 0,10.56 0,16 -5.28,0 -10.56,0 -16,0 0,15.84 0,31.68 0,48 C 10.72,64 5.44,64 0,64 0,42.88 0,21.76 0,0 Z"
         fill="#9e4d02"
         transform="translate(368,272)"
         id="path47" /><path
         d="m 0,0 c 5.28,0 10.56,0 16,0 0,5.28 0,10.56 0,16 10.56,0 21.12,0 32,0 0,5.28 0,10.56 0,16 -10.56,0 -21.12,0 -32,0 0,5.28 0,10.56 0,16 C 10.72,48 5.44,48 0,48 0,32.16 0,16.32 0,0 Z"
         fill="#3ca370"
         transform="translate(192,208)"
         id="path48" /><path
         d="m 0,0 c 5.28,0 10.56,0 16,0 0,26.4 0,52.8 0,80 C 10.72,80 5.44,80 0,80 0,53.6 0,27.2 0,0 Z"
         fill="#000000"
         transform="translate(272,176)"
         id="path49" /><path
         d="m 0,0 c 5.28,0 10.56,0 16,0 0,26.4 0,52.8 0,80 C 10.72,80 5.44,80 0,80 0,53.6 0,27.2 0,0 Z"
         fill="#000000"
         transform="translate(80,176)"
         id="path50" /><path
         d="m 0,0 c 15.84,0 31.68,0 48,0 0,10.56 0,21.12 0,32 -10.56,0 -21.12,0 -32,0 0,-5.28 0,-10.56 0,-16 C 10.72,16 5.44,16 0,16 0,10.72 0,5.44 0,0 Z"
         fill="#bcb689"
         transform="translate(432,160)"
         id="path51" /><path
         d="m 0,0 c 21.12,0 42.24,0 64,0 0,5.28 0,10.56 0,16 C 42.88,16 21.76,16 0,16 0,10.72 0,5.44 0,0 Z"
         fill="#bcb689"
         transform="translate(32,96)"
         id="path52" /><path
         d="m 0,0 c 10.56,0 21.12,0 32,0 0,10.56 0,21.12 0,32 -5.28,0 -10.56,0 -16,0 0,-5.28 0,-10.56 0,-16 C 10.72,16 5.44,16 0,16 0,10.72 0,5.44 0,0 Z"
         fill="#381f09"
         transform="translate(160,496)"
         id="path53" /><path
         d="m 0,0 c 10.56,0 21.12,0 32,0 0,10.56 0,21.12 0,32 -5.28,0 -10.56,0 -16,0 0,-5.28 0,-10.56 0,-16 C 10.72,16 5.44,16 0,16 0,10.72 0,5.44 0,0 Z"
         fill="#9e4d02"
         transform="translate(160,464)"
         id="path54" /><path
         d="m 0,0 c 5.28,0 10.56,0 16,0 0,10.56 0,21.12 0,32 -10.56,0 -21.12,0 -32,0 0,-5.28 0,-10.56 0,-16 5.28,0 10.56,0 16,0 C 0,10.72 0,5.44 0,0 Z"
         fill="#895fcc"
         transform="translate(80,448)"
         id="path55" /><path
         d="m 0,0 c 15.84,0 31.68,0 48,0 0,5.28 0,10.56 0,16 C 32.16,16 16.32,16 0,16 0,10.72 0,5.44 0,0 Z"
         fill="#754315"
         transform="translate(112,432)"
         id="path56" /><path
         d="m 0,0 c 10.56,0 21.12,0 32,0 0,5.28 0,10.56 0,16 -5.28,0 -10.56,0 -16,0 0,5.28 0,10.56 0,16 C 10.72,32 5.44,32 0,32 0,21.44 0,10.88 0,0 Z"
         fill="#754315"
         transform="translate(224,416)"
         id="path57" /><path
         d="m 0,0 c 15.84,0 31.68,0 48,0 0,5.28 0,10.56 0,16 C 32.16,16 16.32,16 0,16 0,10.72 0,5.44 0,0 Z"
         fill="#754315"
         transform="translate(96,400)"
         id="path58" /><path
         d="m 0,0 c 10.56,0 21.12,0 32,0 0,5.28 0,10.56 0,16 -5.28,0 -10.56,0 -16,0 0,5.28 0,10.56 0,16 C 10.72,32 5.44,32 0,32 0,21.44 0,10.88 0,0 Z"
         fill="#000000"
         transform="translate(176,384)"
         id="path59" /><path
         d="m 0,0 c 5.28,0 10.56,0 16,0 0,15.84 0,31.68 0,48 C 10.72,48 5.44,48 0,48 0,32.16 0,16.32 0,0 Z"
         fill="#381f09"
         transform="translate(384,368)"
         id="path60" /><path
         d="m 0,0 c 10.56,0 21.12,0 32,0 0,10.56 0,21.12 0,32 -5.28,0 -10.56,0 -16,0 0,-5.28 0,-10.56 0,-16 C 10.72,16 5.44,16 0,16 0,10.72 0,5.44 0,0 Z"
         fill="#afa09a"
         transform="translate(320,368)"
         id="path61" /><path
         d="m 0,0 c 10.56,0 21.12,0 32,0 0,5.28 0,10.56 0,16 -5.28,0 -10.56,0 -16,0 0,5.28 0,10.56 0,16 C 10.72,32 5.44,32 0,32 0,21.44 0,10.88 0,0 Z"
         fill="#a38baa"
         transform="translate(272,368)"
         id="path62" /><path
         d="m 0,0 c 5.28,0 10.56,0 16,0 0,15.84 0,31.68 0,48 C 10.72,48 5.44,48 0,48 0,32.16 0,16.32 0,0 Z"
         fill="#9e4d02"
         transform="translate(400,288)"
         id="path63" /><path
         d="m 0,0 c 5.28,0 10.56,0 16,0 0,15.84 0,31.68 0,48 C 10.72,48 5.44,48 0,48 0,32.16 0,16.32 0,0 Z"
         fill="#000000"
         transform="translate(256,128)"
         id="path64" /><path
         d="m 0,0 c 5.28,0 10.56,0 16,0 0,15.84 0,31.68 0,48 C 10.72,48 5.44,48 0,48 0,32.16 0,16.32 0,0 Z"
         fill="#000000"
         transform="translate(96,128)"
         id="path65" /><path
         d="m 0,0 c 5.28,0 10.56,0 16,0 0,15.84 0,31.68 0,48 C 10.72,48 5.44,48 0,48 0,32.16 0,16.32 0,0 Z"
         fill="#9675bb"
         transform="translate(96,80)"
         id="path66" /><path
         d="m 0,0 c 5.28,0 10.56,0 16,0 0,15.84 0,31.68 0,48 C 10.72,48 5.44,48 0,48 0,32.16 0,16.32 0,0 Z"
         fill="#000000"
         transform="translate(240,80)"
         id="path67" /><path
         d="m 0,0 c 5.28,0 10.56,0 16,0 0,15.84 0,31.68 0,48 C 10.72,48 5.44,48 0,48 0,32.16 0,16.32 0,0 Z"
         fill="#000000"
         transform="translate(112,80)"
         id="path68" /><path
         d="m 0,0 c 15.84,0 31.68,0 48,0 0,5.28 0,10.56 0,16 C 32.16,16 16.32,16 0,16 0,10.72 0,5.44 0,0 Z"
         fill="#000000"
         transform="translate(160,32)"
         id="path69" /><path
         d="m 0,0 c 5.28,0 10.56,0 16,0 0,10.56 0,21.12 0,32 C 10.72,32 5.44,32 0,32 0,21.44 0,10.88 0,0 Z"
         fill="#56300d"
         transform="translate(336,496)"
         id="path70" /><path
         d="m 0,0 c 5.28,0 10.56,0 16,0 0,10.56 0,21.12 0,32 C 10.72,32 5.44,32 0,32 0,21.44 0,10.88 0,0 Z"
         fill="#56300d"
         transform="translate(208,496)"
         id="path71" /><path
         d="m 0,0 c 5.28,0 10.56,0 16,0 0,10.56 0,21.12 0,32 C 10.72,32 5.44,32 0,32 0,21.44 0,10.88 0,0 Z"
         fill="#56300d"
         transform="translate(80,496)"
         id="path72" /><path
         d="m 0,0 c 5.28,0 10.56,0 16,0 0,10.56 0,21.12 0,32 C 10.72,32 5.44,32 0,32 0,21.44 0,10.88 0,0 Z"
         fill="#56300d"
         transform="translate(16,496)"
         id="path73" /><path
         d="m 0,0 c 10.56,0 21.12,0 32,0 0,5.28 0,10.56 0,16 C 21.44,16 10.88,16 0,16 0,10.72 0,5.44 0,0 Z"
         fill="#9e4d02"
         transform="translate(64,480)"
         id="path74" /><path
         d="m 0,0 c 10.56,0 21.12,0 32,0 0,5.28 0,10.56 0,16 C 21.44,16 10.88,16 0,16 0,10.72 0,5.44 0,0 Z"
         fill="#754315"
         transform="translate(16,480)"
         id="path75" /><path
         d="m 0,0 c 10.56,0 21.12,0 32,0 0,5.28 0,10.56 0,16 C 21.44,16 10.88,16 0,16 0,10.72 0,5.44 0,0 Z"
         fill="#a38baa"
         transform="translate(256,464)"
         id="path76" /><path
         d="m 0,0 c 5.28,0 10.56,0 16,0 0,10.56 0,21.12 0,32 C 10.72,32 5.44,32 0,32 0,21.44 0,10.88 0,0 Z"
         fill="#56300d"
         transform="translate(144,448)"
         id="path77" /><path
         d="m 0,0 c 5.28,0 10.56,0 16,0 0,10.56 0,21.12 0,32 C 10.72,32 5.44,32 0,32 0,21.44 0,10.88 0,0 Z"
         fill="#56300d"
         transform="translate(96,416)"
         id="path78" /><path
         d="m 0,0 c 10.56,0 21.12,0 32,0 0,5.28 0,10.56 0,16 C 21.44,16 10.88,16 0,16 0,10.72 0,5.44 0,0 Z"
         fill="#a38baa"
         transform="translate(256,416)"
         id="path79" /><path
         d="m 0,0 c 5.28,0 10.56,0 16,0 0,10.56 0,21.12 0,32 C 10.72,32 5.44,32 0,32 0,21.44 0,10.88 0,0 Z"
         fill="#bcb689"
         transform="translate(416,368)"
         id="path80" /><path
         d="m 0,0 c 5.28,0 10.56,0 16,0 0,10.56 0,21.12 0,32 C 10.72,32 5.44,32 0,32 0,21.44 0,10.88 0,0 Z"
         fill="#000000"
         transform="translate(208,352)"
         id="path81" /><path
         d="m 0,0 c 10.56,0 21.12,0 32,0 0,5.28 0,10.56 0,16 C 21.44,16 10.88,16 0,16 0,10.72 0,5.44 0,0 Z"
         fill="#3ca370"
         transform="translate(224,256)"
         id="path82" /><path
         d="m 0,0 c 10.56,0 21.12,0 32,0 0,5.28 0,10.56 0,16 C 21.44,16 10.88,16 0,16 0,10.72 0,5.44 0,0 Z"
         fill="#bcb689"
         transform="translate(416,208)"
         id="path83" /><path
         d="m 0,0 c 10.56,0 21.12,0 32,0 0,5.28 0,10.56 0,16 C 21.44,16 10.88,16 0,16 0,10.72 0,5.44 0,0 Z"
         fill="#8c6bcc"
         transform="translate(480,112)"
         id="path84" /><path
         d="m 0,0 c 5.28,0 10.56,0 16,0 0,10.56 0,21.12 0,32 C 10.72,32 5.44,32 0,32 0,21.44 0,10.88 0,0 Z"
         fill="#bcb689"
         transform="translate(464,112)"
         id="path85" /><path
         d="m 0,0 c 10.56,0 21.12,0 32,0 0,5.28 0,10.56 0,16 C 21.44,16 10.88,16 0,16 0,10.72 0,5.44 0,0 Z"
         fill="#8c6bcc"
         transform="translate(432,112)"
         id="path86" /><path
         d="m 0,0 c 10.56,0 21.12,0 32,0 0,5.28 0,10.56 0,16 C 21.44,16 10.88,16 0,16 0,10.72 0,5.44 0,0 Z"
         fill="#8c6bcc"
         transform="translate(336,112)"
         id="path87" /><path
         d="m 0,0 c 10.56,0 21.12,0 32,0 0,5.28 0,10.56 0,16 C 21.44,16 10.88,16 0,16 0,10.72 0,5.44 0,0 Z"
         fill="#8c6bcc"
         transform="translate(288,112)"
         id="path88" /><path
         d="m 0,0 c 10.56,0 21.12,0 32,0 0,5.28 0,10.56 0,16 C 21.44,16 10.88,16 0,16 0,10.72 0,5.44 0,0 Z"
         fill="#bcb689"
         transform="translate(0,112)"
         id="path89" /><path
         d="m 0,0 c 10.56,0 21.12,0 32,0 0,5.28 0,10.56 0,16 C 21.44,16 10.88,16 0,16 0,10.72 0,5.44 0,0 Z"
         fill="#8c6bcc"
         transform="translate(528,96)"
         id="path90" /><path
         d="m 0,0 c 10.56,0 21.12,0 32,0 0,5.28 0,10.56 0,16 C 21.44,16 10.88,16 0,16 0,10.72 0,5.44 0,0 Z"
         fill="#bcb689"
         transform="translate(432,96)"
         id="path91" /><path
         d="m 0,0 c 10.56,0 21.12,0 32,0 0,5.28 0,10.56 0,16 C 21.44,16 10.88,16 0,16 0,10.72 0,5.44 0,0 Z"
         fill="#8c6bcc"
         transform="translate(384,96)"
         id="path92" /><path
         d="m 0,0 c 10.56,0 21.12,0 32,0 0,5.28 0,10.56 0,16 C 21.44,16 10.88,16 0,16 0,10.72 0,5.44 0,0 Z"
         fill="#8c6bcc"
         transform="translate(480,80)"
         id="path93" /><path
         d="m 0,0 c 10.56,0 21.12,0 32,0 0,5.28 0,10.56 0,16 C 21.44,16 10.88,16 0,16 0,10.72 0,5.44 0,0 Z"
         fill="#8c6bcc"
         transform="translate(432,80)"
         id="path94" /><path
         d="m 0,0 c 10.56,0 21.12,0 32,0 0,5.28 0,10.56 0,16 C 21.44,16 10.88,16 0,16 0,10.72 0,5.44 0,0 Z"
         fill="#8c6bcc"
         transform="translate(336,80)"
         id="path95" /><path
         d="m 0,0 c 10.56,0 21.12,0 32,0 0,5.28 0,10.56 0,16 C 21.44,16 10.88,16 0,16 0,10.72 0,5.44 0,0 Z"
         fill="#8c6bcc"
         transform="translate(288,80)"
         id="path96" /><path
         d="m 0,0 c 5.28,0 10.56,0 16,0 0,10.56 0,21.12 0,32 C 10.72,32 5.44,32 0,32 0,21.44 0,10.88 0,0 Z"
         fill="#cfff70"
         transform="translate(224,80)"
         id="path97" /><path
         d="m 0,0 c 10.56,0 21.12,0 32,0 0,5.28 0,10.56 0,16 C 21.44,16 10.88,16 0,16 0,10.72 0,5.44 0,0 Z"
         fill="#bcb689"
         transform="translate(0,80)"
         id="path98" /><path
         d="m 0,0 c 5.28,0 10.56,0 16,0 0,5.28 0,10.56 0,16 C 10.72,16 5.44,16 0,16 0,10.72 0,5.44 0,0 Z"
         fill="#56300d"
         transform="translate(304,512)"
         id="path99" /><path
         d="m 0,0 c 5.28,0 10.56,0 16,0 0,5.28 0,10.56 0,16 C 10.72,16 5.44,16 0,16 0,10.72 0,5.44 0,0 Z"
         fill="#56300d"
         transform="translate(272,512)"
         id="path100" /><path
         d="m 0,0 c 5.28,0 10.56,0 16,0 0,5.28 0,10.56 0,16 C 10.72,16 5.44,16 0,16 0,10.72 0,5.44 0,0 Z"
         fill="#56300d"
         transform="translate(176,512)"
         id="path101" /><path
         d="m 0,0 c 5.28,0 10.56,0 16,0 0,5.28 0,10.56 0,16 C 10.72,16 5.44,16 0,16 0,10.72 0,5.44 0,0 Z"
         fill="#56300d"
         transform="translate(112,512)"
         id="path102" /><path
         d="m 0,0 c 5.28,0 10.56,0 16,0 0,5.28 0,10.56 0,16 C 10.72,16 5.44,16 0,16 0,10.72 0,5.44 0,0 Z"
         fill="#9e4d02"
         transform="translate(336,496)"
         id="path103" /><path
         d="m 0,0 c 5.28,0 10.56,0 16,0 0,5.28 0,10.56 0,16 C 10.72,16 5.44,16 0,16 0,10.72 0,5.44 0,0 Z"
         fill="#381f09"
         transform="translate(304,496)"
         id="path104" /><path
         d="m 0,0 c 5.28,0 10.56,0 16,0 0,5.28 0,10.56 0,16 C 10.72,16 5.44,16 0,16 0,10.72 0,5.44 0,0 Z"
         fill="#ff0000"
         transform="translate(272,496)"
         id="path105" /><path
         d="m 0,0 c 5.28,0 10.56,0 16,0 0,5.28 0,10.56 0,16 C 10.72,16 5.44,16 0,16 0,10.72 0,5.44 0,0 Z"
         fill="#381f09"
         transform="translate(256,496)"
         id="path106" /><path
         d="m 0,0 c 5.28,0 10.56,0 16,0 0,5.28 0,10.56 0,16 C 10.72,16 5.44,16 0,16 0,10.72 0,5.44 0,0 Z"
         fill="#381f09"
         transform="translate(208,496)"
         id="path107" /><path
         d="m 0,0 c 5.28,0 10.56,0 16,0 0,5.28 0,10.56 0,16 C 10.72,16 5.44,16 0,16 0,10.72 0,5.44 0,0 Z"
         fill="#ff0000"
         transform="translate(112,496)"
         id="path108" /><path
         d="m 0,0 c 5.28,0 10.56,0 16,0 0,5.28 0,10.56 0,16 C 10.72,16 5.44,16 0,16 0,10.72 0,5.44 0,0 Z"
         fill="#381f09"
         transform="translate(80,496)"
         id="path109" /><path
         d="m 0,0 c 5.28,0 10.56,0 16,0 0,5.28 0,10.56 0,16 C 10.72,16 5.44,16 0,16 0,10.72 0,5.44 0,0 Z"
         fill="#381f09"
         transform="translate(16,496)"
         id="path110" /><path
         d="m 0,0 c 5.28,0 10.56,0 16,0 0,5.28 0,10.56 0,16 C 10.72,16 5.44,16 0,16 0,10.72 0,5.44 0,0 Z"
         fill="#ff0000"
         transform="translate(304,480)"
         id="path111" /><path
         d="m 0,0 c 5.28,0 10.56,0 16,0 0,5.28 0,10.56 0,16 C 10.72,16 5.44,16 0,16 0,10.72 0,5.44 0,0 Z"
         fill="#9e4d02"
         transform="translate(272,480)"
         id="path112" /><path
         d="m 0,0 c 5.28,0 10.56,0 16,0 0,5.28 0,10.56 0,16 C 10.72,16 5.44,16 0,16 0,10.72 0,5.44 0,0 Z"
         fill="#9e4d02"
         transform="translate(208,480)"
         id="path113" /><path
         d="m 0,0 c 5.28,0 10.56,0 16,0 0,5.28 0,10.56 0,16 C 10.72,16 5.44,16 0,16 0,10.72 0,5.44 0,0 Z"
         fill="#ff0000"
         transform="translate(176,480)"
         id="path114" /><path
         d="m 0,0 c 5.28,0 10.56,0 16,0 0,5.28 0,10.56 0,16 C 10.72,16 5.44,16 0,16 0,10.72 0,5.44 0,0 Z"
         fill="#754315"
         transform="translate(112,480)"
         id="path115" /><path
         d="m 0,0 c 5.28,0 10.56,0 16,0 0,5.28 0,10.56 0,16 C 10.72,16 5.44,16 0,16 0,10.72 0,5.44 0,0 Z"
         fill="#754315"
         transform="translate(64,480)"
         id="path116" /><path
         d="m 0,0 c 5.28,0 10.56,0 16,0 0,5.28 0,10.56 0,16 C 10.72,16 5.44,16 0,16 0,10.72 0,5.44 0,0 Z"
         fill="#9e4d02"
         transform="translate(16,480)"
         id="path117" /><path
         d="m 0,0 c 5.28,0 10.56,0 16,0 0,5.28 0,10.56 0,16 C 10.72,16 5.44,16 0,16 0,10.72 0,5.44 0,0 Z"
         fill="#56300d"
         transform="translate(304,464)"
         id="path118" /><path
         d="m 0,0 c 5.28,0 10.56,0 16,0 0,5.28 0,10.56 0,16 C 10.72,16 5.44,16 0,16 0,10.72 0,5.44 0,0 Z"
         fill="#381f09"
         transform="translate(240,464)"
         id="path119" /><path
         d="m 0,0 c 5.28,0 10.56,0 16,0 0,5.28 0,10.56 0,16 C 10.72,16 5.44,16 0,16 0,10.72 0,5.44 0,0 Z"
         fill="#754315"
         transform="translate(160,464)"
         id="path120" /><path
         d="m 0,0 c 5.28,0 10.56,0 16,0 0,5.28 0,10.56 0,16 C 10.72,16 5.44,16 0,16 0,10.72 0,5.44 0,0 Z"
         fill="#9e4d02"
         transform="translate(112,464)"
         id="path121" /><path
         d="m 0,0 c 5.28,0 10.56,0 16,0 0,5.28 0,10.56 0,16 C 10.72,16 5.44,16 0,16 0,10.72 0,5.44 0,0 Z"
         fill="#381f09"
         transform="translate(48,464)"
         id="path122" /><path
         d="m 0,0 c 5.28,0 10.56,0 16,0 0,5.28 0,10.56 0,16 C 10.72,16 5.44,16 0,16 0,10.72 0,5.44 0,0 Z"
         fill="#9e4d02"
         transform="translate(304,448)"
         id="path123" /><path
         d="m 0,0 c 5.28,0 10.56,0 16,0 0,5.28 0,10.56 0,16 C 10.72,16 5.44,16 0,16 0,10.72 0,5.44 0,0 Z"
         fill="#381f09"
         transform="translate(144,448)"
         id="path124" /><path
         d="m 0,0 c 5.28,0 10.56,0 16,0 0,5.28 0,10.56 0,16 C 10.72,16 5.44,16 0,16 0,10.72 0,5.44 0,0 Z"
         fill="#381f09"
         transform="translate(64,448)"
         id="path125" /><path
         d="m 0,0 c 5.28,0 10.56,0 16,0 0,5.28 0,10.56 0,16 C 10.72,16 5.44,16 0,16 0,10.72 0,5.44 0,0 Z"
         fill="#ff0000"
         transform="translate(48,448)"
         id="path126" /><path
         d="m 0,0 c 5.28,0 10.56,0 16,0 0,5.28 0,10.56 0,16 C 10.72,16 5.44,16 0,16 0,10.72 0,5.44 0,0 Z"
         fill="#ff0000"
         transform="translate(272,432)"
         id="path127" /><path
         d="m 0,0 c 5.28,0 10.56,0 16,0 0,5.28 0,10.56 0,16 C 10.72,16 5.44,16 0,16 0,10.72 0,5.44 0,0 Z"
         fill="#754315"
         transform="translate(224,432)"
         id="path128" /><path
         d="m 0,0 c 5.28,0 10.56,0 16,0 0,5.28 0,10.56 0,16 C 10.72,16 5.44,16 0,16 0,10.72 0,5.44 0,0 Z"
         fill="#381f09"
         transform="translate(176,432)"
         id="path129" /><path
         d="m 0,0 c 5.28,0 10.56,0 16,0 0,5.28 0,10.56 0,16 C 10.72,16 5.44,16 0,16 0,10.72 0,5.44 0,0 Z"
         fill="#9e4d02"
         transform="translate(144,432)"
         id="path130" /><path
         d="m 0,0 c 5.28,0 10.56,0 16,0 0,5.28 0,10.56 0,16 C 10.72,16 5.44,16 0,16 0,10.72 0,5.44 0,0 Z"
         fill="#9e4d02"
         transform="translate(48,432)"
         id="path131" /><path
         d="m 0,0 c 5.28,0 10.56,0 16,0 0,5.28 0,10.56 0,16 C 10.72,16 5.44,16 0,16 0,10.72 0,5.44 0,0 Z"
         fill="#9e4d02"
         transform="translate(224,416)"
         id="path132" /><path
         d="m 0,0 c 5.28,0 10.56,0 16,0 0,5.28 0,10.56 0,16 C 10.72,16 5.44,16 0,16 0,10.72 0,5.44 0,0 Z"
         fill="#381f09"
         transform="translate(192,416)"
         id="path133" /><path
         d="m 0,0 c 5.28,0 10.56,0 16,0 0,5.28 0,10.56 0,16 C 10.72,16 5.44,16 0,16 0,10.72 0,5.44 0,0 Z"
         fill="#381f09"
         transform="translate(96,416)"
         id="path134" /><path
         d="m 0,0 c 5.28,0 10.56,0 16,0 0,5.28 0,10.56 0,16 C 10.72,16 5.44,16 0,16 0,10.72 0,5.44 0,0 Z"
         fill="#9e4d02"
         transform="translate(192,400)"
         id="path135" /><path
         d="m 0,0 c 5.28,0 10.56,0 16,0 0,5.28 0,10.56 0,16 C 10.72,16 5.44,16 0,16 0,10.72 0,5.44 0,0 Z"
         fill="#381f09"
         transform="translate(176,400)"
         id="path136" /><path
         d="m 0,0 c 5.28,0 10.56,0 16,0 0,5.28 0,10.56 0,16 C 10.72,16 5.44,16 0,16 0,10.72 0,5.44 0,0 Z"
         fill="#9e4d02"
         transform="translate(144,400)"
         id="path137" /><path
         d="m 0,0 c 5.28,0 10.56,0 16,0 0,5.28 0,10.56 0,16 C 10.72,16 5.44,16 0,16 0,10.72 0,5.44 0,0 Z"
         fill="#9e4d02"
         transform="translate(96,400)"
         id="path138" /><path
         d="m 0,0 c 5.28,0 10.56,0 16,0 0,5.28 0,10.56 0,16 C 10.72,16 5.44,16 0,16 0,10.72 0,5.44 0,0 Z"
         fill="#000000"
         transform="translate(224,384)"
         id="path139" /><path
         d="m 0,0 c 5.28,0 10.56,0 16,0 0,5.28 0,10.56 0,16 C 10.72,16 5.44,16 0,16 0,10.72 0,5.44 0,0 Z"
         fill="#9e4d02"
         transform="translate(208,384)"
         id="path140" /><path
         d="m 0,0 c 5.28,0 10.56,0 16,0 0,5.28 0,10.56 0,16 C 10.72,16 5.44,16 0,16 0,10.72 0,5.44 0,0 Z"
         fill="#9e4d02"
         transform="translate(160,384)"
         id="path141" /><path
         d="m 0,0 c 5.28,0 10.56,0 16,0 0,5.28 0,10.56 0,16 C 10.72,16 5.44,16 0,16 0,10.72 0,5.44 0,0 Z"
         fill="#afa09a"
         transform="translate(288,368)"
         id="path142" /><path
         d="m 0,0 c 5.28,0 10.56,0 16,0 0,5.28 0,10.56 0,16 C 10.72,16 5.44,16 0,16 0,10.72 0,5.44 0,0 Z"
         fill="#afa09a"
         transform="translate(336,288)"
         id="path143" /><path
         d="m 0,0 c 5.28,0 10.56,0 16,0 0,5.28 0,10.56 0,16 C 10.72,16 5.44,16 0,16 0,10.72 0,5.44 0,0 Z"
         fill="#afa09a"
         transform="translate(288,288)"
         id="path144" /><path
         d="m 0,0 c 5.28,0 10.56,0 16,0 0,5.28 0,10.56 0,16 C 10.72,16 5.44,16 0,16 0,10.72 0,5.44 0,0 Z"
         fill="#a38baa"
         transform="translate(272,256)"
         id="path145" /><path
         d="m 0,0 c 5.28,0 10.56,0 16,0 0,5.28 0,10.56 0,16 C 10.72,16 5.44,16 0,16 0,10.72 0,5.44 0,0 Z"
         fill="#000000"
         transform="translate(256,256)"
         id="path146" /><path
         d="m 0,0 c 5.28,0 10.56,0 16,0 0,5.28 0,10.56 0,16 C 10.72,16 5.44,16 0,16 0,10.72 0,5.44 0,0 Z"
         fill="#000000"
         transform="translate(96,256)"
         id="path147" /><path
         d="m 0,0 c 5.28,0 10.56,0 16,0 0,5.28 0,10.56 0,16 C 10.72,16 5.44,16 0,16 0,10.72 0,5.44 0,0 Z"
         fill="#ff0000"
         transform="translate(320,112)"
         id="path148" /><path
         d="m 0,0 c 5.28,0 10.56,0 16,0 0,5.28 0,10.56 0,16 C 10.72,16 5.44,16 0,16 0,10.72 0,5.44 0,0 Z"
         fill="#bcb689"
         transform="translate(96,112)"
         id="path149" /><path
         d="m 0,0 c 5.28,0 10.56,0 16,0 0,5.28 0,10.56 0,16 C 10.72,16 5.44,16 0,16 0,10.72 0,5.44 0,0 Z"
         fill="#ff0000"
         transform="translate(512,96)"
         id="path150" /><path
         d="m 0,0 c 5.28,0 10.56,0 16,0 0,5.28 0,10.56 0,16 C 10.72,16 5.44,16 0,16 0,10.72 0,5.44 0,0 Z"
         fill="#ff0000"
         transform="translate(464,96)"
         id="path151" /><path
         d="m 0,0 c 5.28,0 10.56,0 16,0 0,5.28 0,10.56 0,16 C 10.72,16 5.44,16 0,16 0,10.72 0,5.44 0,0 Z"
         fill="#ff0000"
         transform="translate(416,96)"
         id="path152" /><path
         d="m 0,0 c 5.28,0 10.56,0 16,0 0,5.28 0,10.56 0,16 C 10.72,16 5.44,16 0,16 0,10.72 0,5.44 0,0 Z"
         fill="#ff0000"
         transform="translate(368,96)"
         id="path153" /><path
         d="m 0,0 c 5.28,0 10.56,0 16,0 0,5.28 0,10.56 0,16 C 10.72,16 5.44,16 0,16 0,10.72 0,5.44 0,0 Z"
         fill="#ff0000"
         transform="translate(272,96)"
         id="path154" /><path
         d="m 0,0 c 5.28,0 10.56,0 16,0 0,5.28 0,10.56 0,16 C 10.72,16 5.44,16 0,16 0,10.72 0,5.44 0,0 Z"
         fill="#8c6bcc"
         transform="translate(256,96)"
         id="path155" /><path
         d="m 0,0 c 5.28,0 10.56,0 16,0 0,5.28 0,10.56 0,16 C 10.72,16 5.44,16 0,16 0,10.72 0,5.44 0,0 Z"
         fill="#ff0000"
         transform="translate(80,96)"
         id="path156" /><path
         d="m 0,0 c 5.28,0 10.56,0 16,0 0,5.28 0,10.56 0,16 C 10.72,16 5.44,16 0,16 0,10.72 0,5.44 0,0 Z"
         fill="#ff0000"
         transform="translate(32,96)"
         id="path157" /><path
         d="m 0,0 c 5.28,0 10.56,0 16,0 0,5.28 0,10.56 0,16 C 10.72,16 5.44,16 0,16 0,10.72 0,5.44 0,0 Z"
         fill="#ff0000"
         transform="translate(320,80)"
         id="path158" /><path
         d="m 0,0 c 5.28,0 10.56,0 16,0 0,5.28 0,10.56 0,16 C 10.72,16 5.44,16 0,16 0,10.72 0,5.44 0,0 Z"
         fill="#cfff70"
         transform="translate(192,80)"
         id="path159" /><path
         d="m 0,0 c 5.28,0 10.56,0 16,0 0,5.28 0,10.56 0,16 C 10.72,16 5.44,16 0,16 0,10.72 0,5.44 0,0 Z"
         fill="#bcb689"
         transform="translate(96,80)"
         id="path160" /><path
         d="m 0,0 c 5.28,0 10.56,0 16,0 0,5.28 0,10.56 0,16 C 10.72,16 5.44,16 0,16 0,10.72 0,5.44 0,0 Z"
         fill="#000000"
         transform="translate(224,64)"
         id="path161" /><path
         d="m 0,0 c 5.28,0 10.56,0 16,0 0,5.28 0,10.56 0,16 C 10.72,16 5.44,16 0,16 0,10.72 0,5.44 0,0 Z"
         fill="#000000"
         transform="translate(128,64)"
         id="path162" /><path
         d="m 0,0 c 5.28,0 10.56,0 16,0 0,5.28 0,10.56 0,16 C 10.72,16 5.44,16 0,16 0,10.72 0,5.44 0,0 Z"
         fill="#000000"
         transform="translate(208,48)"
         id="path163" /><path
         d="m 0,0 c 5.28,0 10.56,0 16,0 0,5.28 0,10.56 0,16 C 10.72,16 5.44,16 0,16 0,10.72 0,5.44 0,0 Z"
         fill="#cfff70"
         transform="translate(192,48)"
         id="path164" /><path
         d="m 0,0 c 5.28,0 10.56,0 16,0 0,5.28 0,10.56 0,16 C 10.72,16 5.44,16 0,16 0,10.72 0,5.44 0,0 Z"
         fill="#000000"
         transform="translate(144,48)"
         id="path165" /></g><ellipse
       style="opacity:0.428325;fill:#9f7c55;fill-opacity:0;stroke:#000000;stroke-width:0.600001;stroke-miterlimit:3;stroke-opacity:0"
       id="path494"
       cx="114.95541"
       cy="23.866598"
       rx="4.6819839"
       ry="2.8067393" /><ellipse
       style="opacity:0.428325;fill:#9f7c55;fill-opacity:0;stroke:#000000;stroke-width:0.600001;stroke-miterlimit:3;stroke-opacity:0"
       id="path495"
       cx="121.57392"
       cy="24.859375"
       rx="3.75049"
       ry="3.0396128" /></g></svg>
